<?xml version="1.0" encoding="utf-8" standalone="no"?>
<!DOCTYPE svg PUBLIC "-//W3C//DTD SVG 1.1//EN"
  "http://www.w3.org/Graphics/SVG/1.1/DTD/svg11.dtd">
<!-- Created with matplotlib (https://matplotlib.org/) -->
<svg height="526.32pt" version="1.1" viewBox="0 0 925.92 526.32" width="925.92pt" xmlns="http://www.w3.org/2000/svg" xmlns:xlink="http://www.w3.org/1999/xlink">
 <defs>
  <style type="text/css">
*{stroke-linecap:butt;stroke-linejoin:round;}
  </style>
 </defs>
 <g id="figure_1">
  <g id="patch_1">
   <path d="M 0 526.32 
L 925.92 526.32 
L 925.92 0 
L 0 0 
z
" style="fill:#ffffff;"/>
  </g>
  <g id="axes_1">
   <g id="patch_2">
    <path d="M 115.74 468.4248 
L 833.328 468.4248 
L 833.328 63.1584 
L 115.74 63.1584 
z
" style="fill:#ffffff;"/>
   </g>
   <g id="matplotlib.axis_1">
    <g id="xtick_1">
     <g id="line2d_1">
      <path clip-path="url(#p2202c9c2cc)" d="M 137.835818 468.4248 
L 137.835818 63.1584 
" style="fill:none;stroke:#cccccc;stroke-linecap:round;stroke-width:0.8;"/>
     </g>
     <g id="line2d_2"/>
     <g id="text_1">
      <!-- 0 -->
      <defs>
       <path d="M 4.15625 35.296875 
Q 4.15625 48 6.765625 55.734375 
Q 9.375 63.484375 14.515625 67.671875 
Q 19.671875 71.875 27.484375 71.875 
Q 33.25 71.875 37.59375 69.546875 
Q 41.9375 67.234375 44.765625 62.859375 
Q 47.609375 58.5 49.21875 52.21875 
Q 50.828125 45.953125 50.828125 35.296875 
Q 50.828125 22.703125 48.234375 14.96875 
Q 45.65625 7.234375 40.5 3 
Q 35.359375 -1.21875 27.484375 -1.21875 
Q 17.140625 -1.21875 11.234375 6.203125 
Q 4.15625 15.140625 4.15625 35.296875 
z
M 13.1875 35.296875 
Q 13.1875 17.671875 17.3125 11.828125 
Q 21.4375 6 27.484375 6 
Q 33.546875 6 37.671875 11.859375 
Q 41.796875 17.71875 41.796875 35.296875 
Q 41.796875 52.984375 37.671875 58.78125 
Q 33.546875 64.59375 27.390625 64.59375 
Q 21.34375 64.59375 17.71875 59.46875 
Q 13.1875 52.9375 13.1875 35.296875 
z
" id="ArialMT-48"/>
      </defs>
      <g style="fill:#262626;" transform="translate(135.055349 479.082612)scale(0.1 -0.1)">
       <use xlink:href="#ArialMT-48"/>
      </g>
     </g>
    </g>
    <g id="xtick_2">
     <g id="line2d_3">
      <path clip-path="url(#p2202c9c2cc)" d="M 243.054 468.4248 
L 243.054 63.1584 
" style="fill:none;stroke:#cccccc;stroke-linecap:round;stroke-width:0.8;"/>
     </g>
     <g id="line2d_4"/>
     <g id="text_2">
      <!-- 10 -->
      <defs>
       <path d="M 37.25 0 
L 28.46875 0 
L 28.46875 56 
Q 25.296875 52.984375 20.140625 49.953125 
Q 14.984375 46.921875 10.890625 45.40625 
L 10.890625 53.90625 
Q 18.265625 57.375 23.78125 62.296875 
Q 29.296875 67.234375 31.59375 71.875 
L 37.25 71.875 
z
" id="ArialMT-49"/>
      </defs>
      <g style="fill:#262626;" transform="translate(237.493063 479.082612)scale(0.1 -0.1)">
       <use xlink:href="#ArialMT-49"/>
       <use x="55.615234" xlink:href="#ArialMT-48"/>
      </g>
     </g>
    </g>
    <g id="xtick_3">
     <g id="line2d_5">
      <path clip-path="url(#p2202c9c2cc)" d="M 348.272182 468.4248 
L 348.272182 63.1584 
" style="fill:none;stroke:#cccccc;stroke-linecap:round;stroke-width:0.8;"/>
     </g>
     <g id="line2d_6"/>
     <g id="text_3">
      <!-- 20 -->
      <defs>
       <path d="M 50.34375 8.453125 
L 50.34375 0 
L 3.03125 0 
Q 2.9375 3.171875 4.046875 6.109375 
Q 5.859375 10.9375 9.828125 15.625 
Q 13.8125 20.3125 21.34375 26.46875 
Q 33.015625 36.03125 37.109375 41.625 
Q 41.21875 47.21875 41.21875 52.203125 
Q 41.21875 57.421875 37.46875 61 
Q 33.734375 64.59375 27.734375 64.59375 
Q 21.390625 64.59375 17.578125 60.78125 
Q 13.765625 56.984375 13.71875 50.25 
L 4.6875 51.171875 
Q 5.609375 61.28125 11.65625 66.578125 
Q 17.71875 71.875 27.9375 71.875 
Q 38.234375 71.875 44.234375 66.15625 
Q 50.25 60.453125 50.25 52 
Q 50.25 47.703125 48.484375 43.546875 
Q 46.734375 39.40625 42.65625 34.8125 
Q 38.578125 30.21875 29.109375 22.21875 
Q 21.1875 15.578125 18.9375 13.203125 
Q 16.703125 10.84375 15.234375 8.453125 
z
" id="ArialMT-50"/>
      </defs>
      <g style="fill:#262626;" transform="translate(342.711244 479.082612)scale(0.1 -0.1)">
       <use xlink:href="#ArialMT-50"/>
       <use x="55.615234" xlink:href="#ArialMT-48"/>
      </g>
     </g>
    </g>
    <g id="xtick_4">
     <g id="line2d_7">
      <path clip-path="url(#p2202c9c2cc)" d="M 453.490364 468.4248 
L 453.490364 63.1584 
" style="fill:none;stroke:#cccccc;stroke-linecap:round;stroke-width:0.8;"/>
     </g>
     <g id="line2d_8"/>
     <g id="text_4">
      <!-- 30 -->
      <defs>
       <path d="M 4.203125 18.890625 
L 12.984375 20.0625 
Q 14.5 12.59375 18.140625 9.296875 
Q 21.78125 6 27 6 
Q 33.203125 6 37.46875 10.296875 
Q 41.75 14.59375 41.75 20.953125 
Q 41.75 27 37.796875 30.921875 
Q 33.84375 34.859375 27.734375 34.859375 
Q 25.25 34.859375 21.53125 33.890625 
L 22.515625 41.609375 
Q 23.390625 41.5 23.921875 41.5 
Q 29.546875 41.5 34.03125 44.421875 
Q 38.53125 47.359375 38.53125 53.46875 
Q 38.53125 58.296875 35.25 61.46875 
Q 31.984375 64.65625 26.8125 64.65625 
Q 21.6875 64.65625 18.265625 61.421875 
Q 14.84375 58.203125 13.875 51.765625 
L 5.078125 53.328125 
Q 6.6875 62.15625 12.390625 67.015625 
Q 18.109375 71.875 26.609375 71.875 
Q 32.46875 71.875 37.390625 69.359375 
Q 42.328125 66.84375 44.9375 62.5 
Q 47.5625 58.15625 47.5625 53.265625 
Q 47.5625 48.640625 45.0625 44.828125 
Q 42.578125 41.015625 37.703125 38.765625 
Q 44.046875 37.3125 47.5625 32.6875 
Q 51.078125 28.078125 51.078125 21.140625 
Q 51.078125 11.765625 44.234375 5.25 
Q 37.40625 -1.265625 26.953125 -1.265625 
Q 17.53125 -1.265625 11.296875 4.34375 
Q 5.078125 9.96875 4.203125 18.890625 
z
" id="ArialMT-51"/>
      </defs>
      <g style="fill:#262626;" transform="translate(447.929426 479.082612)scale(0.1 -0.1)">
       <use xlink:href="#ArialMT-51"/>
       <use x="55.615234" xlink:href="#ArialMT-48"/>
      </g>
     </g>
    </g>
    <g id="xtick_5">
     <g id="line2d_9">
      <path clip-path="url(#p2202c9c2cc)" d="M 558.708545 468.4248 
L 558.708545 63.1584 
" style="fill:none;stroke:#cccccc;stroke-linecap:round;stroke-width:0.8;"/>
     </g>
     <g id="line2d_10"/>
     <g id="text_5">
      <!-- 40 -->
      <defs>
       <path d="M 32.328125 0 
L 32.328125 17.140625 
L 1.265625 17.140625 
L 1.265625 25.203125 
L 33.9375 71.578125 
L 41.109375 71.578125 
L 41.109375 25.203125 
L 50.78125 25.203125 
L 50.78125 17.140625 
L 41.109375 17.140625 
L 41.109375 0 
z
M 32.328125 25.203125 
L 32.328125 57.46875 
L 9.90625 25.203125 
z
" id="ArialMT-52"/>
      </defs>
      <g style="fill:#262626;" transform="translate(553.147608 479.082612)scale(0.1 -0.1)">
       <use xlink:href="#ArialMT-52"/>
       <use x="55.615234" xlink:href="#ArialMT-48"/>
      </g>
     </g>
    </g>
    <g id="xtick_6">
     <g id="line2d_11">
      <path clip-path="url(#p2202c9c2cc)" d="M 663.926727 468.4248 
L 663.926727 63.1584 
" style="fill:none;stroke:#cccccc;stroke-linecap:round;stroke-width:0.8;"/>
     </g>
     <g id="line2d_12"/>
     <g id="text_6">
      <!-- 50 -->
      <defs>
       <path d="M 4.15625 18.75 
L 13.375 19.53125 
Q 14.40625 12.796875 18.140625 9.390625 
Q 21.875 6 27.15625 6 
Q 33.5 6 37.890625 10.78125 
Q 42.28125 15.578125 42.28125 23.484375 
Q 42.28125 31 38.0625 35.34375 
Q 33.84375 39.703125 27 39.703125 
Q 22.75 39.703125 19.328125 37.765625 
Q 15.921875 35.84375 13.96875 32.765625 
L 5.71875 33.84375 
L 12.640625 70.609375 
L 48.25 70.609375 
L 48.25 62.203125 
L 19.671875 62.203125 
L 15.828125 42.96875 
Q 22.265625 47.46875 29.34375 47.46875 
Q 38.71875 47.46875 45.15625 40.96875 
Q 51.609375 34.46875 51.609375 24.265625 
Q 51.609375 14.546875 45.953125 7.46875 
Q 39.0625 -1.21875 27.15625 -1.21875 
Q 17.390625 -1.21875 11.203125 4.25 
Q 5.03125 9.71875 4.15625 18.75 
z
" id="ArialMT-53"/>
      </defs>
      <g style="fill:#262626;" transform="translate(658.36579 479.082612)scale(0.1 -0.1)">
       <use xlink:href="#ArialMT-53"/>
       <use x="55.615234" xlink:href="#ArialMT-48"/>
      </g>
     </g>
    </g>
    <g id="xtick_7">
     <g id="line2d_13">
      <path clip-path="url(#p2202c9c2cc)" d="M 769.144909 468.4248 
L 769.144909 63.1584 
" style="fill:none;stroke:#cccccc;stroke-linecap:round;stroke-width:0.8;"/>
     </g>
     <g id="line2d_14"/>
     <g id="text_7">
      <!-- 60 -->
      <defs>
       <path d="M 49.75 54.046875 
L 41.015625 53.375 
Q 39.84375 58.546875 37.703125 60.890625 
Q 34.125 64.65625 28.90625 64.65625 
Q 24.703125 64.65625 21.53125 62.3125 
Q 17.390625 59.28125 14.984375 53.46875 
Q 12.59375 47.65625 12.5 36.921875 
Q 15.671875 41.75 20.265625 44.09375 
Q 24.859375 46.4375 29.890625 46.4375 
Q 38.671875 46.4375 44.84375 39.96875 
Q 51.03125 33.5 51.03125 23.25 
Q 51.03125 16.5 48.125 10.71875 
Q 45.21875 4.9375 40.140625 1.859375 
Q 35.0625 -1.21875 28.609375 -1.21875 
Q 17.625 -1.21875 10.6875 6.859375 
Q 3.765625 14.9375 3.765625 33.5 
Q 3.765625 54.25 11.421875 63.671875 
Q 18.109375 71.875 29.4375 71.875 
Q 37.890625 71.875 43.28125 67.140625 
Q 48.6875 62.40625 49.75 54.046875 
z
M 13.875 23.1875 
Q 13.875 18.65625 15.796875 14.5 
Q 17.71875 10.359375 21.1875 8.171875 
Q 24.65625 6 28.46875 6 
Q 34.03125 6 38.03125 10.484375 
Q 42.046875 14.984375 42.046875 22.703125 
Q 42.046875 30.125 38.078125 34.390625 
Q 34.125 38.671875 28.125 38.671875 
Q 22.171875 38.671875 18.015625 34.390625 
Q 13.875 30.125 13.875 23.1875 
z
" id="ArialMT-54"/>
      </defs>
      <g style="fill:#262626;" transform="translate(763.583972 479.082612)scale(0.1 -0.1)">
       <use xlink:href="#ArialMT-54"/>
       <use x="55.615234" xlink:href="#ArialMT-48"/>
      </g>
     </g>
    </g>
    <g id="text_8">
     <!-- Thread count -->
     <defs>
      <path d="M 25.921875 0 
L 25.921875 63.140625 
L 2.34375 63.140625 
L 2.34375 71.578125 
L 59.078125 71.578125 
L 59.078125 63.140625 
L 35.40625 63.140625 
L 35.40625 0 
z
" id="ArialMT-84"/>
      <path d="M 6.59375 0 
L 6.59375 71.578125 
L 15.375 71.578125 
L 15.375 45.90625 
Q 21.53125 53.03125 30.90625 53.03125 
Q 36.671875 53.03125 40.921875 50.75 
Q 45.171875 48.484375 47 44.484375 
Q 48.828125 40.484375 48.828125 32.859375 
L 48.828125 0 
L 40.046875 0 
L 40.046875 32.859375 
Q 40.046875 39.453125 37.1875 42.453125 
Q 34.328125 45.453125 29.109375 45.453125 
Q 25.203125 45.453125 21.75 43.421875 
Q 18.3125 41.40625 16.84375 37.9375 
Q 15.375 34.46875 15.375 28.375 
L 15.375 0 
z
" id="ArialMT-104"/>
      <path d="M 6.5 0 
L 6.5 51.859375 
L 14.40625 51.859375 
L 14.40625 44 
Q 17.4375 49.515625 20 51.265625 
Q 22.5625 53.03125 25.640625 53.03125 
Q 30.078125 53.03125 34.671875 50.203125 
L 31.640625 42.046875 
Q 28.421875 43.953125 25.203125 43.953125 
Q 22.3125 43.953125 20.015625 42.21875 
Q 17.71875 40.484375 16.75 37.40625 
Q 15.28125 32.71875 15.28125 27.15625 
L 15.28125 0 
z
" id="ArialMT-114"/>
      <path d="M 42.09375 16.703125 
L 51.171875 15.578125 
Q 49.03125 7.625 43.21875 3.21875 
Q 37.40625 -1.171875 28.375 -1.171875 
Q 17 -1.171875 10.328125 5.828125 
Q 3.65625 12.84375 3.65625 25.484375 
Q 3.65625 38.578125 10.390625 45.796875 
Q 17.140625 53.03125 27.875 53.03125 
Q 38.28125 53.03125 44.875 45.953125 
Q 51.46875 38.875 51.46875 26.03125 
Q 51.46875 25.25 51.421875 23.6875 
L 12.75 23.6875 
Q 13.234375 15.140625 17.578125 10.59375 
Q 21.921875 6.0625 28.421875 6.0625 
Q 33.25 6.0625 36.671875 8.59375 
Q 40.09375 11.140625 42.09375 16.703125 
z
M 13.234375 30.90625 
L 42.1875 30.90625 
Q 41.609375 37.453125 38.875 40.71875 
Q 34.671875 45.796875 27.984375 45.796875 
Q 21.921875 45.796875 17.796875 41.75 
Q 13.671875 37.703125 13.234375 30.90625 
z
" id="ArialMT-101"/>
      <path d="M 40.4375 6.390625 
Q 35.546875 2.25 31.03125 0.53125 
Q 26.515625 -1.171875 21.34375 -1.171875 
Q 12.796875 -1.171875 8.203125 3 
Q 3.609375 7.171875 3.609375 13.671875 
Q 3.609375 17.484375 5.34375 20.625 
Q 7.078125 23.78125 9.890625 25.6875 
Q 12.703125 27.59375 16.21875 28.5625 
Q 18.796875 29.25 24.03125 29.890625 
Q 34.671875 31.15625 39.703125 32.90625 
Q 39.75 34.71875 39.75 35.203125 
Q 39.75 40.578125 37.25 42.78125 
Q 33.890625 45.75 27.25 45.75 
Q 21.046875 45.75 18.09375 43.578125 
Q 15.140625 41.40625 13.71875 35.890625 
L 5.125 37.0625 
Q 6.296875 42.578125 8.984375 45.96875 
Q 11.671875 49.359375 16.75 51.1875 
Q 21.828125 53.03125 28.515625 53.03125 
Q 35.15625 53.03125 39.296875 51.46875 
Q 43.453125 49.90625 45.40625 47.53125 
Q 47.359375 45.171875 48.140625 41.546875 
Q 48.578125 39.3125 48.578125 33.453125 
L 48.578125 21.734375 
Q 48.578125 9.46875 49.140625 6.21875 
Q 49.703125 2.984375 51.375 0 
L 42.1875 0 
Q 40.828125 2.734375 40.4375 6.390625 
z
M 39.703125 26.03125 
Q 34.90625 24.078125 25.34375 22.703125 
Q 19.921875 21.921875 17.671875 20.9375 
Q 15.4375 19.96875 14.203125 18.09375 
Q 12.984375 16.21875 12.984375 13.921875 
Q 12.984375 10.40625 15.640625 8.0625 
Q 18.3125 5.71875 23.4375 5.71875 
Q 28.515625 5.71875 32.46875 7.9375 
Q 36.421875 10.15625 38.28125 14.015625 
Q 39.703125 17 39.703125 22.796875 
z
" id="ArialMT-97"/>
      <path d="M 40.234375 0 
L 40.234375 6.546875 
Q 35.296875 -1.171875 25.734375 -1.171875 
Q 19.53125 -1.171875 14.328125 2.25 
Q 9.125 5.671875 6.265625 11.796875 
Q 3.421875 17.921875 3.421875 25.875 
Q 3.421875 33.640625 6 39.96875 
Q 8.59375 46.296875 13.765625 49.65625 
Q 18.953125 53.03125 25.34375 53.03125 
Q 30.03125 53.03125 33.6875 51.046875 
Q 37.359375 49.078125 39.65625 45.90625 
L 39.65625 71.578125 
L 48.390625 71.578125 
L 48.390625 0 
z
M 12.453125 25.875 
Q 12.453125 15.921875 16.640625 10.984375 
Q 20.84375 6.0625 26.5625 6.0625 
Q 32.328125 6.0625 36.34375 10.765625 
Q 40.375 15.484375 40.375 25.140625 
Q 40.375 35.796875 36.265625 40.765625 
Q 32.171875 45.75 26.171875 45.75 
Q 20.3125 45.75 16.375 40.96875 
Q 12.453125 36.1875 12.453125 25.875 
z
" id="ArialMT-100"/>
      <path id="ArialMT-32"/>
      <path d="M 40.4375 19 
L 49.078125 17.875 
Q 47.65625 8.9375 41.8125 3.875 
Q 35.984375 -1.171875 27.484375 -1.171875 
Q 16.84375 -1.171875 10.375 5.78125 
Q 3.90625 12.75 3.90625 25.734375 
Q 3.90625 34.125 6.6875 40.421875 
Q 9.46875 46.734375 15.15625 49.875 
Q 20.84375 53.03125 27.546875 53.03125 
Q 35.984375 53.03125 41.359375 48.75 
Q 46.734375 44.484375 48.25 36.625 
L 39.703125 35.296875 
Q 38.484375 40.53125 35.375 43.15625 
Q 32.28125 45.796875 27.875 45.796875 
Q 21.234375 45.796875 17.078125 41.03125 
Q 12.9375 36.28125 12.9375 25.984375 
Q 12.9375 15.53125 16.9375 10.796875 
Q 20.953125 6.0625 27.390625 6.0625 
Q 32.5625 6.0625 36.03125 9.234375 
Q 39.5 12.40625 40.4375 19 
z
" id="ArialMT-99"/>
      <path d="M 3.328125 25.921875 
Q 3.328125 40.328125 11.328125 47.265625 
Q 18.015625 53.03125 27.640625 53.03125 
Q 38.328125 53.03125 45.109375 46.015625 
Q 51.90625 39.015625 51.90625 26.65625 
Q 51.90625 16.65625 48.90625 10.90625 
Q 45.90625 5.171875 40.15625 2 
Q 34.421875 -1.171875 27.640625 -1.171875 
Q 16.75 -1.171875 10.03125 5.8125 
Q 3.328125 12.796875 3.328125 25.921875 
z
M 12.359375 25.921875 
Q 12.359375 15.96875 16.703125 11.015625 
Q 21.046875 6.0625 27.640625 6.0625 
Q 34.1875 6.0625 38.53125 11.03125 
Q 42.875 16.015625 42.875 26.21875 
Q 42.875 35.84375 38.5 40.796875 
Q 34.125 45.75 27.640625 45.75 
Q 21.046875 45.75 16.703125 40.8125 
Q 12.359375 35.890625 12.359375 25.921875 
z
" id="ArialMT-111"/>
      <path d="M 40.578125 0 
L 40.578125 7.625 
Q 34.515625 -1.171875 24.125 -1.171875 
Q 19.53125 -1.171875 15.546875 0.578125 
Q 11.578125 2.34375 9.640625 5 
Q 7.71875 7.671875 6.9375 11.53125 
Q 6.390625 14.109375 6.390625 19.734375 
L 6.390625 51.859375 
L 15.1875 51.859375 
L 15.1875 23.09375 
Q 15.1875 16.21875 15.71875 13.8125 
Q 16.546875 10.359375 19.234375 8.375 
Q 21.921875 6.390625 25.875 6.390625 
Q 29.828125 6.390625 33.296875 8.421875 
Q 36.765625 10.453125 38.203125 13.9375 
Q 39.65625 17.4375 39.65625 24.078125 
L 39.65625 51.859375 
L 48.4375 51.859375 
L 48.4375 0 
z
" id="ArialMT-117"/>
      <path d="M 6.59375 0 
L 6.59375 51.859375 
L 14.5 51.859375 
L 14.5 44.484375 
Q 20.21875 53.03125 31 53.03125 
Q 35.6875 53.03125 39.625 51.34375 
Q 43.5625 49.65625 45.515625 46.921875 
Q 47.46875 44.1875 48.25 40.4375 
Q 48.734375 37.984375 48.734375 31.890625 
L 48.734375 0 
L 39.9375 0 
L 39.9375 31.546875 
Q 39.9375 36.921875 38.90625 39.578125 
Q 37.890625 42.234375 35.28125 43.8125 
Q 32.671875 45.40625 29.15625 45.40625 
Q 23.53125 45.40625 19.453125 41.84375 
Q 15.375 38.28125 15.375 28.328125 
L 15.375 0 
z
" id="ArialMT-110"/>
      <path d="M 25.78125 7.859375 
L 27.046875 0.09375 
Q 23.34375 -0.6875 20.40625 -0.6875 
Q 15.625 -0.6875 12.984375 0.828125 
Q 10.359375 2.34375 9.28125 4.8125 
Q 8.203125 7.28125 8.203125 15.1875 
L 8.203125 45.015625 
L 1.765625 45.015625 
L 1.765625 51.859375 
L 8.203125 51.859375 
L 8.203125 64.703125 
L 16.9375 69.96875 
L 16.9375 51.859375 
L 25.78125 51.859375 
L 25.78125 45.015625 
L 16.9375 45.015625 
L 16.9375 14.703125 
Q 16.9375 10.9375 17.40625 9.859375 
Q 17.875 8.796875 18.921875 8.15625 
Q 19.96875 7.515625 21.921875 7.515625 
Q 23.390625 7.515625 25.78125 7.859375 
z
" id="ArialMT-116"/>
     </defs>
     <g style="fill:#262626;" transform="translate(445.073844 492.227925)scale(0.1 -0.1)">
      <use xlink:href="#ArialMT-84"/>
      <use x="61.083984" xlink:href="#ArialMT-104"/>
      <use x="116.699219" xlink:href="#ArialMT-114"/>
      <use x="150" xlink:href="#ArialMT-101"/>
      <use x="205.615234" xlink:href="#ArialMT-97"/>
      <use x="261.230469" xlink:href="#ArialMT-100"/>
      <use x="316.845703" xlink:href="#ArialMT-32"/>
      <use x="344.628906" xlink:href="#ArialMT-99"/>
      <use x="394.628906" xlink:href="#ArialMT-111"/>
      <use x="450.244141" xlink:href="#ArialMT-117"/>
      <use x="505.859375" xlink:href="#ArialMT-110"/>
      <use x="561.474609" xlink:href="#ArialMT-116"/>
     </g>
    </g>
   </g>
   <g id="matplotlib.axis_2">
    <g id="ytick_1">
     <g id="line2d_15">
      <path clip-path="url(#p2202c9c2cc)" d="M 115.74 431.586703 
L 833.328 431.586703 
" style="fill:none;stroke:#cccccc;stroke-linecap:round;stroke-width:0.8;"/>
     </g>
     <g id="line2d_16"/>
     <g id="text_9">
      <!-- 1 -->
      <g style="fill:#262626;" transform="translate(106.679063 435.165609)scale(0.1 -0.1)">
       <use xlink:href="#ArialMT-49"/>
      </g>
     </g>
    </g>
    <g id="ytick_2">
     <g id="line2d_17">
      <path clip-path="url(#p2202c9c2cc)" d="M 115.74 345.526437 
L 833.328 345.526437 
" style="fill:none;stroke:#cccccc;stroke-linecap:round;stroke-width:0.8;"/>
     </g>
     <g id="line2d_18"/>
     <g id="text_10">
      <!-- 2 -->
      <g style="fill:#262626;" transform="translate(106.679063 349.105343)scale(0.1 -0.1)">
       <use xlink:href="#ArialMT-50"/>
      </g>
     </g>
    </g>
    <g id="ytick_3">
     <g id="line2d_19">
      <path clip-path="url(#p2202c9c2cc)" d="M 115.74 259.46617 
L 833.328 259.46617 
" style="fill:none;stroke:#cccccc;stroke-linecap:round;stroke-width:0.8;"/>
     </g>
     <g id="line2d_20"/>
     <g id="text_11">
      <!-- 3 -->
      <g style="fill:#262626;" transform="translate(106.679063 263.045077)scale(0.1 -0.1)">
       <use xlink:href="#ArialMT-51"/>
      </g>
     </g>
    </g>
    <g id="ytick_4">
     <g id="line2d_21">
      <path clip-path="url(#p2202c9c2cc)" d="M 115.74 173.405904 
L 833.328 173.405904 
" style="fill:none;stroke:#cccccc;stroke-linecap:round;stroke-width:0.8;"/>
     </g>
     <g id="line2d_22"/>
     <g id="text_12">
      <!-- 4 -->
      <g style="fill:#262626;" transform="translate(106.679063 176.98481)scale(0.1 -0.1)">
       <use xlink:href="#ArialMT-52"/>
      </g>
     </g>
    </g>
    <g id="ytick_5">
     <g id="line2d_23">
      <path clip-path="url(#p2202c9c2cc)" d="M 115.74 87.345638 
L 833.328 87.345638 
" style="fill:none;stroke:#cccccc;stroke-linecap:round;stroke-width:0.8;"/>
     </g>
     <g id="line2d_24"/>
     <g id="text_13">
      <!-- 5 -->
      <g style="fill:#262626;" transform="translate(106.679063 90.924544)scale(0.1 -0.1)">
       <use xlink:href="#ArialMT-53"/>
      </g>
     </g>
    </g>
    <g id="text_14">
     <!-- Time, sec -->
     <defs>
      <path d="M 6.640625 61.46875 
L 6.640625 71.578125 
L 15.4375 71.578125 
L 15.4375 61.46875 
z
M 6.640625 0 
L 6.640625 51.859375 
L 15.4375 51.859375 
L 15.4375 0 
z
" id="ArialMT-105"/>
      <path d="M 6.59375 0 
L 6.59375 51.859375 
L 14.453125 51.859375 
L 14.453125 44.578125 
Q 16.890625 48.390625 20.9375 50.703125 
Q 25 53.03125 30.171875 53.03125 
Q 35.9375 53.03125 39.625 50.640625 
Q 43.3125 48.25 44.828125 43.953125 
Q 50.984375 53.03125 60.84375 53.03125 
Q 68.5625 53.03125 72.703125 48.75 
Q 76.859375 44.484375 76.859375 35.59375 
L 76.859375 0 
L 68.109375 0 
L 68.109375 32.671875 
Q 68.109375 37.9375 67.25 40.25 
Q 66.40625 42.578125 64.15625 43.984375 
Q 61.921875 45.40625 58.890625 45.40625 
Q 53.421875 45.40625 49.796875 41.765625 
Q 46.1875 38.140625 46.1875 30.125 
L 46.1875 0 
L 37.40625 0 
L 37.40625 33.6875 
Q 37.40625 39.546875 35.25 42.46875 
Q 33.109375 45.40625 28.21875 45.40625 
Q 24.515625 45.40625 21.359375 43.453125 
Q 18.21875 41.5 16.796875 37.734375 
Q 15.375 33.984375 15.375 26.90625 
L 15.375 0 
z
" id="ArialMT-109"/>
      <path d="M 8.890625 0 
L 8.890625 10.015625 
L 18.890625 10.015625 
L 18.890625 0 
Q 18.890625 -5.515625 16.9375 -8.90625 
Q 14.984375 -12.3125 10.75 -14.15625 
L 8.296875 -10.40625 
Q 11.078125 -9.1875 12.390625 -6.8125 
Q 13.71875 -4.4375 13.875 0 
z
" id="ArialMT-44"/>
      <path d="M 3.078125 15.484375 
L 11.765625 16.84375 
Q 12.5 11.625 15.84375 8.84375 
Q 19.1875 6.0625 25.203125 6.0625 
Q 31.25 6.0625 34.171875 8.515625 
Q 37.109375 10.984375 37.109375 14.3125 
Q 37.109375 17.28125 34.515625 19 
Q 32.71875 20.171875 25.53125 21.96875 
Q 15.875 24.421875 12.140625 26.203125 
Q 8.40625 27.984375 6.46875 31.125 
Q 4.546875 34.28125 4.546875 38.09375 
Q 4.546875 41.546875 6.125 44.5 
Q 7.71875 47.46875 10.453125 49.421875 
Q 12.5 50.921875 16.03125 51.96875 
Q 19.578125 53.03125 23.640625 53.03125 
Q 29.734375 53.03125 34.34375 51.265625 
Q 38.96875 49.515625 41.15625 46.5 
Q 43.359375 43.5 44.1875 38.484375 
L 35.59375 37.3125 
Q 35.015625 41.3125 32.203125 43.546875 
Q 29.390625 45.796875 24.265625 45.796875 
Q 18.21875 45.796875 15.625 43.796875 
Q 13.03125 41.796875 13.03125 39.109375 
Q 13.03125 37.40625 14.109375 36.03125 
Q 15.1875 34.625 17.484375 33.6875 
Q 18.796875 33.203125 25.25 31.453125 
Q 34.578125 28.953125 38.25 27.359375 
Q 41.9375 25.78125 44.03125 22.75 
Q 46.140625 19.734375 46.140625 15.234375 
Q 46.140625 10.84375 43.578125 6.953125 
Q 41.015625 3.078125 36.171875 0.953125 
Q 31.34375 -1.171875 25.25 -1.171875 
Q 15.140625 -1.171875 9.84375 3.03125 
Q 4.546875 7.234375 3.078125 15.484375 
z
" id="ArialMT-115"/>
     </defs>
     <g style="fill:#262626;" transform="translate(100.691563 287.458006)rotate(-90)scale(0.1 -0.1)">
      <use xlink:href="#ArialMT-84"/>
      <use x="61.037109" xlink:href="#ArialMT-105"/>
      <use x="83.253906" xlink:href="#ArialMT-109"/>
      <use x="166.554688" xlink:href="#ArialMT-101"/>
      <use x="222.169922" xlink:href="#ArialMT-44"/>
      <use x="249.953125" xlink:href="#ArialMT-32"/>
      <use x="277.736328" xlink:href="#ArialMT-115"/>
      <use x="327.736328" xlink:href="#ArialMT-101"/>
      <use x="383.351562" xlink:href="#ArialMT-99"/>
     </g>
    </g>
   </g>
   <g id="line2d_25">
    <path clip-path="url(#p2202c9c2cc)" d="M 148.357636 82.956564 
L 158.879455 82.956564 
L 169.401273 82.870504 
L 179.923091 82.956564 
L 190.444909 82.956564 
L 200.966727 82.870504 
L 211.488545 82.956564 
L 222.010364 82.956564 
L 232.532182 82.870504 
L 243.054 82.956564 
L 253.575818 82.870504 
L 264.097636 82.956564 
L 274.619455 82.870504 
L 285.141273 82.870504 
L 295.663091 82.870504 
L 306.184909 82.870504 
L 316.706727 82.870504 
L 327.228545 82.870504 
L 337.750364 82.870504 
L 348.272182 82.612323 
L 358.794 82.956564 
L 369.315818 82.870504 
L 379.837636 82.870504 
L 390.359455 82.784444 
L 400.881273 82.956564 
L 411.403091 82.870504 
L 421.924909 82.870504 
L 432.446727 82.870504 
L 442.968545 82.870504 
L 453.490364 82.870504 
L 464.012182 82.956564 
L 474.534 82.956564 
L 485.055818 82.870504 
L 495.577636 82.956564 
L 506.099455 82.956564 
L 516.621273 82.956564 
L 527.143091 82.956564 
L 537.664909 82.612323 
L 548.186727 82.784444 
L 558.708545 82.784444 
L 569.230364 82.870504 
L 579.752182 82.956564 
L 590.274 82.870504 
L 600.795818 82.698383 
L 611.317636 82.870504 
L 621.839455 82.870504 
L 632.361273 82.009901 
L 642.883091 82.784444 
L 653.404909 82.870504 
L 663.926727 82.956564 
L 674.448545 82.870504 
L 684.970364 82.784444 
L 695.492182 82.870504 
L 706.014 82.956564 
L 716.535818 82.870504 
L 727.057636 82.870504 
L 737.579455 82.870504 
L 748.101273 82.784444 
L 758.623091 82.956564 
L 769.144909 82.870504 
L 779.666727 82.956564 
L 790.188545 82.870504 
L 800.710364 82.870504 
" style="fill:none;stroke:#1f77b4;stroke-linecap:round;stroke-width:1.2;"/>
    <defs>
     <path d="M 0 1.5 
C 0.397805 1.5 0.77937 1.341951 1.06066 1.06066 
C 1.341951 0.77937 1.5 0.397805 1.5 0 
C 1.5 -0.397805 1.341951 -0.77937 1.06066 -1.06066 
C 0.77937 -1.341951 0.397805 -1.5 0 -1.5 
C -0.397805 -1.5 -0.77937 -1.341951 -1.06066 -1.06066 
C -1.341951 -0.77937 -1.5 -0.397805 -1.5 0 
C -1.5 0.397805 -1.341951 0.77937 -1.06066 1.06066 
C -0.77937 1.341951 -0.397805 1.5 0 1.5 
z
" id="m24c74a46b5" style="stroke:#1f77b4;"/>
    </defs>
    <g clip-path="url(#p2202c9c2cc)">
     <use style="fill:#1f77b4;stroke:#1f77b4;" x="148.357636" xlink:href="#m24c74a46b5" y="82.956564"/>
     <use style="fill:#1f77b4;stroke:#1f77b4;" x="158.879455" xlink:href="#m24c74a46b5" y="82.956564"/>
     <use style="fill:#1f77b4;stroke:#1f77b4;" x="169.401273" xlink:href="#m24c74a46b5" y="82.870504"/>
     <use style="fill:#1f77b4;stroke:#1f77b4;" x="179.923091" xlink:href="#m24c74a46b5" y="82.956564"/>
     <use style="fill:#1f77b4;stroke:#1f77b4;" x="190.444909" xlink:href="#m24c74a46b5" y="82.956564"/>
     <use style="fill:#1f77b4;stroke:#1f77b4;" x="200.966727" xlink:href="#m24c74a46b5" y="82.870504"/>
     <use style="fill:#1f77b4;stroke:#1f77b4;" x="211.488545" xlink:href="#m24c74a46b5" y="82.956564"/>
     <use style="fill:#1f77b4;stroke:#1f77b4;" x="222.010364" xlink:href="#m24c74a46b5" y="82.956564"/>
     <use style="fill:#1f77b4;stroke:#1f77b4;" x="232.532182" xlink:href="#m24c74a46b5" y="82.870504"/>
     <use style="fill:#1f77b4;stroke:#1f77b4;" x="243.054" xlink:href="#m24c74a46b5" y="82.956564"/>
     <use style="fill:#1f77b4;stroke:#1f77b4;" x="253.575818" xlink:href="#m24c74a46b5" y="82.870504"/>
     <use style="fill:#1f77b4;stroke:#1f77b4;" x="264.097636" xlink:href="#m24c74a46b5" y="82.956564"/>
     <use style="fill:#1f77b4;stroke:#1f77b4;" x="274.619455" xlink:href="#m24c74a46b5" y="82.870504"/>
     <use style="fill:#1f77b4;stroke:#1f77b4;" x="285.141273" xlink:href="#m24c74a46b5" y="82.870504"/>
     <use style="fill:#1f77b4;stroke:#1f77b4;" x="295.663091" xlink:href="#m24c74a46b5" y="82.870504"/>
     <use style="fill:#1f77b4;stroke:#1f77b4;" x="306.184909" xlink:href="#m24c74a46b5" y="82.870504"/>
     <use style="fill:#1f77b4;stroke:#1f77b4;" x="316.706727" xlink:href="#m24c74a46b5" y="82.870504"/>
     <use style="fill:#1f77b4;stroke:#1f77b4;" x="327.228545" xlink:href="#m24c74a46b5" y="82.870504"/>
     <use style="fill:#1f77b4;stroke:#1f77b4;" x="337.750364" xlink:href="#m24c74a46b5" y="82.870504"/>
     <use style="fill:#1f77b4;stroke:#1f77b4;" x="348.272182" xlink:href="#m24c74a46b5" y="82.612323"/>
     <use style="fill:#1f77b4;stroke:#1f77b4;" x="358.794" xlink:href="#m24c74a46b5" y="82.956564"/>
     <use style="fill:#1f77b4;stroke:#1f77b4;" x="369.315818" xlink:href="#m24c74a46b5" y="82.870504"/>
     <use style="fill:#1f77b4;stroke:#1f77b4;" x="379.837636" xlink:href="#m24c74a46b5" y="82.870504"/>
     <use style="fill:#1f77b4;stroke:#1f77b4;" x="390.359455" xlink:href="#m24c74a46b5" y="82.784444"/>
     <use style="fill:#1f77b4;stroke:#1f77b4;" x="400.881273" xlink:href="#m24c74a46b5" y="82.956564"/>
     <use style="fill:#1f77b4;stroke:#1f77b4;" x="411.403091" xlink:href="#m24c74a46b5" y="82.870504"/>
     <use style="fill:#1f77b4;stroke:#1f77b4;" x="421.924909" xlink:href="#m24c74a46b5" y="82.870504"/>
     <use style="fill:#1f77b4;stroke:#1f77b4;" x="432.446727" xlink:href="#m24c74a46b5" y="82.870504"/>
     <use style="fill:#1f77b4;stroke:#1f77b4;" x="442.968545" xlink:href="#m24c74a46b5" y="82.870504"/>
     <use style="fill:#1f77b4;stroke:#1f77b4;" x="453.490364" xlink:href="#m24c74a46b5" y="82.870504"/>
     <use style="fill:#1f77b4;stroke:#1f77b4;" x="464.012182" xlink:href="#m24c74a46b5" y="82.956564"/>
     <use style="fill:#1f77b4;stroke:#1f77b4;" x="474.534" xlink:href="#m24c74a46b5" y="82.956564"/>
     <use style="fill:#1f77b4;stroke:#1f77b4;" x="485.055818" xlink:href="#m24c74a46b5" y="82.870504"/>
     <use style="fill:#1f77b4;stroke:#1f77b4;" x="495.577636" xlink:href="#m24c74a46b5" y="82.956564"/>
     <use style="fill:#1f77b4;stroke:#1f77b4;" x="506.099455" xlink:href="#m24c74a46b5" y="82.956564"/>
     <use style="fill:#1f77b4;stroke:#1f77b4;" x="516.621273" xlink:href="#m24c74a46b5" y="82.956564"/>
     <use style="fill:#1f77b4;stroke:#1f77b4;" x="527.143091" xlink:href="#m24c74a46b5" y="82.956564"/>
     <use style="fill:#1f77b4;stroke:#1f77b4;" x="537.664909" xlink:href="#m24c74a46b5" y="82.612323"/>
     <use style="fill:#1f77b4;stroke:#1f77b4;" x="548.186727" xlink:href="#m24c74a46b5" y="82.784444"/>
     <use style="fill:#1f77b4;stroke:#1f77b4;" x="558.708545" xlink:href="#m24c74a46b5" y="82.784444"/>
     <use style="fill:#1f77b4;stroke:#1f77b4;" x="569.230364" xlink:href="#m24c74a46b5" y="82.870504"/>
     <use style="fill:#1f77b4;stroke:#1f77b4;" x="579.752182" xlink:href="#m24c74a46b5" y="82.956564"/>
     <use style="fill:#1f77b4;stroke:#1f77b4;" x="590.274" xlink:href="#m24c74a46b5" y="82.870504"/>
     <use style="fill:#1f77b4;stroke:#1f77b4;" x="600.795818" xlink:href="#m24c74a46b5" y="82.698383"/>
     <use style="fill:#1f77b4;stroke:#1f77b4;" x="611.317636" xlink:href="#m24c74a46b5" y="82.870504"/>
     <use style="fill:#1f77b4;stroke:#1f77b4;" x="621.839455" xlink:href="#m24c74a46b5" y="82.870504"/>
     <use style="fill:#1f77b4;stroke:#1f77b4;" x="632.361273" xlink:href="#m24c74a46b5" y="82.009901"/>
     <use style="fill:#1f77b4;stroke:#1f77b4;" x="642.883091" xlink:href="#m24c74a46b5" y="82.784444"/>
     <use style="fill:#1f77b4;stroke:#1f77b4;" x="653.404909" xlink:href="#m24c74a46b5" y="82.870504"/>
     <use style="fill:#1f77b4;stroke:#1f77b4;" x="663.926727" xlink:href="#m24c74a46b5" y="82.956564"/>
     <use style="fill:#1f77b4;stroke:#1f77b4;" x="674.448545" xlink:href="#m24c74a46b5" y="82.870504"/>
     <use style="fill:#1f77b4;stroke:#1f77b4;" x="684.970364" xlink:href="#m24c74a46b5" y="82.784444"/>
     <use style="fill:#1f77b4;stroke:#1f77b4;" x="695.492182" xlink:href="#m24c74a46b5" y="82.870504"/>
     <use style="fill:#1f77b4;stroke:#1f77b4;" x="706.014" xlink:href="#m24c74a46b5" y="82.956564"/>
     <use style="fill:#1f77b4;stroke:#1f77b4;" x="716.535818" xlink:href="#m24c74a46b5" y="82.870504"/>
     <use style="fill:#1f77b4;stroke:#1f77b4;" x="727.057636" xlink:href="#m24c74a46b5" y="82.870504"/>
     <use style="fill:#1f77b4;stroke:#1f77b4;" x="737.579455" xlink:href="#m24c74a46b5" y="82.870504"/>
     <use style="fill:#1f77b4;stroke:#1f77b4;" x="748.101273" xlink:href="#m24c74a46b5" y="82.784444"/>
     <use style="fill:#1f77b4;stroke:#1f77b4;" x="758.623091" xlink:href="#m24c74a46b5" y="82.956564"/>
     <use style="fill:#1f77b4;stroke:#1f77b4;" x="769.144909" xlink:href="#m24c74a46b5" y="82.870504"/>
     <use style="fill:#1f77b4;stroke:#1f77b4;" x="779.666727" xlink:href="#m24c74a46b5" y="82.956564"/>
     <use style="fill:#1f77b4;stroke:#1f77b4;" x="790.188545" xlink:href="#m24c74a46b5" y="82.870504"/>
     <use style="fill:#1f77b4;stroke:#1f77b4;" x="800.710364" xlink:href="#m24c74a46b5" y="82.870504"/>
    </g>
   </g>
   <g id="line2d_26">
    <path clip-path="url(#p2202c9c2cc)" d="M 148.357636 82.612323 
L 158.879455 82.612323 
L 169.401273 82.526263 
L 179.923091 82.612323 
L 190.444909 82.612323 
L 200.966727 82.526263 
L 211.488545 82.612323 
L 222.010364 82.612323 
L 232.532182 81.5796 
L 243.054 82.526263 
L 253.575818 82.612323 
L 264.097636 82.526263 
L 274.619455 82.526263 
L 285.141273 82.526263 
L 295.663091 82.612323 
L 306.184909 82.526263 
L 316.706727 82.354142 
L 327.228545 82.440203 
L 337.750364 82.526263 
L 348.272182 82.526263 
L 358.794 82.612323 
L 369.315818 82.526263 
L 379.837636 82.526263 
L 390.359455 82.526263 
L 400.881273 82.526263 
L 411.403091 82.526263 
L 421.924909 82.612323 
L 432.446727 82.526263 
L 442.968545 82.526263 
L 453.490364 82.526263 
L 464.012182 82.440203 
L 474.534 82.612323 
L 485.055818 82.526263 
L 495.577636 82.612323 
L 506.099455 82.612323 
L 516.621273 82.440203 
L 527.143091 82.526263 
L 537.664909 82.612323 
L 548.186727 82.526263 
L 558.708545 82.526263 
L 569.230364 82.526263 
L 579.752182 82.440203 
L 590.274 82.526263 
L 600.795818 82.526263 
L 611.317636 82.440203 
L 621.839455 82.526263 
L 632.361273 82.526263 
L 642.883091 82.526263 
L 653.404909 82.526263 
L 663.926727 82.526263 
L 674.448545 82.526263 
L 684.970364 82.526263 
L 695.492182 82.354142 
L 706.014 82.526263 
L 716.535818 82.526263 
L 727.057636 82.268082 
L 737.579455 82.440203 
L 748.101273 82.440203 
L 758.623091 82.440203 
L 769.144909 82.526263 
L 779.666727 82.440203 
L 790.188545 82.526263 
L 800.710364 82.268082 
" style="fill:none;stroke:#ff7f0e;stroke-linecap:round;stroke-width:1.2;"/>
    <defs>
     <path d="M 0 1.5 
C 0.397805 1.5 0.77937 1.341951 1.06066 1.06066 
C 1.341951 0.77937 1.5 0.397805 1.5 0 
C 1.5 -0.397805 1.341951 -0.77937 1.06066 -1.06066 
C 0.77937 -1.341951 0.397805 -1.5 0 -1.5 
C -0.397805 -1.5 -0.77937 -1.341951 -1.06066 -1.06066 
C -1.341951 -0.77937 -1.5 -0.397805 -1.5 0 
C -1.5 0.397805 -1.341951 0.77937 -1.06066 1.06066 
C -0.77937 1.341951 -0.397805 1.5 0 1.5 
z
" id="me5489180c2" style="stroke:#ff7f0e;"/>
    </defs>
    <g clip-path="url(#p2202c9c2cc)">
     <use style="fill:#ff7f0e;stroke:#ff7f0e;" x="148.357636" xlink:href="#me5489180c2" y="82.612323"/>
     <use style="fill:#ff7f0e;stroke:#ff7f0e;" x="158.879455" xlink:href="#me5489180c2" y="82.612323"/>
     <use style="fill:#ff7f0e;stroke:#ff7f0e;" x="169.401273" xlink:href="#me5489180c2" y="82.526263"/>
     <use style="fill:#ff7f0e;stroke:#ff7f0e;" x="179.923091" xlink:href="#me5489180c2" y="82.612323"/>
     <use style="fill:#ff7f0e;stroke:#ff7f0e;" x="190.444909" xlink:href="#me5489180c2" y="82.612323"/>
     <use style="fill:#ff7f0e;stroke:#ff7f0e;" x="200.966727" xlink:href="#me5489180c2" y="82.526263"/>
     <use style="fill:#ff7f0e;stroke:#ff7f0e;" x="211.488545" xlink:href="#me5489180c2" y="82.612323"/>
     <use style="fill:#ff7f0e;stroke:#ff7f0e;" x="222.010364" xlink:href="#me5489180c2" y="82.612323"/>
     <use style="fill:#ff7f0e;stroke:#ff7f0e;" x="232.532182" xlink:href="#me5489180c2" y="81.5796"/>
     <use style="fill:#ff7f0e;stroke:#ff7f0e;" x="243.054" xlink:href="#me5489180c2" y="82.526263"/>
     <use style="fill:#ff7f0e;stroke:#ff7f0e;" x="253.575818" xlink:href="#me5489180c2" y="82.612323"/>
     <use style="fill:#ff7f0e;stroke:#ff7f0e;" x="264.097636" xlink:href="#me5489180c2" y="82.526263"/>
     <use style="fill:#ff7f0e;stroke:#ff7f0e;" x="274.619455" xlink:href="#me5489180c2" y="82.526263"/>
     <use style="fill:#ff7f0e;stroke:#ff7f0e;" x="285.141273" xlink:href="#me5489180c2" y="82.526263"/>
     <use style="fill:#ff7f0e;stroke:#ff7f0e;" x="295.663091" xlink:href="#me5489180c2" y="82.612323"/>
     <use style="fill:#ff7f0e;stroke:#ff7f0e;" x="306.184909" xlink:href="#me5489180c2" y="82.526263"/>
     <use style="fill:#ff7f0e;stroke:#ff7f0e;" x="316.706727" xlink:href="#me5489180c2" y="82.354142"/>
     <use style="fill:#ff7f0e;stroke:#ff7f0e;" x="327.228545" xlink:href="#me5489180c2" y="82.440203"/>
     <use style="fill:#ff7f0e;stroke:#ff7f0e;" x="337.750364" xlink:href="#me5489180c2" y="82.526263"/>
     <use style="fill:#ff7f0e;stroke:#ff7f0e;" x="348.272182" xlink:href="#me5489180c2" y="82.526263"/>
     <use style="fill:#ff7f0e;stroke:#ff7f0e;" x="358.794" xlink:href="#me5489180c2" y="82.612323"/>
     <use style="fill:#ff7f0e;stroke:#ff7f0e;" x="369.315818" xlink:href="#me5489180c2" y="82.526263"/>
     <use style="fill:#ff7f0e;stroke:#ff7f0e;" x="379.837636" xlink:href="#me5489180c2" y="82.526263"/>
     <use style="fill:#ff7f0e;stroke:#ff7f0e;" x="390.359455" xlink:href="#me5489180c2" y="82.526263"/>
     <use style="fill:#ff7f0e;stroke:#ff7f0e;" x="400.881273" xlink:href="#me5489180c2" y="82.526263"/>
     <use style="fill:#ff7f0e;stroke:#ff7f0e;" x="411.403091" xlink:href="#me5489180c2" y="82.526263"/>
     <use style="fill:#ff7f0e;stroke:#ff7f0e;" x="421.924909" xlink:href="#me5489180c2" y="82.612323"/>
     <use style="fill:#ff7f0e;stroke:#ff7f0e;" x="432.446727" xlink:href="#me5489180c2" y="82.526263"/>
     <use style="fill:#ff7f0e;stroke:#ff7f0e;" x="442.968545" xlink:href="#me5489180c2" y="82.526263"/>
     <use style="fill:#ff7f0e;stroke:#ff7f0e;" x="453.490364" xlink:href="#me5489180c2" y="82.526263"/>
     <use style="fill:#ff7f0e;stroke:#ff7f0e;" x="464.012182" xlink:href="#me5489180c2" y="82.440203"/>
     <use style="fill:#ff7f0e;stroke:#ff7f0e;" x="474.534" xlink:href="#me5489180c2" y="82.612323"/>
     <use style="fill:#ff7f0e;stroke:#ff7f0e;" x="485.055818" xlink:href="#me5489180c2" y="82.526263"/>
     <use style="fill:#ff7f0e;stroke:#ff7f0e;" x="495.577636" xlink:href="#me5489180c2" y="82.612323"/>
     <use style="fill:#ff7f0e;stroke:#ff7f0e;" x="506.099455" xlink:href="#me5489180c2" y="82.612323"/>
     <use style="fill:#ff7f0e;stroke:#ff7f0e;" x="516.621273" xlink:href="#me5489180c2" y="82.440203"/>
     <use style="fill:#ff7f0e;stroke:#ff7f0e;" x="527.143091" xlink:href="#me5489180c2" y="82.526263"/>
     <use style="fill:#ff7f0e;stroke:#ff7f0e;" x="537.664909" xlink:href="#me5489180c2" y="82.612323"/>
     <use style="fill:#ff7f0e;stroke:#ff7f0e;" x="548.186727" xlink:href="#me5489180c2" y="82.526263"/>
     <use style="fill:#ff7f0e;stroke:#ff7f0e;" x="558.708545" xlink:href="#me5489180c2" y="82.526263"/>
     <use style="fill:#ff7f0e;stroke:#ff7f0e;" x="569.230364" xlink:href="#me5489180c2" y="82.526263"/>
     <use style="fill:#ff7f0e;stroke:#ff7f0e;" x="579.752182" xlink:href="#me5489180c2" y="82.440203"/>
     <use style="fill:#ff7f0e;stroke:#ff7f0e;" x="590.274" xlink:href="#me5489180c2" y="82.526263"/>
     <use style="fill:#ff7f0e;stroke:#ff7f0e;" x="600.795818" xlink:href="#me5489180c2" y="82.526263"/>
     <use style="fill:#ff7f0e;stroke:#ff7f0e;" x="611.317636" xlink:href="#me5489180c2" y="82.440203"/>
     <use style="fill:#ff7f0e;stroke:#ff7f0e;" x="621.839455" xlink:href="#me5489180c2" y="82.526263"/>
     <use style="fill:#ff7f0e;stroke:#ff7f0e;" x="632.361273" xlink:href="#me5489180c2" y="82.526263"/>
     <use style="fill:#ff7f0e;stroke:#ff7f0e;" x="642.883091" xlink:href="#me5489180c2" y="82.526263"/>
     <use style="fill:#ff7f0e;stroke:#ff7f0e;" x="653.404909" xlink:href="#me5489180c2" y="82.526263"/>
     <use style="fill:#ff7f0e;stroke:#ff7f0e;" x="663.926727" xlink:href="#me5489180c2" y="82.526263"/>
     <use style="fill:#ff7f0e;stroke:#ff7f0e;" x="674.448545" xlink:href="#me5489180c2" y="82.526263"/>
     <use style="fill:#ff7f0e;stroke:#ff7f0e;" x="684.970364" xlink:href="#me5489180c2" y="82.526263"/>
     <use style="fill:#ff7f0e;stroke:#ff7f0e;" x="695.492182" xlink:href="#me5489180c2" y="82.354142"/>
     <use style="fill:#ff7f0e;stroke:#ff7f0e;" x="706.014" xlink:href="#me5489180c2" y="82.526263"/>
     <use style="fill:#ff7f0e;stroke:#ff7f0e;" x="716.535818" xlink:href="#me5489180c2" y="82.526263"/>
     <use style="fill:#ff7f0e;stroke:#ff7f0e;" x="727.057636" xlink:href="#me5489180c2" y="82.268082"/>
     <use style="fill:#ff7f0e;stroke:#ff7f0e;" x="737.579455" xlink:href="#me5489180c2" y="82.440203"/>
     <use style="fill:#ff7f0e;stroke:#ff7f0e;" x="748.101273" xlink:href="#me5489180c2" y="82.440203"/>
     <use style="fill:#ff7f0e;stroke:#ff7f0e;" x="758.623091" xlink:href="#me5489180c2" y="82.440203"/>
     <use style="fill:#ff7f0e;stroke:#ff7f0e;" x="769.144909" xlink:href="#me5489180c2" y="82.526263"/>
     <use style="fill:#ff7f0e;stroke:#ff7f0e;" x="779.666727" xlink:href="#me5489180c2" y="82.440203"/>
     <use style="fill:#ff7f0e;stroke:#ff7f0e;" x="790.188545" xlink:href="#me5489180c2" y="82.526263"/>
     <use style="fill:#ff7f0e;stroke:#ff7f0e;" x="800.710364" xlink:href="#me5489180c2" y="82.268082"/>
    </g>
   </g>
   <g id="line2d_27">
    <path clip-path="url(#p2202c9c2cc)" d="M 148.357636 82.956564 
L 158.879455 299.312074 
L 169.401273 369.967552 
L 179.923091 398.711681 
L 190.444909 420.398868 
L 200.966727 433.307908 
L 211.488545 441.225453 
L 222.010364 435.545475 
L 232.532182 448.798756 
L 243.054 438.729705 
L 253.575818 443.807261 
L 264.097636 437.524861 
L 274.619455 435.975777 
L 285.141273 450.0036 
L 295.663091 442.258176 
L 306.184909 444.409683 
L 316.706727 445.614526 
L 327.228545 434.598812 
L 337.750364 444.237562 
L 348.272182 441.741814 
L 358.794 438.901826 
L 369.315818 448.196334 
L 379.837636 443.204839 
L 390.359455 447.507852 
L 400.881273 446.130888 
L 411.403091 438.987886 
L 421.924909 441.999995 
L 432.446727 442.516357 
L 442.968545 431.672763 
L 453.490364 445.184225 
L 464.012182 439.934549 
L 474.534 449.831479 
L 485.055818 433.82427 
L 495.577636 439.762428 
L 506.099455 445.700587 
L 516.621273 439.332127 
L 527.143091 434.254571 
L 537.664909 440.709091 
L 548.186727 438.729705 
L 558.708545 443.807261 
L 569.230364 440.536971 
L 579.752182 447.335732 
L 590.274 434.254571 
L 600.795818 441.139393 
L 611.317636 421.689772 
L 621.839455 438.299404 
L 632.361273 433.99639 
L 642.883091 434.168511 
L 653.404909 437.696982 
L 663.926727 437.352741 
L 674.448545 442.344236 
L 684.970364 440.536971 
L 695.492182 443.979381 
L 706.014 436.92244 
L 716.535818 443.032718 
L 727.057636 441.999995 
L 737.579455 442.946658 
L 748.101273 444.409683 
L 758.623091 442.774538 
L 769.144909 439.332127 
L 779.666727 441.139393 
L 790.188545 445.012105 
L 800.710364 445.958767 
" style="fill:none;stroke:#2ca02c;stroke-linecap:round;stroke-width:1.2;"/>
    <defs>
     <path d="M 0 1.5 
C 0.397805 1.5 0.77937 1.341951 1.06066 1.06066 
C 1.341951 0.77937 1.5 0.397805 1.5 0 
C 1.5 -0.397805 1.341951 -0.77937 1.06066 -1.06066 
C 0.77937 -1.341951 0.397805 -1.5 0 -1.5 
C -0.397805 -1.5 -0.77937 -1.341951 -1.06066 -1.06066 
C -1.341951 -0.77937 -1.5 -0.397805 -1.5 0 
C -1.5 0.397805 -1.341951 0.77937 -1.06066 1.06066 
C -0.77937 1.341951 -0.397805 1.5 0 1.5 
z
" id="m7dc55ff22d" style="stroke:#2ca02c;"/>
    </defs>
    <g clip-path="url(#p2202c9c2cc)">
     <use style="fill:#2ca02c;stroke:#2ca02c;" x="148.357636" xlink:href="#m7dc55ff22d" y="82.956564"/>
     <use style="fill:#2ca02c;stroke:#2ca02c;" x="158.879455" xlink:href="#m7dc55ff22d" y="299.312074"/>
     <use style="fill:#2ca02c;stroke:#2ca02c;" x="169.401273" xlink:href="#m7dc55ff22d" y="369.967552"/>
     <use style="fill:#2ca02c;stroke:#2ca02c;" x="179.923091" xlink:href="#m7dc55ff22d" y="398.711681"/>
     <use style="fill:#2ca02c;stroke:#2ca02c;" x="190.444909" xlink:href="#m7dc55ff22d" y="420.398868"/>
     <use style="fill:#2ca02c;stroke:#2ca02c;" x="200.966727" xlink:href="#m7dc55ff22d" y="433.307908"/>
     <use style="fill:#2ca02c;stroke:#2ca02c;" x="211.488545" xlink:href="#m7dc55ff22d" y="441.225453"/>
     <use style="fill:#2ca02c;stroke:#2ca02c;" x="222.010364" xlink:href="#m7dc55ff22d" y="435.545475"/>
     <use style="fill:#2ca02c;stroke:#2ca02c;" x="232.532182" xlink:href="#m7dc55ff22d" y="448.798756"/>
     <use style="fill:#2ca02c;stroke:#2ca02c;" x="243.054" xlink:href="#m7dc55ff22d" y="438.729705"/>
     <use style="fill:#2ca02c;stroke:#2ca02c;" x="253.575818" xlink:href="#m7dc55ff22d" y="443.807261"/>
     <use style="fill:#2ca02c;stroke:#2ca02c;" x="264.097636" xlink:href="#m7dc55ff22d" y="437.524861"/>
     <use style="fill:#2ca02c;stroke:#2ca02c;" x="274.619455" xlink:href="#m7dc55ff22d" y="435.975777"/>
     <use style="fill:#2ca02c;stroke:#2ca02c;" x="285.141273" xlink:href="#m7dc55ff22d" y="450.0036"/>
     <use style="fill:#2ca02c;stroke:#2ca02c;" x="295.663091" xlink:href="#m7dc55ff22d" y="442.258176"/>
     <use style="fill:#2ca02c;stroke:#2ca02c;" x="306.184909" xlink:href="#m7dc55ff22d" y="444.409683"/>
     <use style="fill:#2ca02c;stroke:#2ca02c;" x="316.706727" xlink:href="#m7dc55ff22d" y="445.614526"/>
     <use style="fill:#2ca02c;stroke:#2ca02c;" x="327.228545" xlink:href="#m7dc55ff22d" y="434.598812"/>
     <use style="fill:#2ca02c;stroke:#2ca02c;" x="337.750364" xlink:href="#m7dc55ff22d" y="444.237562"/>
     <use style="fill:#2ca02c;stroke:#2ca02c;" x="348.272182" xlink:href="#m7dc55ff22d" y="441.741814"/>
     <use style="fill:#2ca02c;stroke:#2ca02c;" x="358.794" xlink:href="#m7dc55ff22d" y="438.901826"/>
     <use style="fill:#2ca02c;stroke:#2ca02c;" x="369.315818" xlink:href="#m7dc55ff22d" y="448.196334"/>
     <use style="fill:#2ca02c;stroke:#2ca02c;" x="379.837636" xlink:href="#m7dc55ff22d" y="443.204839"/>
     <use style="fill:#2ca02c;stroke:#2ca02c;" x="390.359455" xlink:href="#m7dc55ff22d" y="447.507852"/>
     <use style="fill:#2ca02c;stroke:#2ca02c;" x="400.881273" xlink:href="#m7dc55ff22d" y="446.130888"/>
     <use style="fill:#2ca02c;stroke:#2ca02c;" x="411.403091" xlink:href="#m7dc55ff22d" y="438.987886"/>
     <use style="fill:#2ca02c;stroke:#2ca02c;" x="421.924909" xlink:href="#m7dc55ff22d" y="441.999995"/>
     <use style="fill:#2ca02c;stroke:#2ca02c;" x="432.446727" xlink:href="#m7dc55ff22d" y="442.516357"/>
     <use style="fill:#2ca02c;stroke:#2ca02c;" x="442.968545" xlink:href="#m7dc55ff22d" y="431.672763"/>
     <use style="fill:#2ca02c;stroke:#2ca02c;" x="453.490364" xlink:href="#m7dc55ff22d" y="445.184225"/>
     <use style="fill:#2ca02c;stroke:#2ca02c;" x="464.012182" xlink:href="#m7dc55ff22d" y="439.934549"/>
     <use style="fill:#2ca02c;stroke:#2ca02c;" x="474.534" xlink:href="#m7dc55ff22d" y="449.831479"/>
     <use style="fill:#2ca02c;stroke:#2ca02c;" x="485.055818" xlink:href="#m7dc55ff22d" y="433.82427"/>
     <use style="fill:#2ca02c;stroke:#2ca02c;" x="495.577636" xlink:href="#m7dc55ff22d" y="439.762428"/>
     <use style="fill:#2ca02c;stroke:#2ca02c;" x="506.099455" xlink:href="#m7dc55ff22d" y="445.700587"/>
     <use style="fill:#2ca02c;stroke:#2ca02c;" x="516.621273" xlink:href="#m7dc55ff22d" y="439.332127"/>
     <use style="fill:#2ca02c;stroke:#2ca02c;" x="527.143091" xlink:href="#m7dc55ff22d" y="434.254571"/>
     <use style="fill:#2ca02c;stroke:#2ca02c;" x="537.664909" xlink:href="#m7dc55ff22d" y="440.709091"/>
     <use style="fill:#2ca02c;stroke:#2ca02c;" x="548.186727" xlink:href="#m7dc55ff22d" y="438.729705"/>
     <use style="fill:#2ca02c;stroke:#2ca02c;" x="558.708545" xlink:href="#m7dc55ff22d" y="443.807261"/>
     <use style="fill:#2ca02c;stroke:#2ca02c;" x="569.230364" xlink:href="#m7dc55ff22d" y="440.536971"/>
     <use style="fill:#2ca02c;stroke:#2ca02c;" x="579.752182" xlink:href="#m7dc55ff22d" y="447.335732"/>
     <use style="fill:#2ca02c;stroke:#2ca02c;" x="590.274" xlink:href="#m7dc55ff22d" y="434.254571"/>
     <use style="fill:#2ca02c;stroke:#2ca02c;" x="600.795818" xlink:href="#m7dc55ff22d" y="441.139393"/>
     <use style="fill:#2ca02c;stroke:#2ca02c;" x="611.317636" xlink:href="#m7dc55ff22d" y="421.689772"/>
     <use style="fill:#2ca02c;stroke:#2ca02c;" x="621.839455" xlink:href="#m7dc55ff22d" y="438.299404"/>
     <use style="fill:#2ca02c;stroke:#2ca02c;" x="632.361273" xlink:href="#m7dc55ff22d" y="433.99639"/>
     <use style="fill:#2ca02c;stroke:#2ca02c;" x="642.883091" xlink:href="#m7dc55ff22d" y="434.168511"/>
     <use style="fill:#2ca02c;stroke:#2ca02c;" x="653.404909" xlink:href="#m7dc55ff22d" y="437.696982"/>
     <use style="fill:#2ca02c;stroke:#2ca02c;" x="663.926727" xlink:href="#m7dc55ff22d" y="437.352741"/>
     <use style="fill:#2ca02c;stroke:#2ca02c;" x="674.448545" xlink:href="#m7dc55ff22d" y="442.344236"/>
     <use style="fill:#2ca02c;stroke:#2ca02c;" x="684.970364" xlink:href="#m7dc55ff22d" y="440.536971"/>
     <use style="fill:#2ca02c;stroke:#2ca02c;" x="695.492182" xlink:href="#m7dc55ff22d" y="443.979381"/>
     <use style="fill:#2ca02c;stroke:#2ca02c;" x="706.014" xlink:href="#m7dc55ff22d" y="436.92244"/>
     <use style="fill:#2ca02c;stroke:#2ca02c;" x="716.535818" xlink:href="#m7dc55ff22d" y="443.032718"/>
     <use style="fill:#2ca02c;stroke:#2ca02c;" x="727.057636" xlink:href="#m7dc55ff22d" y="441.999995"/>
     <use style="fill:#2ca02c;stroke:#2ca02c;" x="737.579455" xlink:href="#m7dc55ff22d" y="442.946658"/>
     <use style="fill:#2ca02c;stroke:#2ca02c;" x="748.101273" xlink:href="#m7dc55ff22d" y="444.409683"/>
     <use style="fill:#2ca02c;stroke:#2ca02c;" x="758.623091" xlink:href="#m7dc55ff22d" y="442.774538"/>
     <use style="fill:#2ca02c;stroke:#2ca02c;" x="769.144909" xlink:href="#m7dc55ff22d" y="439.332127"/>
     <use style="fill:#2ca02c;stroke:#2ca02c;" x="779.666727" xlink:href="#m7dc55ff22d" y="441.139393"/>
     <use style="fill:#2ca02c;stroke:#2ca02c;" x="790.188545" xlink:href="#m7dc55ff22d" y="445.012105"/>
     <use style="fill:#2ca02c;stroke:#2ca02c;" x="800.710364" xlink:href="#m7dc55ff22d" y="445.958767"/>
    </g>
   </g>
   <g id="line2d_28">
    <path clip-path="url(#p2202c9c2cc)" d="M 148.357636 82.870504 
L 158.879455 284.509708 
L 169.401273 289.759384 
L 179.923091 338.039194 
L 190.444909 304.64781 
L 200.966727 286.833335 
L 211.488545 349.140968 
L 222.010364 335.887687 
L 232.532182 291.56665 
L 243.054 311.618692 
L 253.575818 279.087911 
L 264.097636 303.270846 
L 274.619455 296.558145 
L 285.141273 297.590868 
L 295.663091 271.170367 
L 306.184909 329.863468 
L 316.706727 292.857554 
L 327.228545 299.570255 
L 337.750364 300.086616 
L 348.272182 282.10002 
L 358.794 330.035589 
L 369.315818 309.467185 
L 379.837636 295.439362 
L 390.359455 312.135053 
L 400.881273 285.542431 
L 411.403091 309.036884 
L 421.924909 289.329083 
L 432.446727 331.756794 
L 442.968545 296.299964 
L 453.490364 293.029674 
L 464.012182 327.10954 
L 474.534 329.691348 
L 485.055818 275.215199 
L 495.577636 347.591883 
L 506.099455 288.726661 
L 516.621273 283.304864 
L 527.143091 317.298669 
L 537.664909 279.001851 
L 548.186727 298.365411 
L 558.708545 313.684138 
L 569.230364 307.9181 
L 579.752182 321.429562 
L 590.274 318.933814 
L 600.795818 326.765299 
L 611.317636 294.923 
L 621.839455 320.482899 
L 632.361273 288.210299 
L 642.883091 310.758089 
L 653.404909 332.961638 
L 663.926727 318.761694 
L 674.448545 294.062397 
L 684.970364 296.472085 
L 695.492182 337.522832 
L 706.014 321.515622 
L 716.535818 307.74598 
L 727.057636 312.221114 
L 737.579455 288.29636 
L 748.101273 318.503513 
L 758.623091 301.2054 
L 769.144909 320.224718 
L 779.666727 316.696248 
L 790.188545 286.833335 
L 800.710364 327.453781 
" style="fill:none;stroke:#d62728;stroke-linecap:round;stroke-width:1.2;"/>
    <defs>
     <path d="M 0 1.5 
C 0.397805 1.5 0.77937 1.341951 1.06066 1.06066 
C 1.341951 0.77937 1.5 0.397805 1.5 0 
C 1.5 -0.397805 1.341951 -0.77937 1.06066 -1.06066 
C 0.77937 -1.341951 0.397805 -1.5 0 -1.5 
C -0.397805 -1.5 -0.77937 -1.341951 -1.06066 -1.06066 
C -1.341951 -0.77937 -1.5 -0.397805 -1.5 0 
C -1.5 0.397805 -1.341951 0.77937 -1.06066 1.06066 
C -0.77937 1.341951 -0.397805 1.5 0 1.5 
z
" id="m8ed4c31e4d" style="stroke:#d62728;"/>
    </defs>
    <g clip-path="url(#p2202c9c2cc)">
     <use style="fill:#d62728;stroke:#d62728;" x="148.357636" xlink:href="#m8ed4c31e4d" y="82.870504"/>
     <use style="fill:#d62728;stroke:#d62728;" x="158.879455" xlink:href="#m8ed4c31e4d" y="284.509708"/>
     <use style="fill:#d62728;stroke:#d62728;" x="169.401273" xlink:href="#m8ed4c31e4d" y="289.759384"/>
     <use style="fill:#d62728;stroke:#d62728;" x="179.923091" xlink:href="#m8ed4c31e4d" y="338.039194"/>
     <use style="fill:#d62728;stroke:#d62728;" x="190.444909" xlink:href="#m8ed4c31e4d" y="304.64781"/>
     <use style="fill:#d62728;stroke:#d62728;" x="200.966727" xlink:href="#m8ed4c31e4d" y="286.833335"/>
     <use style="fill:#d62728;stroke:#d62728;" x="211.488545" xlink:href="#m8ed4c31e4d" y="349.140968"/>
     <use style="fill:#d62728;stroke:#d62728;" x="222.010364" xlink:href="#m8ed4c31e4d" y="335.887687"/>
     <use style="fill:#d62728;stroke:#d62728;" x="232.532182" xlink:href="#m8ed4c31e4d" y="291.56665"/>
     <use style="fill:#d62728;stroke:#d62728;" x="243.054" xlink:href="#m8ed4c31e4d" y="311.618692"/>
     <use style="fill:#d62728;stroke:#d62728;" x="253.575818" xlink:href="#m8ed4c31e4d" y="279.087911"/>
     <use style="fill:#d62728;stroke:#d62728;" x="264.097636" xlink:href="#m8ed4c31e4d" y="303.270846"/>
     <use style="fill:#d62728;stroke:#d62728;" x="274.619455" xlink:href="#m8ed4c31e4d" y="296.558145"/>
     <use style="fill:#d62728;stroke:#d62728;" x="285.141273" xlink:href="#m8ed4c31e4d" y="297.590868"/>
     <use style="fill:#d62728;stroke:#d62728;" x="295.663091" xlink:href="#m8ed4c31e4d" y="271.170367"/>
     <use style="fill:#d62728;stroke:#d62728;" x="306.184909" xlink:href="#m8ed4c31e4d" y="329.863468"/>
     <use style="fill:#d62728;stroke:#d62728;" x="316.706727" xlink:href="#m8ed4c31e4d" y="292.857554"/>
     <use style="fill:#d62728;stroke:#d62728;" x="327.228545" xlink:href="#m8ed4c31e4d" y="299.570255"/>
     <use style="fill:#d62728;stroke:#d62728;" x="337.750364" xlink:href="#m8ed4c31e4d" y="300.086616"/>
     <use style="fill:#d62728;stroke:#d62728;" x="348.272182" xlink:href="#m8ed4c31e4d" y="282.10002"/>
     <use style="fill:#d62728;stroke:#d62728;" x="358.794" xlink:href="#m8ed4c31e4d" y="330.035589"/>
     <use style="fill:#d62728;stroke:#d62728;" x="369.315818" xlink:href="#m8ed4c31e4d" y="309.467185"/>
     <use style="fill:#d62728;stroke:#d62728;" x="379.837636" xlink:href="#m8ed4c31e4d" y="295.439362"/>
     <use style="fill:#d62728;stroke:#d62728;" x="390.359455" xlink:href="#m8ed4c31e4d" y="312.135053"/>
     <use style="fill:#d62728;stroke:#d62728;" x="400.881273" xlink:href="#m8ed4c31e4d" y="285.542431"/>
     <use style="fill:#d62728;stroke:#d62728;" x="411.403091" xlink:href="#m8ed4c31e4d" y="309.036884"/>
     <use style="fill:#d62728;stroke:#d62728;" x="421.924909" xlink:href="#m8ed4c31e4d" y="289.329083"/>
     <use style="fill:#d62728;stroke:#d62728;" x="432.446727" xlink:href="#m8ed4c31e4d" y="331.756794"/>
     <use style="fill:#d62728;stroke:#d62728;" x="442.968545" xlink:href="#m8ed4c31e4d" y="296.299964"/>
     <use style="fill:#d62728;stroke:#d62728;" x="453.490364" xlink:href="#m8ed4c31e4d" y="293.029674"/>
     <use style="fill:#d62728;stroke:#d62728;" x="464.012182" xlink:href="#m8ed4c31e4d" y="327.10954"/>
     <use style="fill:#d62728;stroke:#d62728;" x="474.534" xlink:href="#m8ed4c31e4d" y="329.691348"/>
     <use style="fill:#d62728;stroke:#d62728;" x="485.055818" xlink:href="#m8ed4c31e4d" y="275.215199"/>
     <use style="fill:#d62728;stroke:#d62728;" x="495.577636" xlink:href="#m8ed4c31e4d" y="347.591883"/>
     <use style="fill:#d62728;stroke:#d62728;" x="506.099455" xlink:href="#m8ed4c31e4d" y="288.726661"/>
     <use style="fill:#d62728;stroke:#d62728;" x="516.621273" xlink:href="#m8ed4c31e4d" y="283.304864"/>
     <use style="fill:#d62728;stroke:#d62728;" x="527.143091" xlink:href="#m8ed4c31e4d" y="317.298669"/>
     <use style="fill:#d62728;stroke:#d62728;" x="537.664909" xlink:href="#m8ed4c31e4d" y="279.001851"/>
     <use style="fill:#d62728;stroke:#d62728;" x="548.186727" xlink:href="#m8ed4c31e4d" y="298.365411"/>
     <use style="fill:#d62728;stroke:#d62728;" x="558.708545" xlink:href="#m8ed4c31e4d" y="313.684138"/>
     <use style="fill:#d62728;stroke:#d62728;" x="569.230364" xlink:href="#m8ed4c31e4d" y="307.9181"/>
     <use style="fill:#d62728;stroke:#d62728;" x="579.752182" xlink:href="#m8ed4c31e4d" y="321.429562"/>
     <use style="fill:#d62728;stroke:#d62728;" x="590.274" xlink:href="#m8ed4c31e4d" y="318.933814"/>
     <use style="fill:#d62728;stroke:#d62728;" x="600.795818" xlink:href="#m8ed4c31e4d" y="326.765299"/>
     <use style="fill:#d62728;stroke:#d62728;" x="611.317636" xlink:href="#m8ed4c31e4d" y="294.923"/>
     <use style="fill:#d62728;stroke:#d62728;" x="621.839455" xlink:href="#m8ed4c31e4d" y="320.482899"/>
     <use style="fill:#d62728;stroke:#d62728;" x="632.361273" xlink:href="#m8ed4c31e4d" y="288.210299"/>
     <use style="fill:#d62728;stroke:#d62728;" x="642.883091" xlink:href="#m8ed4c31e4d" y="310.758089"/>
     <use style="fill:#d62728;stroke:#d62728;" x="653.404909" xlink:href="#m8ed4c31e4d" y="332.961638"/>
     <use style="fill:#d62728;stroke:#d62728;" x="663.926727" xlink:href="#m8ed4c31e4d" y="318.761694"/>
     <use style="fill:#d62728;stroke:#d62728;" x="674.448545" xlink:href="#m8ed4c31e4d" y="294.062397"/>
     <use style="fill:#d62728;stroke:#d62728;" x="684.970364" xlink:href="#m8ed4c31e4d" y="296.472085"/>
     <use style="fill:#d62728;stroke:#d62728;" x="695.492182" xlink:href="#m8ed4c31e4d" y="337.522832"/>
     <use style="fill:#d62728;stroke:#d62728;" x="706.014" xlink:href="#m8ed4c31e4d" y="321.515622"/>
     <use style="fill:#d62728;stroke:#d62728;" x="716.535818" xlink:href="#m8ed4c31e4d" y="307.74598"/>
     <use style="fill:#d62728;stroke:#d62728;" x="727.057636" xlink:href="#m8ed4c31e4d" y="312.221114"/>
     <use style="fill:#d62728;stroke:#d62728;" x="737.579455" xlink:href="#m8ed4c31e4d" y="288.29636"/>
     <use style="fill:#d62728;stroke:#d62728;" x="748.101273" xlink:href="#m8ed4c31e4d" y="318.503513"/>
     <use style="fill:#d62728;stroke:#d62728;" x="758.623091" xlink:href="#m8ed4c31e4d" y="301.2054"/>
     <use style="fill:#d62728;stroke:#d62728;" x="769.144909" xlink:href="#m8ed4c31e4d" y="320.224718"/>
     <use style="fill:#d62728;stroke:#d62728;" x="779.666727" xlink:href="#m8ed4c31e4d" y="316.696248"/>
     <use style="fill:#d62728;stroke:#d62728;" x="790.188545" xlink:href="#m8ed4c31e4d" y="286.833335"/>
     <use style="fill:#d62728;stroke:#d62728;" x="800.710364" xlink:href="#m8ed4c31e4d" y="327.453781"/>
    </g>
   </g>
   <g id="line2d_29">
    <path clip-path="url(#p2202c9c2cc)" d="M 148.357636 82.956564 
L 158.879455 300.344797 
L 169.401273 372.721481 
L 179.923091 408.866793 
L 190.444909 423.497038 
L 200.966727 430.898221 
L 211.488545 435.975777 
L 222.010364 435.717596 
L 232.532182 435.975777 
L 243.054 438.901826 
L 253.575818 438.815765 
L 264.097636 436.92244 
L 274.619455 438.127283 
L 285.141273 441.827875 
L 295.663091 442.516357 
L 306.184909 443.290899 
L 316.706727 441.311513 
L 327.228545 439.160006 
L 337.750364 439.590308 
L 348.272182 438.729705 
L 358.794 440.19273 
L 369.315818 437.696982 
L 379.837636 439.246067 
L 390.359455 438.299404 
L 400.881273 440.27879 
L 411.403091 438.471524 
L 421.924909 440.967272 
L 432.446727 435.459415 
L 442.968545 437.18062 
L 453.490364 436.92244 
L 464.012182 437.352741 
L 474.534 438.643645 
L 485.055818 439.418187 
L 495.577636 444.667863 
L 506.099455 435.201234 
L 516.621273 438.385464 
L 527.143091 438.901826 
L 537.664909 439.848489 
L 548.186727 440.020609 
L 558.708545 439.934549 
L 569.230364 441.053332 
L 579.752182 436.750319 
L 590.274 434.598812 
L 600.795818 440.19273 
L 611.317636 439.418187 
L 621.839455 444.667863 
L 632.361273 437.610922 
L 642.883091 440.36485 
L 653.404909 437.524861 
L 663.926727 437.696982 
L 674.448545 442.086056 
L 684.970364 438.729705 
L 695.492182 440.36485 
L 706.014 438.127283 
L 716.535818 437.266681 
L 727.057636 440.623031 
L 737.579455 439.590308 
L 748.101273 444.495743 
L 758.623091 436.147897 
L 769.144909 439.590308 
L 779.666727 434.340632 
L 790.188545 441.225453 
L 800.710364 436.233957 
" style="fill:none;stroke:#9467bd;stroke-linecap:round;stroke-width:1.2;"/>
    <defs>
     <path d="M 0 1.5 
C 0.397805 1.5 0.77937 1.341951 1.06066 1.06066 
C 1.341951 0.77937 1.5 0.397805 1.5 0 
C 1.5 -0.397805 1.341951 -0.77937 1.06066 -1.06066 
C 0.77937 -1.341951 0.397805 -1.5 0 -1.5 
C -0.397805 -1.5 -0.77937 -1.341951 -1.06066 -1.06066 
C -1.341951 -0.77937 -1.5 -0.397805 -1.5 0 
C -1.5 0.397805 -1.341951 0.77937 -1.06066 1.06066 
C -0.77937 1.341951 -0.397805 1.5 0 1.5 
z
" id="m0954bcf5aa" style="stroke:#9467bd;"/>
    </defs>
    <g clip-path="url(#p2202c9c2cc)">
     <use style="fill:#9467bd;stroke:#9467bd;" x="148.357636" xlink:href="#m0954bcf5aa" y="82.956564"/>
     <use style="fill:#9467bd;stroke:#9467bd;" x="158.879455" xlink:href="#m0954bcf5aa" y="300.344797"/>
     <use style="fill:#9467bd;stroke:#9467bd;" x="169.401273" xlink:href="#m0954bcf5aa" y="372.721481"/>
     <use style="fill:#9467bd;stroke:#9467bd;" x="179.923091" xlink:href="#m0954bcf5aa" y="408.866793"/>
     <use style="fill:#9467bd;stroke:#9467bd;" x="190.444909" xlink:href="#m0954bcf5aa" y="423.497038"/>
     <use style="fill:#9467bd;stroke:#9467bd;" x="200.966727" xlink:href="#m0954bcf5aa" y="430.898221"/>
     <use style="fill:#9467bd;stroke:#9467bd;" x="211.488545" xlink:href="#m0954bcf5aa" y="435.975777"/>
     <use style="fill:#9467bd;stroke:#9467bd;" x="222.010364" xlink:href="#m0954bcf5aa" y="435.717596"/>
     <use style="fill:#9467bd;stroke:#9467bd;" x="232.532182" xlink:href="#m0954bcf5aa" y="435.975777"/>
     <use style="fill:#9467bd;stroke:#9467bd;" x="243.054" xlink:href="#m0954bcf5aa" y="438.901826"/>
     <use style="fill:#9467bd;stroke:#9467bd;" x="253.575818" xlink:href="#m0954bcf5aa" y="438.815765"/>
     <use style="fill:#9467bd;stroke:#9467bd;" x="264.097636" xlink:href="#m0954bcf5aa" y="436.92244"/>
     <use style="fill:#9467bd;stroke:#9467bd;" x="274.619455" xlink:href="#m0954bcf5aa" y="438.127283"/>
     <use style="fill:#9467bd;stroke:#9467bd;" x="285.141273" xlink:href="#m0954bcf5aa" y="441.827875"/>
     <use style="fill:#9467bd;stroke:#9467bd;" x="295.663091" xlink:href="#m0954bcf5aa" y="442.516357"/>
     <use style="fill:#9467bd;stroke:#9467bd;" x="306.184909" xlink:href="#m0954bcf5aa" y="443.290899"/>
     <use style="fill:#9467bd;stroke:#9467bd;" x="316.706727" xlink:href="#m0954bcf5aa" y="441.311513"/>
     <use style="fill:#9467bd;stroke:#9467bd;" x="327.228545" xlink:href="#m0954bcf5aa" y="439.160006"/>
     <use style="fill:#9467bd;stroke:#9467bd;" x="337.750364" xlink:href="#m0954bcf5aa" y="439.590308"/>
     <use style="fill:#9467bd;stroke:#9467bd;" x="348.272182" xlink:href="#m0954bcf5aa" y="438.729705"/>
     <use style="fill:#9467bd;stroke:#9467bd;" x="358.794" xlink:href="#m0954bcf5aa" y="440.19273"/>
     <use style="fill:#9467bd;stroke:#9467bd;" x="369.315818" xlink:href="#m0954bcf5aa" y="437.696982"/>
     <use style="fill:#9467bd;stroke:#9467bd;" x="379.837636" xlink:href="#m0954bcf5aa" y="439.246067"/>
     <use style="fill:#9467bd;stroke:#9467bd;" x="390.359455" xlink:href="#m0954bcf5aa" y="438.299404"/>
     <use style="fill:#9467bd;stroke:#9467bd;" x="400.881273" xlink:href="#m0954bcf5aa" y="440.27879"/>
     <use style="fill:#9467bd;stroke:#9467bd;" x="411.403091" xlink:href="#m0954bcf5aa" y="438.471524"/>
     <use style="fill:#9467bd;stroke:#9467bd;" x="421.924909" xlink:href="#m0954bcf5aa" y="440.967272"/>
     <use style="fill:#9467bd;stroke:#9467bd;" x="432.446727" xlink:href="#m0954bcf5aa" y="435.459415"/>
     <use style="fill:#9467bd;stroke:#9467bd;" x="442.968545" xlink:href="#m0954bcf5aa" y="437.18062"/>
     <use style="fill:#9467bd;stroke:#9467bd;" x="453.490364" xlink:href="#m0954bcf5aa" y="436.92244"/>
     <use style="fill:#9467bd;stroke:#9467bd;" x="464.012182" xlink:href="#m0954bcf5aa" y="437.352741"/>
     <use style="fill:#9467bd;stroke:#9467bd;" x="474.534" xlink:href="#m0954bcf5aa" y="438.643645"/>
     <use style="fill:#9467bd;stroke:#9467bd;" x="485.055818" xlink:href="#m0954bcf5aa" y="439.418187"/>
     <use style="fill:#9467bd;stroke:#9467bd;" x="495.577636" xlink:href="#m0954bcf5aa" y="444.667863"/>
     <use style="fill:#9467bd;stroke:#9467bd;" x="506.099455" xlink:href="#m0954bcf5aa" y="435.201234"/>
     <use style="fill:#9467bd;stroke:#9467bd;" x="516.621273" xlink:href="#m0954bcf5aa" y="438.385464"/>
     <use style="fill:#9467bd;stroke:#9467bd;" x="527.143091" xlink:href="#m0954bcf5aa" y="438.901826"/>
     <use style="fill:#9467bd;stroke:#9467bd;" x="537.664909" xlink:href="#m0954bcf5aa" y="439.848489"/>
     <use style="fill:#9467bd;stroke:#9467bd;" x="548.186727" xlink:href="#m0954bcf5aa" y="440.020609"/>
     <use style="fill:#9467bd;stroke:#9467bd;" x="558.708545" xlink:href="#m0954bcf5aa" y="439.934549"/>
     <use style="fill:#9467bd;stroke:#9467bd;" x="569.230364" xlink:href="#m0954bcf5aa" y="441.053332"/>
     <use style="fill:#9467bd;stroke:#9467bd;" x="579.752182" xlink:href="#m0954bcf5aa" y="436.750319"/>
     <use style="fill:#9467bd;stroke:#9467bd;" x="590.274" xlink:href="#m0954bcf5aa" y="434.598812"/>
     <use style="fill:#9467bd;stroke:#9467bd;" x="600.795818" xlink:href="#m0954bcf5aa" y="440.19273"/>
     <use style="fill:#9467bd;stroke:#9467bd;" x="611.317636" xlink:href="#m0954bcf5aa" y="439.418187"/>
     <use style="fill:#9467bd;stroke:#9467bd;" x="621.839455" xlink:href="#m0954bcf5aa" y="444.667863"/>
     <use style="fill:#9467bd;stroke:#9467bd;" x="632.361273" xlink:href="#m0954bcf5aa" y="437.610922"/>
     <use style="fill:#9467bd;stroke:#9467bd;" x="642.883091" xlink:href="#m0954bcf5aa" y="440.36485"/>
     <use style="fill:#9467bd;stroke:#9467bd;" x="653.404909" xlink:href="#m0954bcf5aa" y="437.524861"/>
     <use style="fill:#9467bd;stroke:#9467bd;" x="663.926727" xlink:href="#m0954bcf5aa" y="437.696982"/>
     <use style="fill:#9467bd;stroke:#9467bd;" x="674.448545" xlink:href="#m0954bcf5aa" y="442.086056"/>
     <use style="fill:#9467bd;stroke:#9467bd;" x="684.970364" xlink:href="#m0954bcf5aa" y="438.729705"/>
     <use style="fill:#9467bd;stroke:#9467bd;" x="695.492182" xlink:href="#m0954bcf5aa" y="440.36485"/>
     <use style="fill:#9467bd;stroke:#9467bd;" x="706.014" xlink:href="#m0954bcf5aa" y="438.127283"/>
     <use style="fill:#9467bd;stroke:#9467bd;" x="716.535818" xlink:href="#m0954bcf5aa" y="437.266681"/>
     <use style="fill:#9467bd;stroke:#9467bd;" x="727.057636" xlink:href="#m0954bcf5aa" y="440.623031"/>
     <use style="fill:#9467bd;stroke:#9467bd;" x="737.579455" xlink:href="#m0954bcf5aa" y="439.590308"/>
     <use style="fill:#9467bd;stroke:#9467bd;" x="748.101273" xlink:href="#m0954bcf5aa" y="444.495743"/>
     <use style="fill:#9467bd;stroke:#9467bd;" x="758.623091" xlink:href="#m0954bcf5aa" y="436.147897"/>
     <use style="fill:#9467bd;stroke:#9467bd;" x="769.144909" xlink:href="#m0954bcf5aa" y="439.590308"/>
     <use style="fill:#9467bd;stroke:#9467bd;" x="779.666727" xlink:href="#m0954bcf5aa" y="434.340632"/>
     <use style="fill:#9467bd;stroke:#9467bd;" x="790.188545" xlink:href="#m0954bcf5aa" y="441.225453"/>
     <use style="fill:#9467bd;stroke:#9467bd;" x="800.710364" xlink:href="#m0954bcf5aa" y="436.233957"/>
    </g>
   </g>
   <g id="line2d_30">
    <path clip-path="url(#p2202c9c2cc)" d="M 179.923091 468.4248 
L 179.923091 63.1584 
" style="fill:none;stroke:#ff0000;stroke-dasharray:4.44,1.92;stroke-dashoffset:0;stroke-width:1.2;"/>
   </g>
   <g id="line2d_31">
    <path clip-path="url(#p2202c9c2cc)" d="M 115.74 87.345638 
L 833.328 87.345638 
" style="fill:none;stroke:#0000ff;stroke-dasharray:4.44,1.92;stroke-dashoffset:0;stroke-width:1.2;"/>
   </g>
   <g id="patch_3">
    <path d="M 115.74 468.4248 
L 115.74 63.1584 
" style="fill:none;stroke:#cccccc;stroke-linecap:square;stroke-linejoin:miter;"/>
   </g>
   <g id="patch_4">
    <path d="M 833.328 468.4248 
L 833.328 63.1584 
" style="fill:none;stroke:#cccccc;stroke-linecap:square;stroke-linejoin:miter;"/>
   </g>
   <g id="patch_5">
    <path d="M 115.74 468.4248 
L 833.328 468.4248 
" style="fill:none;stroke:#cccccc;stroke-linecap:square;stroke-linejoin:miter;"/>
   </g>
   <g id="patch_6">
    <path d="M 115.74 63.1584 
L 833.328 63.1584 
" style="fill:none;stroke:#cccccc;stroke-linecap:square;stroke-linejoin:miter;"/>
   </g>
   <g id="text_15">
    <!-- Proc threads = 4 -->
    <defs>
     <path d="M 7.71875 0 
L 7.71875 71.578125 
L 34.71875 71.578125 
Q 41.84375 71.578125 45.609375 70.90625 
Q 50.875 70.015625 54.4375 67.546875 
Q 58.015625 65.09375 60.1875 60.640625 
Q 62.359375 56.203125 62.359375 50.875 
Q 62.359375 41.75 56.546875 35.421875 
Q 50.734375 29.109375 35.546875 29.109375 
L 17.1875 29.109375 
L 17.1875 0 
z
M 17.1875 37.546875 
L 35.6875 37.546875 
Q 44.875 37.546875 48.734375 40.96875 
Q 52.59375 44.390625 52.59375 50.59375 
Q 52.59375 55.078125 50.3125 58.265625 
Q 48.046875 61.46875 44.34375 62.5 
Q 41.9375 63.140625 35.5 63.140625 
L 17.1875 63.140625 
z
" id="ArialMT-80"/>
     <path d="M 52.828125 42.09375 
L 5.5625 42.09375 
L 5.5625 50.296875 
L 52.828125 50.296875 
z
M 52.828125 20.359375 
L 5.5625 20.359375 
L 5.5625 28.5625 
L 52.828125 28.5625 
z
" id="ArialMT-61"/>
    </defs>
    <g style="fill:#ff0000;" transform="translate(197.602722 -168.847661)rotate(-90)scale(0.1 -0.1)">
     <use xlink:href="#ArialMT-80"/>
     <use x="66.699219" xlink:href="#ArialMT-114"/>
     <use x="100" xlink:href="#ArialMT-111"/>
     <use x="155.615234" xlink:href="#ArialMT-99"/>
     <use x="205.615234" xlink:href="#ArialMT-32"/>
     <use x="233.398438" xlink:href="#ArialMT-116"/>
     <use x="261.181641" xlink:href="#ArialMT-104"/>
     <use x="316.796875" xlink:href="#ArialMT-114"/>
     <use x="350.097656" xlink:href="#ArialMT-101"/>
     <use x="405.712891" xlink:href="#ArialMT-97"/>
     <use x="461.328125" xlink:href="#ArialMT-100"/>
     <use x="516.943359" xlink:href="#ArialMT-115"/>
     <use x="566.943359" xlink:href="#ArialMT-32"/>
     <use x="594.726562" xlink:href="#ArialMT-61"/>
     <use x="653.125" xlink:href="#ArialMT-32"/>
     <use x="680.908203" xlink:href="#ArialMT-52"/>
    </g>
   </g>
   <g id="text_16">
    <!-- Total task run = 5 sec -->
    <defs>
     <path d="M 6.390625 0 
L 6.390625 71.578125 
L 15.1875 71.578125 
L 15.1875 0 
z
" id="ArialMT-108"/>
     <path d="M 6.640625 0 
L 6.640625 71.578125 
L 15.4375 71.578125 
L 15.4375 30.765625 
L 36.234375 51.859375 
L 47.609375 51.859375 
L 27.78125 32.625 
L 49.609375 0 
L 38.765625 0 
L 21.625 26.515625 
L 15.4375 20.5625 
L 15.4375 0 
z
" id="ArialMT-107"/>
    </defs>
    <g style="fill:#0000ff;" transform="translate(348.272182 104.557691)scale(0.1 -0.1)">
     <use xlink:href="#ArialMT-84"/>
     <use x="60.912109" xlink:href="#ArialMT-111"/>
     <use x="116.527344" xlink:href="#ArialMT-116"/>
     <use x="144.310547" xlink:href="#ArialMT-97"/>
     <use x="199.925781" xlink:href="#ArialMT-108"/>
     <use x="222.142578" xlink:href="#ArialMT-32"/>
     <use x="249.925781" xlink:href="#ArialMT-116"/>
     <use x="277.708984" xlink:href="#ArialMT-97"/>
     <use x="333.324219" xlink:href="#ArialMT-115"/>
     <use x="383.324219" xlink:href="#ArialMT-107"/>
     <use x="433.324219" xlink:href="#ArialMT-32"/>
     <use x="461.107422" xlink:href="#ArialMT-114"/>
     <use x="494.408203" xlink:href="#ArialMT-117"/>
     <use x="550.023438" xlink:href="#ArialMT-110"/>
     <use x="605.638672" xlink:href="#ArialMT-32"/>
     <use x="633.421875" xlink:href="#ArialMT-61"/>
     <use x="691.820312" xlink:href="#ArialMT-32"/>
     <use x="719.603516" xlink:href="#ArialMT-53"/>
     <use x="775.21875" xlink:href="#ArialMT-32"/>
     <use x="803.001953" xlink:href="#ArialMT-115"/>
     <use x="853.001953" xlink:href="#ArialMT-101"/>
     <use x="908.617188" xlink:href="#ArialMT-99"/>
    </g>
   </g>
   <g id="text_17">
    <!-- Task manager performance: 100 tasks -->
    <defs>
     <path d="M 4.984375 -4.296875 
L 13.53125 -5.5625 
Q 14.0625 -9.515625 16.5 -11.328125 
Q 19.78125 -13.765625 25.4375 -13.765625 
Q 31.546875 -13.765625 34.859375 -11.328125 
Q 38.1875 -8.890625 39.359375 -4.5 
Q 40.046875 -1.8125 39.984375 6.78125 
Q 34.234375 0 25.640625 0 
Q 14.9375 0 9.078125 7.71875 
Q 3.21875 15.4375 3.21875 26.21875 
Q 3.21875 33.640625 5.90625 39.90625 
Q 8.59375 46.1875 13.6875 49.609375 
Q 18.796875 53.03125 25.6875 53.03125 
Q 34.859375 53.03125 40.828125 45.609375 
L 40.828125 51.859375 
L 48.921875 51.859375 
L 48.921875 7.03125 
Q 48.921875 -5.078125 46.453125 -10.125 
Q 44 -15.1875 38.640625 -18.109375 
Q 33.296875 -21.046875 25.484375 -21.046875 
Q 16.21875 -21.046875 10.5 -16.875 
Q 4.78125 -12.703125 4.984375 -4.296875 
z
M 12.25 26.859375 
Q 12.25 16.65625 16.296875 11.96875 
Q 20.359375 7.28125 26.46875 7.28125 
Q 32.515625 7.28125 36.609375 11.9375 
Q 40.71875 16.609375 40.71875 26.5625 
Q 40.71875 36.078125 36.5 40.90625 
Q 32.28125 45.75 26.3125 45.75 
Q 20.453125 45.75 16.34375 40.984375 
Q 12.25 36.234375 12.25 26.859375 
z
" id="ArialMT-103"/>
     <path d="M 6.59375 -19.875 
L 6.59375 51.859375 
L 14.59375 51.859375 
L 14.59375 45.125 
Q 17.4375 49.078125 21 51.046875 
Q 24.5625 53.03125 29.640625 53.03125 
Q 36.28125 53.03125 41.359375 49.609375 
Q 46.4375 46.1875 49.015625 39.953125 
Q 51.609375 33.734375 51.609375 26.3125 
Q 51.609375 18.359375 48.75 11.984375 
Q 45.90625 5.609375 40.453125 2.21875 
Q 35.015625 -1.171875 29 -1.171875 
Q 24.609375 -1.171875 21.109375 0.6875 
Q 17.625 2.546875 15.375 5.375 
L 15.375 -19.875 
z
M 14.546875 25.640625 
Q 14.546875 15.625 18.59375 10.84375 
Q 22.65625 6.0625 28.421875 6.0625 
Q 34.28125 6.0625 38.453125 11.015625 
Q 42.625 15.96875 42.625 26.375 
Q 42.625 36.28125 38.546875 41.203125 
Q 34.46875 46.140625 28.8125 46.140625 
Q 23.1875 46.140625 18.859375 40.890625 
Q 14.546875 35.640625 14.546875 25.640625 
z
" id="ArialMT-112"/>
     <path d="M 8.6875 0 
L 8.6875 45.015625 
L 0.921875 45.015625 
L 0.921875 51.859375 
L 8.6875 51.859375 
L 8.6875 57.375 
Q 8.6875 62.59375 9.625 65.140625 
Q 10.890625 68.5625 14.078125 70.671875 
Q 17.28125 72.796875 23.046875 72.796875 
Q 26.765625 72.796875 31.25 71.921875 
L 29.9375 64.265625 
Q 27.203125 64.75 24.75 64.75 
Q 20.75 64.75 19.09375 63.03125 
Q 17.4375 61.328125 17.4375 56.640625 
L 17.4375 51.859375 
L 27.546875 51.859375 
L 27.546875 45.015625 
L 17.4375 45.015625 
L 17.4375 0 
z
" id="ArialMT-102"/>
     <path d="M 9.03125 41.84375 
L 9.03125 51.859375 
L 19.046875 51.859375 
L 19.046875 41.84375 
z
M 9.03125 0 
L 9.03125 10.015625 
L 19.046875 10.015625 
L 19.046875 0 
z
" id="ArialMT-58"/>
    </defs>
    <g style="fill:#262626;" transform="translate(371.837437 57.1584)scale(0.12 -0.12)">
     <use xlink:href="#ArialMT-84"/>
     <use x="60.912109" xlink:href="#ArialMT-97"/>
     <use x="116.527344" xlink:href="#ArialMT-115"/>
     <use x="166.527344" xlink:href="#ArialMT-107"/>
     <use x="216.527344" xlink:href="#ArialMT-32"/>
     <use x="244.310547" xlink:href="#ArialMT-109"/>
     <use x="327.611328" xlink:href="#ArialMT-97"/>
     <use x="383.226562" xlink:href="#ArialMT-110"/>
     <use x="438.841797" xlink:href="#ArialMT-97"/>
     <use x="494.457031" xlink:href="#ArialMT-103"/>
     <use x="550.072266" xlink:href="#ArialMT-101"/>
     <use x="605.6875" xlink:href="#ArialMT-114"/>
     <use x="638.988281" xlink:href="#ArialMT-32"/>
     <use x="666.771484" xlink:href="#ArialMT-112"/>
     <use x="722.386719" xlink:href="#ArialMT-101"/>
     <use x="778.001953" xlink:href="#ArialMT-114"/>
     <use x="811.302734" xlink:href="#ArialMT-102"/>
     <use x="839.085938" xlink:href="#ArialMT-111"/>
     <use x="894.701172" xlink:href="#ArialMT-114"/>
     <use x="928.001953" xlink:href="#ArialMT-109"/>
     <use x="1011.302734" xlink:href="#ArialMT-97"/>
     <use x="1066.917969" xlink:href="#ArialMT-110"/>
     <use x="1122.533203" xlink:href="#ArialMT-99"/>
     <use x="1172.533203" xlink:href="#ArialMT-101"/>
     <use x="1228.148438" xlink:href="#ArialMT-58"/>
     <use x="1255.931641" xlink:href="#ArialMT-32"/>
     <use x="1283.714844" xlink:href="#ArialMT-49"/>
     <use x="1339.330078" xlink:href="#ArialMT-48"/>
     <use x="1394.945312" xlink:href="#ArialMT-48"/>
     <use x="1450.560547" xlink:href="#ArialMT-32"/>
     <use x="1478.34375" xlink:href="#ArialMT-116"/>
     <use x="1506.126953" xlink:href="#ArialMT-97"/>
     <use x="1561.742188" xlink:href="#ArialMT-115"/>
     <use x="1611.742188" xlink:href="#ArialMT-107"/>
     <use x="1661.742188" xlink:href="#ArialMT-115"/>
    </g>
   </g>
   <g id="legend_1">
    <g id="line2d_32">
     <path d="M 698.8104 114.889024 
L 718.8104 114.889024 
" style="fill:none;stroke:#1f77b4;stroke-linecap:round;stroke-width:1.2;"/>
    </g>
    <g id="line2d_33">
     <g>
      <use style="fill:#1f77b4;stroke:#1f77b4;" x="708.8104" xlink:href="#m24c74a46b5" y="114.889024"/>
     </g>
    </g>
    <g id="text_18">
     <!-- Worst single -->
     <defs>
      <path d="M 20.21875 0 
L 1.21875 71.578125 
L 10.9375 71.578125 
L 21.828125 24.65625 
Q 23.578125 17.28125 24.859375 10.015625 
Q 27.59375 21.484375 28.078125 23.25 
L 41.703125 71.578125 
L 53.125 71.578125 
L 63.375 35.359375 
Q 67.234375 21.875 68.953125 10.015625 
Q 70.3125 16.796875 72.515625 25.59375 
L 83.734375 71.578125 
L 93.265625 71.578125 
L 73.640625 0 
L 64.5 0 
L 49.421875 54.546875 
Q 47.515625 61.375 47.171875 62.9375 
Q 46.046875 58.015625 45.0625 54.546875 
L 29.890625 0 
z
" id="ArialMT-87"/>
     </defs>
     <g style="fill:#262626;" transform="translate(726.8104 118.389024)scale(0.1 -0.1)">
      <use xlink:href="#ArialMT-87"/>
      <use x="94.369141" xlink:href="#ArialMT-111"/>
      <use x="149.984375" xlink:href="#ArialMT-114"/>
      <use x="183.285156" xlink:href="#ArialMT-115"/>
      <use x="233.285156" xlink:href="#ArialMT-116"/>
      <use x="261.068359" xlink:href="#ArialMT-32"/>
      <use x="288.851562" xlink:href="#ArialMT-115"/>
      <use x="338.851562" xlink:href="#ArialMT-105"/>
      <use x="361.068359" xlink:href="#ArialMT-110"/>
      <use x="416.683594" xlink:href="#ArialMT-103"/>
      <use x="472.298828" xlink:href="#ArialMT-108"/>
      <use x="494.515625" xlink:href="#ArialMT-101"/>
     </g>
    </g>
    <g id="line2d_34">
     <path d="M 698.8104 129.151524 
L 718.8104 129.151524 
" style="fill:none;stroke:#ff7f0e;stroke-linecap:round;stroke-width:1.2;"/>
    </g>
    <g id="line2d_35">
     <g>
      <use style="fill:#ff7f0e;stroke:#ff7f0e;" x="708.8104" xlink:href="#me5489180c2" y="129.151524"/>
     </g>
    </g>
    <g id="text_19">
     <!-- Worst multi -->
     <g style="fill:#262626;" transform="translate(726.8104 132.651524)scale(0.1 -0.1)">
      <use xlink:href="#ArialMT-87"/>
      <use x="94.369141" xlink:href="#ArialMT-111"/>
      <use x="149.984375" xlink:href="#ArialMT-114"/>
      <use x="183.285156" xlink:href="#ArialMT-115"/>
      <use x="233.285156" xlink:href="#ArialMT-116"/>
      <use x="261.068359" xlink:href="#ArialMT-32"/>
      <use x="288.851562" xlink:href="#ArialMT-109"/>
      <use x="372.152344" xlink:href="#ArialMT-117"/>
      <use x="427.767578" xlink:href="#ArialMT-108"/>
      <use x="449.984375" xlink:href="#ArialMT-116"/>
      <use x="477.767578" xlink:href="#ArialMT-105"/>
     </g>
    </g>
    <g id="line2d_36">
     <path d="M 698.8104 143.296836 
L 718.8104 143.296836 
" style="fill:none;stroke:#2ca02c;stroke-linecap:round;stroke-width:1.2;"/>
    </g>
    <g id="line2d_37">
     <g>
      <use style="fill:#2ca02c;stroke:#2ca02c;" x="708.8104" xlink:href="#m7dc55ff22d" y="143.296836"/>
     </g>
    </g>
    <g id="text_20">
     <!-- Random single -->
     <defs>
      <path d="M 7.859375 0 
L 7.859375 71.578125 
L 39.59375 71.578125 
Q 49.171875 71.578125 54.140625 69.640625 
Q 59.125 67.71875 62.109375 62.828125 
Q 65.09375 57.953125 65.09375 52.046875 
Q 65.09375 44.4375 60.15625 39.203125 
Q 55.21875 33.984375 44.921875 32.5625 
Q 48.6875 30.765625 50.640625 29 
Q 54.78125 25.203125 58.5 19.484375 
L 70.953125 0 
L 59.03125 0 
L 49.5625 14.890625 
Q 45.40625 21.34375 42.71875 24.75 
Q 40.046875 28.171875 37.921875 29.53125 
Q 35.796875 30.90625 33.59375 31.453125 
Q 31.984375 31.78125 28.328125 31.78125 
L 17.328125 31.78125 
L 17.328125 0 
z
M 17.328125 39.984375 
L 37.703125 39.984375 
Q 44.1875 39.984375 47.84375 41.328125 
Q 51.515625 42.671875 53.421875 45.625 
Q 55.328125 48.578125 55.328125 52.046875 
Q 55.328125 57.125 51.640625 60.390625 
Q 47.953125 63.671875 39.984375 63.671875 
L 17.328125 63.671875 
z
" id="ArialMT-82"/>
     </defs>
     <g style="fill:#262626;" transform="translate(726.8104 146.796836)scale(0.1 -0.1)">
      <use xlink:href="#ArialMT-82"/>
      <use x="72.216797" xlink:href="#ArialMT-97"/>
      <use x="127.832031" xlink:href="#ArialMT-110"/>
      <use x="183.447266" xlink:href="#ArialMT-100"/>
      <use x="239.0625" xlink:href="#ArialMT-111"/>
      <use x="294.677734" xlink:href="#ArialMT-109"/>
      <use x="377.978516" xlink:href="#ArialMT-32"/>
      <use x="405.761719" xlink:href="#ArialMT-115"/>
      <use x="455.761719" xlink:href="#ArialMT-105"/>
      <use x="477.978516" xlink:href="#ArialMT-110"/>
      <use x="533.59375" xlink:href="#ArialMT-103"/>
      <use x="589.208984" xlink:href="#ArialMT-108"/>
      <use x="611.425781" xlink:href="#ArialMT-101"/>
     </g>
    </g>
    <g id="line2d_38">
     <path d="M 698.8104 157.559336 
L 718.8104 157.559336 
" style="fill:none;stroke:#d62728;stroke-linecap:round;stroke-width:1.2;"/>
    </g>
    <g id="line2d_39">
     <g>
      <use style="fill:#d62728;stroke:#d62728;" x="708.8104" xlink:href="#m8ed4c31e4d" y="157.559336"/>
     </g>
    </g>
    <g id="text_21">
     <!-- Random multi -->
     <g style="fill:#262626;" transform="translate(726.8104 161.059336)scale(0.1 -0.1)">
      <use xlink:href="#ArialMT-82"/>
      <use x="72.216797" xlink:href="#ArialMT-97"/>
      <use x="127.832031" xlink:href="#ArialMT-110"/>
      <use x="183.447266" xlink:href="#ArialMT-100"/>
      <use x="239.0625" xlink:href="#ArialMT-111"/>
      <use x="294.677734" xlink:href="#ArialMT-109"/>
      <use x="377.978516" xlink:href="#ArialMT-32"/>
      <use x="405.761719" xlink:href="#ArialMT-109"/>
      <use x="489.0625" xlink:href="#ArialMT-117"/>
      <use x="544.677734" xlink:href="#ArialMT-108"/>
      <use x="566.894531" xlink:href="#ArialMT-116"/>
      <use x="594.677734" xlink:href="#ArialMT-105"/>
     </g>
    </g>
    <g id="line2d_40">
     <path d="M 698.8104 171.704649 
L 718.8104 171.704649 
" style="fill:none;stroke:#9467bd;stroke-linecap:round;stroke-width:1.2;"/>
    </g>
    <g id="line2d_41">
     <g>
      <use style="fill:#9467bd;stroke:#9467bd;" x="708.8104" xlink:href="#m0954bcf5aa" y="171.704649"/>
     </g>
    </g>
    <g id="text_22">
     <!-- No parents -->
     <defs>
      <path d="M 7.625 0 
L 7.625 71.578125 
L 17.328125 71.578125 
L 54.9375 15.375 
L 54.9375 71.578125 
L 64.015625 71.578125 
L 64.015625 0 
L 54.296875 0 
L 16.703125 56.25 
L 16.703125 0 
z
" id="ArialMT-78"/>
     </defs>
     <g style="fill:#262626;" transform="translate(726.8104 175.204649)scale(0.1 -0.1)">
      <use xlink:href="#ArialMT-78"/>
      <use x="72.216797" xlink:href="#ArialMT-111"/>
      <use x="127.832031" xlink:href="#ArialMT-32"/>
      <use x="155.615234" xlink:href="#ArialMT-112"/>
      <use x="211.230469" xlink:href="#ArialMT-97"/>
      <use x="266.845703" xlink:href="#ArialMT-114"/>
      <use x="300.146484" xlink:href="#ArialMT-101"/>
      <use x="355.761719" xlink:href="#ArialMT-110"/>
      <use x="411.376953" xlink:href="#ArialMT-116"/>
      <use x="439.160156" xlink:href="#ArialMT-115"/>
     </g>
    </g>
   </g>
  </g>
  <g id="legend_2"/>
 </g>
 <defs>
  <clipPath id="p2202c9c2cc">
   <rect height="405.2664" width="717.588" x="115.74" y="63.1584"/>
  </clipPath>
 </defs>
</svg>
