<?xml version="1.0" encoding="utf-8" standalone="no"?>
<!DOCTYPE svg PUBLIC "-//W3C//DTD SVG 1.1//EN"
  "http://www.w3.org/Graphics/SVG/1.1/DTD/svg11.dtd">
<!-- Created with matplotlib (https://matplotlib.org/) -->
<svg height="528.48pt" version="1.1" viewBox="0 0 935.28 528.48" width="935.28pt" xmlns="http://www.w3.org/2000/svg" xmlns:xlink="http://www.w3.org/1999/xlink">
 <defs>
  <style type="text/css">
*{stroke-linecap:butt;stroke-linejoin:round;}
  </style>
 </defs>
 <g id="figure_1">
  <g id="patch_1">
   <path d="M 0 528.48 
L 935.28 528.48 
L 935.28 0 
L 0 0 
z
" style="fill:#ffffff;"/>
  </g>
  <g id="axes_1">
   <g id="patch_2">
    <path d="M 116.91 470.3472 
L 841.752 470.3472 
L 841.752 63.4176 
L 116.91 63.4176 
z
" style="fill:#ffffff;"/>
   </g>
   <g id="matplotlib.axis_1">
    <g id="xtick_1">
     <g id="line2d_1">
      <path clip-path="url(#pd025ef19c4)" d="M 139.229182 470.3472 
L 139.229182 63.4176 
" style="fill:none;stroke:#cccccc;stroke-linecap:round;stroke-width:0.8;"/>
     </g>
     <g id="line2d_2"/>
     <g id="text_1">
      <!-- 0 -->
      <defs>
       <path d="M 4.15625 35.296875 
Q 4.15625 48 6.765625 55.734375 
Q 9.375 63.484375 14.515625 67.671875 
Q 19.671875 71.875 27.484375 71.875 
Q 33.25 71.875 37.59375 69.546875 
Q 41.9375 67.234375 44.765625 62.859375 
Q 47.609375 58.5 49.21875 52.21875 
Q 50.828125 45.953125 50.828125 35.296875 
Q 50.828125 22.703125 48.234375 14.96875 
Q 45.65625 7.234375 40.5 3 
Q 35.359375 -1.21875 27.484375 -1.21875 
Q 17.140625 -1.21875 11.234375 6.203125 
Q 4.15625 15.140625 4.15625 35.296875 
z
M 13.1875 35.296875 
Q 13.1875 17.671875 17.3125 11.828125 
Q 21.4375 6 27.484375 6 
Q 33.546875 6 37.671875 11.859375 
Q 41.796875 17.71875 41.796875 35.296875 
Q 41.796875 52.984375 37.671875 58.78125 
Q 33.546875 64.59375 27.390625 64.59375 
Q 21.34375 64.59375 17.71875 59.46875 
Q 13.1875 52.9375 13.1875 35.296875 
z
" id="ArialMT-48"/>
      </defs>
      <g style="fill:#262626;" transform="translate(136.448713 481.005013)scale(0.1 -0.1)">
       <use xlink:href="#ArialMT-48"/>
      </g>
     </g>
    </g>
    <g id="xtick_2">
     <g id="line2d_3">
      <path clip-path="url(#pd025ef19c4)" d="M 245.511 470.3472 
L 245.511 63.4176 
" style="fill:none;stroke:#cccccc;stroke-linecap:round;stroke-width:0.8;"/>
     </g>
     <g id="line2d_4"/>
     <g id="text_2">
      <!-- 10 -->
      <defs>
       <path d="M 37.25 0 
L 28.46875 0 
L 28.46875 56 
Q 25.296875 52.984375 20.140625 49.953125 
Q 14.984375 46.921875 10.890625 45.40625 
L 10.890625 53.90625 
Q 18.265625 57.375 23.78125 62.296875 
Q 29.296875 67.234375 31.59375 71.875 
L 37.25 71.875 
z
" id="ArialMT-49"/>
      </defs>
      <g style="fill:#262626;" transform="translate(239.950063 481.005013)scale(0.1 -0.1)">
       <use xlink:href="#ArialMT-49"/>
       <use x="55.615234" xlink:href="#ArialMT-48"/>
      </g>
     </g>
    </g>
    <g id="xtick_3">
     <g id="line2d_5">
      <path clip-path="url(#pd025ef19c4)" d="M 351.792818 470.3472 
L 351.792818 63.4176 
" style="fill:none;stroke:#cccccc;stroke-linecap:round;stroke-width:0.8;"/>
     </g>
     <g id="line2d_6"/>
     <g id="text_3">
      <!-- 20 -->
      <defs>
       <path d="M 50.34375 8.453125 
L 50.34375 0 
L 3.03125 0 
Q 2.9375 3.171875 4.046875 6.109375 
Q 5.859375 10.9375 9.828125 15.625 
Q 13.8125 20.3125 21.34375 26.46875 
Q 33.015625 36.03125 37.109375 41.625 
Q 41.21875 47.21875 41.21875 52.203125 
Q 41.21875 57.421875 37.46875 61 
Q 33.734375 64.59375 27.734375 64.59375 
Q 21.390625 64.59375 17.578125 60.78125 
Q 13.765625 56.984375 13.71875 50.25 
L 4.6875 51.171875 
Q 5.609375 61.28125 11.65625 66.578125 
Q 17.71875 71.875 27.9375 71.875 
Q 38.234375 71.875 44.234375 66.15625 
Q 50.25 60.453125 50.25 52 
Q 50.25 47.703125 48.484375 43.546875 
Q 46.734375 39.40625 42.65625 34.8125 
Q 38.578125 30.21875 29.109375 22.21875 
Q 21.1875 15.578125 18.9375 13.203125 
Q 16.703125 10.84375 15.234375 8.453125 
z
" id="ArialMT-50"/>
      </defs>
      <g style="fill:#262626;" transform="translate(346.231881 481.005013)scale(0.1 -0.1)">
       <use xlink:href="#ArialMT-50"/>
       <use x="55.615234" xlink:href="#ArialMT-48"/>
      </g>
     </g>
    </g>
    <g id="xtick_4">
     <g id="line2d_7">
      <path clip-path="url(#pd025ef19c4)" d="M 458.074636 470.3472 
L 458.074636 63.4176 
" style="fill:none;stroke:#cccccc;stroke-linecap:round;stroke-width:0.8;"/>
     </g>
     <g id="line2d_8"/>
     <g id="text_4">
      <!-- 30 -->
      <defs>
       <path d="M 4.203125 18.890625 
L 12.984375 20.0625 
Q 14.5 12.59375 18.140625 9.296875 
Q 21.78125 6 27 6 
Q 33.203125 6 37.46875 10.296875 
Q 41.75 14.59375 41.75 20.953125 
Q 41.75 27 37.796875 30.921875 
Q 33.84375 34.859375 27.734375 34.859375 
Q 25.25 34.859375 21.53125 33.890625 
L 22.515625 41.609375 
Q 23.390625 41.5 23.921875 41.5 
Q 29.546875 41.5 34.03125 44.421875 
Q 38.53125 47.359375 38.53125 53.46875 
Q 38.53125 58.296875 35.25 61.46875 
Q 31.984375 64.65625 26.8125 64.65625 
Q 21.6875 64.65625 18.265625 61.421875 
Q 14.84375 58.203125 13.875 51.765625 
L 5.078125 53.328125 
Q 6.6875 62.15625 12.390625 67.015625 
Q 18.109375 71.875 26.609375 71.875 
Q 32.46875 71.875 37.390625 69.359375 
Q 42.328125 66.84375 44.9375 62.5 
Q 47.5625 58.15625 47.5625 53.265625 
Q 47.5625 48.640625 45.0625 44.828125 
Q 42.578125 41.015625 37.703125 38.765625 
Q 44.046875 37.3125 47.5625 32.6875 
Q 51.078125 28.078125 51.078125 21.140625 
Q 51.078125 11.765625 44.234375 5.25 
Q 37.40625 -1.265625 26.953125 -1.265625 
Q 17.53125 -1.265625 11.296875 4.34375 
Q 5.078125 9.96875 4.203125 18.890625 
z
" id="ArialMT-51"/>
      </defs>
      <g style="fill:#262626;" transform="translate(452.513699 481.005013)scale(0.1 -0.1)">
       <use xlink:href="#ArialMT-51"/>
       <use x="55.615234" xlink:href="#ArialMT-48"/>
      </g>
     </g>
    </g>
    <g id="xtick_5">
     <g id="line2d_9">
      <path clip-path="url(#pd025ef19c4)" d="M 564.356455 470.3472 
L 564.356455 63.4176 
" style="fill:none;stroke:#cccccc;stroke-linecap:round;stroke-width:0.8;"/>
     </g>
     <g id="line2d_10"/>
     <g id="text_5">
      <!-- 40 -->
      <defs>
       <path d="M 32.328125 0 
L 32.328125 17.140625 
L 1.265625 17.140625 
L 1.265625 25.203125 
L 33.9375 71.578125 
L 41.109375 71.578125 
L 41.109375 25.203125 
L 50.78125 25.203125 
L 50.78125 17.140625 
L 41.109375 17.140625 
L 41.109375 0 
z
M 32.328125 25.203125 
L 32.328125 57.46875 
L 9.90625 25.203125 
z
" id="ArialMT-52"/>
      </defs>
      <g style="fill:#262626;" transform="translate(558.795517 481.005013)scale(0.1 -0.1)">
       <use xlink:href="#ArialMT-52"/>
       <use x="55.615234" xlink:href="#ArialMT-48"/>
      </g>
     </g>
    </g>
    <g id="xtick_6">
     <g id="line2d_11">
      <path clip-path="url(#pd025ef19c4)" d="M 670.638273 470.3472 
L 670.638273 63.4176 
" style="fill:none;stroke:#cccccc;stroke-linecap:round;stroke-width:0.8;"/>
     </g>
     <g id="line2d_12"/>
     <g id="text_6">
      <!-- 50 -->
      <defs>
       <path d="M 4.15625 18.75 
L 13.375 19.53125 
Q 14.40625 12.796875 18.140625 9.390625 
Q 21.875 6 27.15625 6 
Q 33.5 6 37.890625 10.78125 
Q 42.28125 15.578125 42.28125 23.484375 
Q 42.28125 31 38.0625 35.34375 
Q 33.84375 39.703125 27 39.703125 
Q 22.75 39.703125 19.328125 37.765625 
Q 15.921875 35.84375 13.96875 32.765625 
L 5.71875 33.84375 
L 12.640625 70.609375 
L 48.25 70.609375 
L 48.25 62.203125 
L 19.671875 62.203125 
L 15.828125 42.96875 
Q 22.265625 47.46875 29.34375 47.46875 
Q 38.71875 47.46875 45.15625 40.96875 
Q 51.609375 34.46875 51.609375 24.265625 
Q 51.609375 14.546875 45.953125 7.46875 
Q 39.0625 -1.21875 27.15625 -1.21875 
Q 17.390625 -1.21875 11.203125 4.25 
Q 5.03125 9.71875 4.15625 18.75 
z
" id="ArialMT-53"/>
      </defs>
      <g style="fill:#262626;" transform="translate(665.077335 481.005013)scale(0.1 -0.1)">
       <use xlink:href="#ArialMT-53"/>
       <use x="55.615234" xlink:href="#ArialMT-48"/>
      </g>
     </g>
    </g>
    <g id="xtick_7">
     <g id="line2d_13">
      <path clip-path="url(#pd025ef19c4)" d="M 776.920091 470.3472 
L 776.920091 63.4176 
" style="fill:none;stroke:#cccccc;stroke-linecap:round;stroke-width:0.8;"/>
     </g>
     <g id="line2d_14"/>
     <g id="text_7">
      <!-- 60 -->
      <defs>
       <path d="M 49.75 54.046875 
L 41.015625 53.375 
Q 39.84375 58.546875 37.703125 60.890625 
Q 34.125 64.65625 28.90625 64.65625 
Q 24.703125 64.65625 21.53125 62.3125 
Q 17.390625 59.28125 14.984375 53.46875 
Q 12.59375 47.65625 12.5 36.921875 
Q 15.671875 41.75 20.265625 44.09375 
Q 24.859375 46.4375 29.890625 46.4375 
Q 38.671875 46.4375 44.84375 39.96875 
Q 51.03125 33.5 51.03125 23.25 
Q 51.03125 16.5 48.125 10.71875 
Q 45.21875 4.9375 40.140625 1.859375 
Q 35.0625 -1.21875 28.609375 -1.21875 
Q 17.625 -1.21875 10.6875 6.859375 
Q 3.765625 14.9375 3.765625 33.5 
Q 3.765625 54.25 11.421875 63.671875 
Q 18.109375 71.875 29.4375 71.875 
Q 37.890625 71.875 43.28125 67.140625 
Q 48.6875 62.40625 49.75 54.046875 
z
M 13.875 23.1875 
Q 13.875 18.65625 15.796875 14.5 
Q 17.71875 10.359375 21.1875 8.171875 
Q 24.65625 6 28.46875 6 
Q 34.03125 6 38.03125 10.484375 
Q 42.046875 14.984375 42.046875 22.703125 
Q 42.046875 30.125 38.078125 34.390625 
Q 34.125 38.671875 28.125 38.671875 
Q 22.171875 38.671875 18.015625 34.390625 
Q 13.875 30.125 13.875 23.1875 
z
" id="ArialMT-54"/>
      </defs>
      <g style="fill:#262626;" transform="translate(771.359153 481.005013)scale(0.1 -0.1)">
       <use xlink:href="#ArialMT-54"/>
       <use x="55.615234" xlink:href="#ArialMT-48"/>
      </g>
     </g>
    </g>
    <g id="text_8">
     <!-- Thread count -->
     <defs>
      <path d="M 25.921875 0 
L 25.921875 63.140625 
L 2.34375 63.140625 
L 2.34375 71.578125 
L 59.078125 71.578125 
L 59.078125 63.140625 
L 35.40625 63.140625 
L 35.40625 0 
z
" id="ArialMT-84"/>
      <path d="M 6.59375 0 
L 6.59375 71.578125 
L 15.375 71.578125 
L 15.375 45.90625 
Q 21.53125 53.03125 30.90625 53.03125 
Q 36.671875 53.03125 40.921875 50.75 
Q 45.171875 48.484375 47 44.484375 
Q 48.828125 40.484375 48.828125 32.859375 
L 48.828125 0 
L 40.046875 0 
L 40.046875 32.859375 
Q 40.046875 39.453125 37.1875 42.453125 
Q 34.328125 45.453125 29.109375 45.453125 
Q 25.203125 45.453125 21.75 43.421875 
Q 18.3125 41.40625 16.84375 37.9375 
Q 15.375 34.46875 15.375 28.375 
L 15.375 0 
z
" id="ArialMT-104"/>
      <path d="M 6.5 0 
L 6.5 51.859375 
L 14.40625 51.859375 
L 14.40625 44 
Q 17.4375 49.515625 20 51.265625 
Q 22.5625 53.03125 25.640625 53.03125 
Q 30.078125 53.03125 34.671875 50.203125 
L 31.640625 42.046875 
Q 28.421875 43.953125 25.203125 43.953125 
Q 22.3125 43.953125 20.015625 42.21875 
Q 17.71875 40.484375 16.75 37.40625 
Q 15.28125 32.71875 15.28125 27.15625 
L 15.28125 0 
z
" id="ArialMT-114"/>
      <path d="M 42.09375 16.703125 
L 51.171875 15.578125 
Q 49.03125 7.625 43.21875 3.21875 
Q 37.40625 -1.171875 28.375 -1.171875 
Q 17 -1.171875 10.328125 5.828125 
Q 3.65625 12.84375 3.65625 25.484375 
Q 3.65625 38.578125 10.390625 45.796875 
Q 17.140625 53.03125 27.875 53.03125 
Q 38.28125 53.03125 44.875 45.953125 
Q 51.46875 38.875 51.46875 26.03125 
Q 51.46875 25.25 51.421875 23.6875 
L 12.75 23.6875 
Q 13.234375 15.140625 17.578125 10.59375 
Q 21.921875 6.0625 28.421875 6.0625 
Q 33.25 6.0625 36.671875 8.59375 
Q 40.09375 11.140625 42.09375 16.703125 
z
M 13.234375 30.90625 
L 42.1875 30.90625 
Q 41.609375 37.453125 38.875 40.71875 
Q 34.671875 45.796875 27.984375 45.796875 
Q 21.921875 45.796875 17.796875 41.75 
Q 13.671875 37.703125 13.234375 30.90625 
z
" id="ArialMT-101"/>
      <path d="M 40.4375 6.390625 
Q 35.546875 2.25 31.03125 0.53125 
Q 26.515625 -1.171875 21.34375 -1.171875 
Q 12.796875 -1.171875 8.203125 3 
Q 3.609375 7.171875 3.609375 13.671875 
Q 3.609375 17.484375 5.34375 20.625 
Q 7.078125 23.78125 9.890625 25.6875 
Q 12.703125 27.59375 16.21875 28.5625 
Q 18.796875 29.25 24.03125 29.890625 
Q 34.671875 31.15625 39.703125 32.90625 
Q 39.75 34.71875 39.75 35.203125 
Q 39.75 40.578125 37.25 42.78125 
Q 33.890625 45.75 27.25 45.75 
Q 21.046875 45.75 18.09375 43.578125 
Q 15.140625 41.40625 13.71875 35.890625 
L 5.125 37.0625 
Q 6.296875 42.578125 8.984375 45.96875 
Q 11.671875 49.359375 16.75 51.1875 
Q 21.828125 53.03125 28.515625 53.03125 
Q 35.15625 53.03125 39.296875 51.46875 
Q 43.453125 49.90625 45.40625 47.53125 
Q 47.359375 45.171875 48.140625 41.546875 
Q 48.578125 39.3125 48.578125 33.453125 
L 48.578125 21.734375 
Q 48.578125 9.46875 49.140625 6.21875 
Q 49.703125 2.984375 51.375 0 
L 42.1875 0 
Q 40.828125 2.734375 40.4375 6.390625 
z
M 39.703125 26.03125 
Q 34.90625 24.078125 25.34375 22.703125 
Q 19.921875 21.921875 17.671875 20.9375 
Q 15.4375 19.96875 14.203125 18.09375 
Q 12.984375 16.21875 12.984375 13.921875 
Q 12.984375 10.40625 15.640625 8.0625 
Q 18.3125 5.71875 23.4375 5.71875 
Q 28.515625 5.71875 32.46875 7.9375 
Q 36.421875 10.15625 38.28125 14.015625 
Q 39.703125 17 39.703125 22.796875 
z
" id="ArialMT-97"/>
      <path d="M 40.234375 0 
L 40.234375 6.546875 
Q 35.296875 -1.171875 25.734375 -1.171875 
Q 19.53125 -1.171875 14.328125 2.25 
Q 9.125 5.671875 6.265625 11.796875 
Q 3.421875 17.921875 3.421875 25.875 
Q 3.421875 33.640625 6 39.96875 
Q 8.59375 46.296875 13.765625 49.65625 
Q 18.953125 53.03125 25.34375 53.03125 
Q 30.03125 53.03125 33.6875 51.046875 
Q 37.359375 49.078125 39.65625 45.90625 
L 39.65625 71.578125 
L 48.390625 71.578125 
L 48.390625 0 
z
M 12.453125 25.875 
Q 12.453125 15.921875 16.640625 10.984375 
Q 20.84375 6.0625 26.5625 6.0625 
Q 32.328125 6.0625 36.34375 10.765625 
Q 40.375 15.484375 40.375 25.140625 
Q 40.375 35.796875 36.265625 40.765625 
Q 32.171875 45.75 26.171875 45.75 
Q 20.3125 45.75 16.375 40.96875 
Q 12.453125 36.1875 12.453125 25.875 
z
" id="ArialMT-100"/>
      <path id="ArialMT-32"/>
      <path d="M 40.4375 19 
L 49.078125 17.875 
Q 47.65625 8.9375 41.8125 3.875 
Q 35.984375 -1.171875 27.484375 -1.171875 
Q 16.84375 -1.171875 10.375 5.78125 
Q 3.90625 12.75 3.90625 25.734375 
Q 3.90625 34.125 6.6875 40.421875 
Q 9.46875 46.734375 15.15625 49.875 
Q 20.84375 53.03125 27.546875 53.03125 
Q 35.984375 53.03125 41.359375 48.75 
Q 46.734375 44.484375 48.25 36.625 
L 39.703125 35.296875 
Q 38.484375 40.53125 35.375 43.15625 
Q 32.28125 45.796875 27.875 45.796875 
Q 21.234375 45.796875 17.078125 41.03125 
Q 12.9375 36.28125 12.9375 25.984375 
Q 12.9375 15.53125 16.9375 10.796875 
Q 20.953125 6.0625 27.390625 6.0625 
Q 32.5625 6.0625 36.03125 9.234375 
Q 39.5 12.40625 40.4375 19 
z
" id="ArialMT-99"/>
      <path d="M 3.328125 25.921875 
Q 3.328125 40.328125 11.328125 47.265625 
Q 18.015625 53.03125 27.640625 53.03125 
Q 38.328125 53.03125 45.109375 46.015625 
Q 51.90625 39.015625 51.90625 26.65625 
Q 51.90625 16.65625 48.90625 10.90625 
Q 45.90625 5.171875 40.15625 2 
Q 34.421875 -1.171875 27.640625 -1.171875 
Q 16.75 -1.171875 10.03125 5.8125 
Q 3.328125 12.796875 3.328125 25.921875 
z
M 12.359375 25.921875 
Q 12.359375 15.96875 16.703125 11.015625 
Q 21.046875 6.0625 27.640625 6.0625 
Q 34.1875 6.0625 38.53125 11.03125 
Q 42.875 16.015625 42.875 26.21875 
Q 42.875 35.84375 38.5 40.796875 
Q 34.125 45.75 27.640625 45.75 
Q 21.046875 45.75 16.703125 40.8125 
Q 12.359375 35.890625 12.359375 25.921875 
z
" id="ArialMT-111"/>
      <path d="M 40.578125 0 
L 40.578125 7.625 
Q 34.515625 -1.171875 24.125 -1.171875 
Q 19.53125 -1.171875 15.546875 0.578125 
Q 11.578125 2.34375 9.640625 5 
Q 7.71875 7.671875 6.9375 11.53125 
Q 6.390625 14.109375 6.390625 19.734375 
L 6.390625 51.859375 
L 15.1875 51.859375 
L 15.1875 23.09375 
Q 15.1875 16.21875 15.71875 13.8125 
Q 16.546875 10.359375 19.234375 8.375 
Q 21.921875 6.390625 25.875 6.390625 
Q 29.828125 6.390625 33.296875 8.421875 
Q 36.765625 10.453125 38.203125 13.9375 
Q 39.65625 17.4375 39.65625 24.078125 
L 39.65625 51.859375 
L 48.4375 51.859375 
L 48.4375 0 
z
" id="ArialMT-117"/>
      <path d="M 6.59375 0 
L 6.59375 51.859375 
L 14.5 51.859375 
L 14.5 44.484375 
Q 20.21875 53.03125 31 53.03125 
Q 35.6875 53.03125 39.625 51.34375 
Q 43.5625 49.65625 45.515625 46.921875 
Q 47.46875 44.1875 48.25 40.4375 
Q 48.734375 37.984375 48.734375 31.890625 
L 48.734375 0 
L 39.9375 0 
L 39.9375 31.546875 
Q 39.9375 36.921875 38.90625 39.578125 
Q 37.890625 42.234375 35.28125 43.8125 
Q 32.671875 45.40625 29.15625 45.40625 
Q 23.53125 45.40625 19.453125 41.84375 
Q 15.375 38.28125 15.375 28.328125 
L 15.375 0 
z
" id="ArialMT-110"/>
      <path d="M 25.78125 7.859375 
L 27.046875 0.09375 
Q 23.34375 -0.6875 20.40625 -0.6875 
Q 15.625 -0.6875 12.984375 0.828125 
Q 10.359375 2.34375 9.28125 4.8125 
Q 8.203125 7.28125 8.203125 15.1875 
L 8.203125 45.015625 
L 1.765625 45.015625 
L 1.765625 51.859375 
L 8.203125 51.859375 
L 8.203125 64.703125 
L 16.9375 69.96875 
L 16.9375 51.859375 
L 25.78125 51.859375 
L 25.78125 45.015625 
L 16.9375 45.015625 
L 16.9375 14.703125 
Q 16.9375 10.9375 17.40625 9.859375 
Q 17.875 8.796875 18.921875 8.15625 
Q 19.96875 7.515625 21.921875 7.515625 
Q 23.390625 7.515625 25.78125 7.859375 
z
" id="ArialMT-116"/>
     </defs>
     <g style="fill:#262626;" transform="translate(449.870844 494.150325)scale(0.1 -0.1)">
      <use xlink:href="#ArialMT-84"/>
      <use x="61.083984" xlink:href="#ArialMT-104"/>
      <use x="116.699219" xlink:href="#ArialMT-114"/>
      <use x="150" xlink:href="#ArialMT-101"/>
      <use x="205.615234" xlink:href="#ArialMT-97"/>
      <use x="261.230469" xlink:href="#ArialMT-100"/>
      <use x="316.845703" xlink:href="#ArialMT-32"/>
      <use x="344.628906" xlink:href="#ArialMT-99"/>
      <use x="394.628906" xlink:href="#ArialMT-111"/>
      <use x="450.244141" xlink:href="#ArialMT-117"/>
      <use x="505.859375" xlink:href="#ArialMT-110"/>
      <use x="561.474609" xlink:href="#ArialMT-116"/>
     </g>
    </g>
   </g>
   <g id="matplotlib.axis_2">
    <g id="ytick_1">
     <g id="line2d_15">
      <path clip-path="url(#pd025ef19c4)" d="M 116.91 443.749612 
L 841.752 443.749612 
" style="fill:none;stroke:#cccccc;stroke-linecap:round;stroke-width:0.8;"/>
     </g>
     <g id="line2d_16"/>
     <g id="text_9">
      <!-- 1 -->
      <g style="fill:#262626;" transform="translate(107.849063 447.328518)scale(0.1 -0.1)">
       <use xlink:href="#ArialMT-49"/>
      </g>
     </g>
    </g>
    <g id="ytick_2">
     <g id="line2d_17">
      <path clip-path="url(#pd025ef19c4)" d="M 116.91 353.740853 
L 841.752 353.740853 
" style="fill:none;stroke:#cccccc;stroke-linecap:round;stroke-width:0.8;"/>
     </g>
     <g id="line2d_18"/>
     <g id="text_10">
      <!-- 2 -->
      <g style="fill:#262626;" transform="translate(107.849063 357.319759)scale(0.1 -0.1)">
       <use xlink:href="#ArialMT-50"/>
      </g>
     </g>
    </g>
    <g id="ytick_3">
     <g id="line2d_19">
      <path clip-path="url(#pd025ef19c4)" d="M 116.91 263.732093 
L 841.752 263.732093 
" style="fill:none;stroke:#cccccc;stroke-linecap:round;stroke-width:0.8;"/>
     </g>
     <g id="line2d_20"/>
     <g id="text_11">
      <!-- 3 -->
      <g style="fill:#262626;" transform="translate(107.849063 267.311)scale(0.1 -0.1)">
       <use xlink:href="#ArialMT-51"/>
      </g>
     </g>
    </g>
    <g id="ytick_4">
     <g id="line2d_21">
      <path clip-path="url(#pd025ef19c4)" d="M 116.91 173.723334 
L 841.752 173.723334 
" style="fill:none;stroke:#cccccc;stroke-linecap:round;stroke-width:0.8;"/>
     </g>
     <g id="line2d_22"/>
     <g id="text_12">
      <!-- 4 -->
      <g style="fill:#262626;" transform="translate(107.849063 177.302241)scale(0.1 -0.1)">
       <use xlink:href="#ArialMT-52"/>
      </g>
     </g>
    </g>
    <g id="ytick_5">
     <g id="line2d_23">
      <path clip-path="url(#pd025ef19c4)" d="M 116.91 83.714575 
L 841.752 83.714575 
" style="fill:none;stroke:#cccccc;stroke-linecap:round;stroke-width:0.8;"/>
     </g>
     <g id="line2d_24"/>
     <g id="text_13">
      <!-- 5 -->
      <g style="fill:#262626;" transform="translate(107.849063 87.293481)scale(0.1 -0.1)">
       <use xlink:href="#ArialMT-53"/>
      </g>
     </g>
    </g>
    <g id="text_14">
     <!-- Time, sec -->
     <defs>
      <path d="M 6.640625 61.46875 
L 6.640625 71.578125 
L 15.4375 71.578125 
L 15.4375 61.46875 
z
M 6.640625 0 
L 6.640625 51.859375 
L 15.4375 51.859375 
L 15.4375 0 
z
" id="ArialMT-105"/>
      <path d="M 6.59375 0 
L 6.59375 51.859375 
L 14.453125 51.859375 
L 14.453125 44.578125 
Q 16.890625 48.390625 20.9375 50.703125 
Q 25 53.03125 30.171875 53.03125 
Q 35.9375 53.03125 39.625 50.640625 
Q 43.3125 48.25 44.828125 43.953125 
Q 50.984375 53.03125 60.84375 53.03125 
Q 68.5625 53.03125 72.703125 48.75 
Q 76.859375 44.484375 76.859375 35.59375 
L 76.859375 0 
L 68.109375 0 
L 68.109375 32.671875 
Q 68.109375 37.9375 67.25 40.25 
Q 66.40625 42.578125 64.15625 43.984375 
Q 61.921875 45.40625 58.890625 45.40625 
Q 53.421875 45.40625 49.796875 41.765625 
Q 46.1875 38.140625 46.1875 30.125 
L 46.1875 0 
L 37.40625 0 
L 37.40625 33.6875 
Q 37.40625 39.546875 35.25 42.46875 
Q 33.109375 45.40625 28.21875 45.40625 
Q 24.515625 45.40625 21.359375 43.453125 
Q 18.21875 41.5 16.796875 37.734375 
Q 15.375 33.984375 15.375 26.90625 
L 15.375 0 
z
" id="ArialMT-109"/>
      <path d="M 8.890625 0 
L 8.890625 10.015625 
L 18.890625 10.015625 
L 18.890625 0 
Q 18.890625 -5.515625 16.9375 -8.90625 
Q 14.984375 -12.3125 10.75 -14.15625 
L 8.296875 -10.40625 
Q 11.078125 -9.1875 12.390625 -6.8125 
Q 13.71875 -4.4375 13.875 0 
z
" id="ArialMT-44"/>
      <path d="M 3.078125 15.484375 
L 11.765625 16.84375 
Q 12.5 11.625 15.84375 8.84375 
Q 19.1875 6.0625 25.203125 6.0625 
Q 31.25 6.0625 34.171875 8.515625 
Q 37.109375 10.984375 37.109375 14.3125 
Q 37.109375 17.28125 34.515625 19 
Q 32.71875 20.171875 25.53125 21.96875 
Q 15.875 24.421875 12.140625 26.203125 
Q 8.40625 27.984375 6.46875 31.125 
Q 4.546875 34.28125 4.546875 38.09375 
Q 4.546875 41.546875 6.125 44.5 
Q 7.71875 47.46875 10.453125 49.421875 
Q 12.5 50.921875 16.03125 51.96875 
Q 19.578125 53.03125 23.640625 53.03125 
Q 29.734375 53.03125 34.34375 51.265625 
Q 38.96875 49.515625 41.15625 46.5 
Q 43.359375 43.5 44.1875 38.484375 
L 35.59375 37.3125 
Q 35.015625 41.3125 32.203125 43.546875 
Q 29.390625 45.796875 24.265625 45.796875 
Q 18.21875 45.796875 15.625 43.796875 
Q 13.03125 41.796875 13.03125 39.109375 
Q 13.03125 37.40625 14.109375 36.03125 
Q 15.1875 34.625 17.484375 33.6875 
Q 18.796875 33.203125 25.25 31.453125 
Q 34.578125 28.953125 38.25 27.359375 
Q 41.9375 25.78125 44.03125 22.75 
Q 46.140625 19.734375 46.140625 15.234375 
Q 46.140625 10.84375 43.578125 6.953125 
Q 41.015625 3.078125 36.171875 0.953125 
Q 31.34375 -1.171875 25.25 -1.171875 
Q 15.140625 -1.171875 9.84375 3.03125 
Q 4.546875 7.234375 3.078125 15.484375 
z
" id="ArialMT-115"/>
     </defs>
     <g style="fill:#262626;" transform="translate(101.861563 288.548806)rotate(-90)scale(0.1 -0.1)">
      <use xlink:href="#ArialMT-84"/>
      <use x="61.037109" xlink:href="#ArialMT-105"/>
      <use x="83.253906" xlink:href="#ArialMT-109"/>
      <use x="166.554688" xlink:href="#ArialMT-101"/>
      <use x="222.169922" xlink:href="#ArialMT-44"/>
      <use x="249.953125" xlink:href="#ArialMT-32"/>
      <use x="277.736328" xlink:href="#ArialMT-115"/>
      <use x="327.736328" xlink:href="#ArialMT-101"/>
      <use x="383.351562" xlink:href="#ArialMT-99"/>
     </g>
    </g>
   </g>
   <g id="line2d_25">
    <path clip-path="url(#pd025ef19c4)" d="M 149.857364 82.544461 
L 160.485545 83.174523 
L 171.113727 83.264531 
L 181.741909 83.264531 
L 192.370091 83.174523 
L 202.998273 83.264531 
L 213.626455 83.174523 
L 224.254636 83.264531 
L 234.882818 83.174523 
L 245.511 83.174523 
L 256.139182 83.264531 
L 266.767364 83.174523 
L 277.395545 83.264531 
L 288.023727 83.174523 
L 298.651909 83.264531 
L 309.280091 83.264531 
L 319.908273 83.174523 
L 330.536455 83.174523 
L 341.164636 83.174523 
L 351.792818 83.174523 
L 362.421 83.174523 
L 373.049182 83.264531 
L 383.677364 83.264531 
L 394.305545 83.264531 
L 404.933727 83.174523 
L 415.561909 83.174523 
L 426.190091 83.174523 
L 436.818273 83.174523 
L 447.446455 83.174523 
L 458.074636 82.004409 
L 468.702818 83.084514 
L 479.331 83.174523 
L 489.959182 82.004409 
L 500.587364 83.174523 
L 511.215545 83.084514 
L 521.843727 81.9144 
L 532.471909 83.174523 
L 543.100091 82.904496 
L 553.728273 83.174523 
L 564.356455 83.174523 
L 574.984636 83.174523 
L 585.612818 83.174523 
L 596.241 83.084514 
L 606.869182 83.084514 
L 617.497364 83.174523 
L 628.125545 83.174523 
L 638.753727 83.174523 
L 649.381909 83.174523 
L 660.010091 83.174523 
L 670.638273 83.174523 
L 681.266455 83.084514 
L 691.894636 83.174523 
L 702.522818 83.084514 
L 713.151 83.084514 
L 723.779182 83.174523 
L 734.407364 83.174523 
L 745.035545 83.174523 
L 755.663727 83.174523 
L 766.291909 83.084514 
L 776.920091 83.174523 
L 787.548273 83.174523 
L 798.176455 83.084514 
L 808.804636 83.174523 
" style="fill:none;stroke:#1f77b4;stroke-linecap:round;stroke-width:1.2;"/>
    <defs>
     <path d="M 0 1.5 
C 0.397805 1.5 0.77937 1.341951 1.06066 1.06066 
C 1.341951 0.77937 1.5 0.397805 1.5 0 
C 1.5 -0.397805 1.341951 -0.77937 1.06066 -1.06066 
C 0.77937 -1.341951 0.397805 -1.5 0 -1.5 
C -0.397805 -1.5 -0.77937 -1.341951 -1.06066 -1.06066 
C -1.341951 -0.77937 -1.5 -0.397805 -1.5 0 
C -1.5 0.397805 -1.341951 0.77937 -1.06066 1.06066 
C -0.77937 1.341951 -0.397805 1.5 0 1.5 
z
" id="mef252a2786" style="stroke:#1f77b4;"/>
    </defs>
    <g clip-path="url(#pd025ef19c4)">
     <use style="fill:#1f77b4;stroke:#1f77b4;" x="149.857364" xlink:href="#mef252a2786" y="82.544461"/>
     <use style="fill:#1f77b4;stroke:#1f77b4;" x="160.485545" xlink:href="#mef252a2786" y="83.174523"/>
     <use style="fill:#1f77b4;stroke:#1f77b4;" x="171.113727" xlink:href="#mef252a2786" y="83.264531"/>
     <use style="fill:#1f77b4;stroke:#1f77b4;" x="181.741909" xlink:href="#mef252a2786" y="83.264531"/>
     <use style="fill:#1f77b4;stroke:#1f77b4;" x="192.370091" xlink:href="#mef252a2786" y="83.174523"/>
     <use style="fill:#1f77b4;stroke:#1f77b4;" x="202.998273" xlink:href="#mef252a2786" y="83.264531"/>
     <use style="fill:#1f77b4;stroke:#1f77b4;" x="213.626455" xlink:href="#mef252a2786" y="83.174523"/>
     <use style="fill:#1f77b4;stroke:#1f77b4;" x="224.254636" xlink:href="#mef252a2786" y="83.264531"/>
     <use style="fill:#1f77b4;stroke:#1f77b4;" x="234.882818" xlink:href="#mef252a2786" y="83.174523"/>
     <use style="fill:#1f77b4;stroke:#1f77b4;" x="245.511" xlink:href="#mef252a2786" y="83.174523"/>
     <use style="fill:#1f77b4;stroke:#1f77b4;" x="256.139182" xlink:href="#mef252a2786" y="83.264531"/>
     <use style="fill:#1f77b4;stroke:#1f77b4;" x="266.767364" xlink:href="#mef252a2786" y="83.174523"/>
     <use style="fill:#1f77b4;stroke:#1f77b4;" x="277.395545" xlink:href="#mef252a2786" y="83.264531"/>
     <use style="fill:#1f77b4;stroke:#1f77b4;" x="288.023727" xlink:href="#mef252a2786" y="83.174523"/>
     <use style="fill:#1f77b4;stroke:#1f77b4;" x="298.651909" xlink:href="#mef252a2786" y="83.264531"/>
     <use style="fill:#1f77b4;stroke:#1f77b4;" x="309.280091" xlink:href="#mef252a2786" y="83.264531"/>
     <use style="fill:#1f77b4;stroke:#1f77b4;" x="319.908273" xlink:href="#mef252a2786" y="83.174523"/>
     <use style="fill:#1f77b4;stroke:#1f77b4;" x="330.536455" xlink:href="#mef252a2786" y="83.174523"/>
     <use style="fill:#1f77b4;stroke:#1f77b4;" x="341.164636" xlink:href="#mef252a2786" y="83.174523"/>
     <use style="fill:#1f77b4;stroke:#1f77b4;" x="351.792818" xlink:href="#mef252a2786" y="83.174523"/>
     <use style="fill:#1f77b4;stroke:#1f77b4;" x="362.421" xlink:href="#mef252a2786" y="83.174523"/>
     <use style="fill:#1f77b4;stroke:#1f77b4;" x="373.049182" xlink:href="#mef252a2786" y="83.264531"/>
     <use style="fill:#1f77b4;stroke:#1f77b4;" x="383.677364" xlink:href="#mef252a2786" y="83.264531"/>
     <use style="fill:#1f77b4;stroke:#1f77b4;" x="394.305545" xlink:href="#mef252a2786" y="83.264531"/>
     <use style="fill:#1f77b4;stroke:#1f77b4;" x="404.933727" xlink:href="#mef252a2786" y="83.174523"/>
     <use style="fill:#1f77b4;stroke:#1f77b4;" x="415.561909" xlink:href="#mef252a2786" y="83.174523"/>
     <use style="fill:#1f77b4;stroke:#1f77b4;" x="426.190091" xlink:href="#mef252a2786" y="83.174523"/>
     <use style="fill:#1f77b4;stroke:#1f77b4;" x="436.818273" xlink:href="#mef252a2786" y="83.174523"/>
     <use style="fill:#1f77b4;stroke:#1f77b4;" x="447.446455" xlink:href="#mef252a2786" y="83.174523"/>
     <use style="fill:#1f77b4;stroke:#1f77b4;" x="458.074636" xlink:href="#mef252a2786" y="82.004409"/>
     <use style="fill:#1f77b4;stroke:#1f77b4;" x="468.702818" xlink:href="#mef252a2786" y="83.084514"/>
     <use style="fill:#1f77b4;stroke:#1f77b4;" x="479.331" xlink:href="#mef252a2786" y="83.174523"/>
     <use style="fill:#1f77b4;stroke:#1f77b4;" x="489.959182" xlink:href="#mef252a2786" y="82.004409"/>
     <use style="fill:#1f77b4;stroke:#1f77b4;" x="500.587364" xlink:href="#mef252a2786" y="83.174523"/>
     <use style="fill:#1f77b4;stroke:#1f77b4;" x="511.215545" xlink:href="#mef252a2786" y="83.084514"/>
     <use style="fill:#1f77b4;stroke:#1f77b4;" x="521.843727" xlink:href="#mef252a2786" y="81.9144"/>
     <use style="fill:#1f77b4;stroke:#1f77b4;" x="532.471909" xlink:href="#mef252a2786" y="83.174523"/>
     <use style="fill:#1f77b4;stroke:#1f77b4;" x="543.100091" xlink:href="#mef252a2786" y="82.904496"/>
     <use style="fill:#1f77b4;stroke:#1f77b4;" x="553.728273" xlink:href="#mef252a2786" y="83.174523"/>
     <use style="fill:#1f77b4;stroke:#1f77b4;" x="564.356455" xlink:href="#mef252a2786" y="83.174523"/>
     <use style="fill:#1f77b4;stroke:#1f77b4;" x="574.984636" xlink:href="#mef252a2786" y="83.174523"/>
     <use style="fill:#1f77b4;stroke:#1f77b4;" x="585.612818" xlink:href="#mef252a2786" y="83.174523"/>
     <use style="fill:#1f77b4;stroke:#1f77b4;" x="596.241" xlink:href="#mef252a2786" y="83.084514"/>
     <use style="fill:#1f77b4;stroke:#1f77b4;" x="606.869182" xlink:href="#mef252a2786" y="83.084514"/>
     <use style="fill:#1f77b4;stroke:#1f77b4;" x="617.497364" xlink:href="#mef252a2786" y="83.174523"/>
     <use style="fill:#1f77b4;stroke:#1f77b4;" x="628.125545" xlink:href="#mef252a2786" y="83.174523"/>
     <use style="fill:#1f77b4;stroke:#1f77b4;" x="638.753727" xlink:href="#mef252a2786" y="83.174523"/>
     <use style="fill:#1f77b4;stroke:#1f77b4;" x="649.381909" xlink:href="#mef252a2786" y="83.174523"/>
     <use style="fill:#1f77b4;stroke:#1f77b4;" x="660.010091" xlink:href="#mef252a2786" y="83.174523"/>
     <use style="fill:#1f77b4;stroke:#1f77b4;" x="670.638273" xlink:href="#mef252a2786" y="83.174523"/>
     <use style="fill:#1f77b4;stroke:#1f77b4;" x="681.266455" xlink:href="#mef252a2786" y="83.084514"/>
     <use style="fill:#1f77b4;stroke:#1f77b4;" x="691.894636" xlink:href="#mef252a2786" y="83.174523"/>
     <use style="fill:#1f77b4;stroke:#1f77b4;" x="702.522818" xlink:href="#mef252a2786" y="83.084514"/>
     <use style="fill:#1f77b4;stroke:#1f77b4;" x="713.151" xlink:href="#mef252a2786" y="83.084514"/>
     <use style="fill:#1f77b4;stroke:#1f77b4;" x="723.779182" xlink:href="#mef252a2786" y="83.174523"/>
     <use style="fill:#1f77b4;stroke:#1f77b4;" x="734.407364" xlink:href="#mef252a2786" y="83.174523"/>
     <use style="fill:#1f77b4;stroke:#1f77b4;" x="745.035545" xlink:href="#mef252a2786" y="83.174523"/>
     <use style="fill:#1f77b4;stroke:#1f77b4;" x="755.663727" xlink:href="#mef252a2786" y="83.174523"/>
     <use style="fill:#1f77b4;stroke:#1f77b4;" x="766.291909" xlink:href="#mef252a2786" y="83.084514"/>
     <use style="fill:#1f77b4;stroke:#1f77b4;" x="776.920091" xlink:href="#mef252a2786" y="83.174523"/>
     <use style="fill:#1f77b4;stroke:#1f77b4;" x="787.548273" xlink:href="#mef252a2786" y="83.174523"/>
     <use style="fill:#1f77b4;stroke:#1f77b4;" x="798.176455" xlink:href="#mef252a2786" y="83.084514"/>
     <use style="fill:#1f77b4;stroke:#1f77b4;" x="808.804636" xlink:href="#mef252a2786" y="83.174523"/>
    </g>
   </g>
   <g id="line2d_26">
    <path clip-path="url(#pd025ef19c4)" d="M 149.857364 83.264531 
L 160.485545 83.174523 
L 171.113727 83.264531 
L 181.741909 83.174523 
L 192.370091 83.174523 
L 202.998273 83.264531 
L 213.626455 83.174523 
L 224.254636 83.174523 
L 234.882818 83.264531 
L 245.511 83.174523 
L 256.139182 83.264531 
L 266.767364 83.264531 
L 277.395545 83.264531 
L 288.023727 83.174523 
L 298.651909 83.264531 
L 309.280091 83.174523 
L 319.908273 83.264531 
L 330.536455 83.264531 
L 341.164636 83.174523 
L 351.792818 83.174523 
L 362.421 83.174523 
L 373.049182 83.174523 
L 383.677364 83.264531 
L 394.305545 83.174523 
L 404.933727 83.264531 
L 415.561909 83.174523 
L 426.190091 83.174523 
L 436.818273 83.174523 
L 447.446455 83.264531 
L 458.074636 83.264531 
L 468.702818 83.264531 
L 479.331 83.174523 
L 489.959182 83.174523 
L 500.587364 83.084514 
L 511.215545 83.174523 
L 521.843727 83.174523 
L 532.471909 83.174523 
L 543.100091 83.264531 
L 553.728273 83.174523 
L 564.356455 83.174523 
L 574.984636 83.174523 
L 585.612818 83.174523 
L 596.241 83.174523 
L 606.869182 83.084514 
L 617.497364 83.174523 
L 628.125545 83.174523 
L 638.753727 83.174523 
L 649.381909 83.174523 
L 660.010091 83.084514 
L 670.638273 83.174523 
L 681.266455 83.174523 
L 691.894636 83.174523 
L 702.522818 83.174523 
L 713.151 83.084514 
L 723.779182 83.174523 
L 734.407364 83.174523 
L 745.035545 83.174523 
L 755.663727 83.174523 
L 766.291909 83.174523 
L 776.920091 83.174523 
L 787.548273 83.174523 
L 798.176455 83.174523 
L 808.804636 83.174523 
" style="fill:none;stroke:#ff7f0e;stroke-linecap:round;stroke-width:1.2;"/>
    <defs>
     <path d="M 0 1.5 
C 0.397805 1.5 0.77937 1.341951 1.06066 1.06066 
C 1.341951 0.77937 1.5 0.397805 1.5 0 
C 1.5 -0.397805 1.341951 -0.77937 1.06066 -1.06066 
C 0.77937 -1.341951 0.397805 -1.5 0 -1.5 
C -0.397805 -1.5 -0.77937 -1.341951 -1.06066 -1.06066 
C -1.341951 -0.77937 -1.5 -0.397805 -1.5 0 
C -1.5 0.397805 -1.341951 0.77937 -1.06066 1.06066 
C -0.77937 1.341951 -0.397805 1.5 0 1.5 
z
" id="mb7b799d7d7" style="stroke:#ff7f0e;"/>
    </defs>
    <g clip-path="url(#pd025ef19c4)">
     <use style="fill:#ff7f0e;stroke:#ff7f0e;" x="149.857364" xlink:href="#mb7b799d7d7" y="83.264531"/>
     <use style="fill:#ff7f0e;stroke:#ff7f0e;" x="160.485545" xlink:href="#mb7b799d7d7" y="83.174523"/>
     <use style="fill:#ff7f0e;stroke:#ff7f0e;" x="171.113727" xlink:href="#mb7b799d7d7" y="83.264531"/>
     <use style="fill:#ff7f0e;stroke:#ff7f0e;" x="181.741909" xlink:href="#mb7b799d7d7" y="83.174523"/>
     <use style="fill:#ff7f0e;stroke:#ff7f0e;" x="192.370091" xlink:href="#mb7b799d7d7" y="83.174523"/>
     <use style="fill:#ff7f0e;stroke:#ff7f0e;" x="202.998273" xlink:href="#mb7b799d7d7" y="83.264531"/>
     <use style="fill:#ff7f0e;stroke:#ff7f0e;" x="213.626455" xlink:href="#mb7b799d7d7" y="83.174523"/>
     <use style="fill:#ff7f0e;stroke:#ff7f0e;" x="224.254636" xlink:href="#mb7b799d7d7" y="83.174523"/>
     <use style="fill:#ff7f0e;stroke:#ff7f0e;" x="234.882818" xlink:href="#mb7b799d7d7" y="83.264531"/>
     <use style="fill:#ff7f0e;stroke:#ff7f0e;" x="245.511" xlink:href="#mb7b799d7d7" y="83.174523"/>
     <use style="fill:#ff7f0e;stroke:#ff7f0e;" x="256.139182" xlink:href="#mb7b799d7d7" y="83.264531"/>
     <use style="fill:#ff7f0e;stroke:#ff7f0e;" x="266.767364" xlink:href="#mb7b799d7d7" y="83.264531"/>
     <use style="fill:#ff7f0e;stroke:#ff7f0e;" x="277.395545" xlink:href="#mb7b799d7d7" y="83.264531"/>
     <use style="fill:#ff7f0e;stroke:#ff7f0e;" x="288.023727" xlink:href="#mb7b799d7d7" y="83.174523"/>
     <use style="fill:#ff7f0e;stroke:#ff7f0e;" x="298.651909" xlink:href="#mb7b799d7d7" y="83.264531"/>
     <use style="fill:#ff7f0e;stroke:#ff7f0e;" x="309.280091" xlink:href="#mb7b799d7d7" y="83.174523"/>
     <use style="fill:#ff7f0e;stroke:#ff7f0e;" x="319.908273" xlink:href="#mb7b799d7d7" y="83.264531"/>
     <use style="fill:#ff7f0e;stroke:#ff7f0e;" x="330.536455" xlink:href="#mb7b799d7d7" y="83.264531"/>
     <use style="fill:#ff7f0e;stroke:#ff7f0e;" x="341.164636" xlink:href="#mb7b799d7d7" y="83.174523"/>
     <use style="fill:#ff7f0e;stroke:#ff7f0e;" x="351.792818" xlink:href="#mb7b799d7d7" y="83.174523"/>
     <use style="fill:#ff7f0e;stroke:#ff7f0e;" x="362.421" xlink:href="#mb7b799d7d7" y="83.174523"/>
     <use style="fill:#ff7f0e;stroke:#ff7f0e;" x="373.049182" xlink:href="#mb7b799d7d7" y="83.174523"/>
     <use style="fill:#ff7f0e;stroke:#ff7f0e;" x="383.677364" xlink:href="#mb7b799d7d7" y="83.264531"/>
     <use style="fill:#ff7f0e;stroke:#ff7f0e;" x="394.305545" xlink:href="#mb7b799d7d7" y="83.174523"/>
     <use style="fill:#ff7f0e;stroke:#ff7f0e;" x="404.933727" xlink:href="#mb7b799d7d7" y="83.264531"/>
     <use style="fill:#ff7f0e;stroke:#ff7f0e;" x="415.561909" xlink:href="#mb7b799d7d7" y="83.174523"/>
     <use style="fill:#ff7f0e;stroke:#ff7f0e;" x="426.190091" xlink:href="#mb7b799d7d7" y="83.174523"/>
     <use style="fill:#ff7f0e;stroke:#ff7f0e;" x="436.818273" xlink:href="#mb7b799d7d7" y="83.174523"/>
     <use style="fill:#ff7f0e;stroke:#ff7f0e;" x="447.446455" xlink:href="#mb7b799d7d7" y="83.264531"/>
     <use style="fill:#ff7f0e;stroke:#ff7f0e;" x="458.074636" xlink:href="#mb7b799d7d7" y="83.264531"/>
     <use style="fill:#ff7f0e;stroke:#ff7f0e;" x="468.702818" xlink:href="#mb7b799d7d7" y="83.264531"/>
     <use style="fill:#ff7f0e;stroke:#ff7f0e;" x="479.331" xlink:href="#mb7b799d7d7" y="83.174523"/>
     <use style="fill:#ff7f0e;stroke:#ff7f0e;" x="489.959182" xlink:href="#mb7b799d7d7" y="83.174523"/>
     <use style="fill:#ff7f0e;stroke:#ff7f0e;" x="500.587364" xlink:href="#mb7b799d7d7" y="83.084514"/>
     <use style="fill:#ff7f0e;stroke:#ff7f0e;" x="511.215545" xlink:href="#mb7b799d7d7" y="83.174523"/>
     <use style="fill:#ff7f0e;stroke:#ff7f0e;" x="521.843727" xlink:href="#mb7b799d7d7" y="83.174523"/>
     <use style="fill:#ff7f0e;stroke:#ff7f0e;" x="532.471909" xlink:href="#mb7b799d7d7" y="83.174523"/>
     <use style="fill:#ff7f0e;stroke:#ff7f0e;" x="543.100091" xlink:href="#mb7b799d7d7" y="83.264531"/>
     <use style="fill:#ff7f0e;stroke:#ff7f0e;" x="553.728273" xlink:href="#mb7b799d7d7" y="83.174523"/>
     <use style="fill:#ff7f0e;stroke:#ff7f0e;" x="564.356455" xlink:href="#mb7b799d7d7" y="83.174523"/>
     <use style="fill:#ff7f0e;stroke:#ff7f0e;" x="574.984636" xlink:href="#mb7b799d7d7" y="83.174523"/>
     <use style="fill:#ff7f0e;stroke:#ff7f0e;" x="585.612818" xlink:href="#mb7b799d7d7" y="83.174523"/>
     <use style="fill:#ff7f0e;stroke:#ff7f0e;" x="596.241" xlink:href="#mb7b799d7d7" y="83.174523"/>
     <use style="fill:#ff7f0e;stroke:#ff7f0e;" x="606.869182" xlink:href="#mb7b799d7d7" y="83.084514"/>
     <use style="fill:#ff7f0e;stroke:#ff7f0e;" x="617.497364" xlink:href="#mb7b799d7d7" y="83.174523"/>
     <use style="fill:#ff7f0e;stroke:#ff7f0e;" x="628.125545" xlink:href="#mb7b799d7d7" y="83.174523"/>
     <use style="fill:#ff7f0e;stroke:#ff7f0e;" x="638.753727" xlink:href="#mb7b799d7d7" y="83.174523"/>
     <use style="fill:#ff7f0e;stroke:#ff7f0e;" x="649.381909" xlink:href="#mb7b799d7d7" y="83.174523"/>
     <use style="fill:#ff7f0e;stroke:#ff7f0e;" x="660.010091" xlink:href="#mb7b799d7d7" y="83.084514"/>
     <use style="fill:#ff7f0e;stroke:#ff7f0e;" x="670.638273" xlink:href="#mb7b799d7d7" y="83.174523"/>
     <use style="fill:#ff7f0e;stroke:#ff7f0e;" x="681.266455" xlink:href="#mb7b799d7d7" y="83.174523"/>
     <use style="fill:#ff7f0e;stroke:#ff7f0e;" x="691.894636" xlink:href="#mb7b799d7d7" y="83.174523"/>
     <use style="fill:#ff7f0e;stroke:#ff7f0e;" x="702.522818" xlink:href="#mb7b799d7d7" y="83.174523"/>
     <use style="fill:#ff7f0e;stroke:#ff7f0e;" x="713.151" xlink:href="#mb7b799d7d7" y="83.084514"/>
     <use style="fill:#ff7f0e;stroke:#ff7f0e;" x="723.779182" xlink:href="#mb7b799d7d7" y="83.174523"/>
     <use style="fill:#ff7f0e;stroke:#ff7f0e;" x="734.407364" xlink:href="#mb7b799d7d7" y="83.174523"/>
     <use style="fill:#ff7f0e;stroke:#ff7f0e;" x="745.035545" xlink:href="#mb7b799d7d7" y="83.174523"/>
     <use style="fill:#ff7f0e;stroke:#ff7f0e;" x="755.663727" xlink:href="#mb7b799d7d7" y="83.174523"/>
     <use style="fill:#ff7f0e;stroke:#ff7f0e;" x="766.291909" xlink:href="#mb7b799d7d7" y="83.174523"/>
     <use style="fill:#ff7f0e;stroke:#ff7f0e;" x="776.920091" xlink:href="#mb7b799d7d7" y="83.174523"/>
     <use style="fill:#ff7f0e;stroke:#ff7f0e;" x="787.548273" xlink:href="#mb7b799d7d7" y="83.174523"/>
     <use style="fill:#ff7f0e;stroke:#ff7f0e;" x="798.176455" xlink:href="#mb7b799d7d7" y="83.174523"/>
     <use style="fill:#ff7f0e;stroke:#ff7f0e;" x="808.804636" xlink:href="#mb7b799d7d7" y="83.174523"/>
    </g>
   </g>
   <g id="line2d_27">
    <path clip-path="url(#pd025ef19c4)" d="M 149.857364 83.174523 
L 160.485545 271.652864 
L 171.113727 304.416053 
L 181.741909 337.089232 
L 192.370091 320.707638 
L 202.998273 255.181261 
L 213.626455 304.326044 
L 224.254636 337.089232 
L 234.882818 255.27127 
L 245.511 296.225255 
L 256.139182 320.707638 
L 266.767364 369.942429 
L 277.395545 288.034458 
L 288.023727 271.652864 
L 298.651909 328.898435 
L 309.280091 206.126488 
L 319.908273 287.94445 
L 330.536455 312.516841 
L 341.164636 304.416053 
L 351.792818 304.416053 
L 362.421 378.043218 
L 373.049182 287.94445 
L 383.677364 345.280029 
L 394.305545 255.27127 
L 404.933727 328.898435 
L 415.561909 296.225255 
L 426.190091 271.562855 
L 436.818273 271.652864 
L 447.446455 287.94445 
L 458.074636 386.324023 
L 468.702818 288.034458 
L 479.331 303.876 
L 489.959182 255.27127 
L 500.587364 304.416053 
L 511.215545 361.661623 
L 521.843727 369.672403 
L 532.471909 353.020782 
L 543.100091 345.280029 
L 553.728273 378.043218 
L 564.356455 369.942429 
L 574.984636 328.988444 
L 585.612818 279.843661 
L 596.241 304.416053 
L 606.869182 255.181261 
L 617.497364 263.372058 
L 628.125545 312.516841 
L 638.753727 328.988444 
L 649.381909 296.225255 
L 660.010091 312.60685 
L 670.638273 287.94445 
L 681.266455 246.990464 
L 691.894636 222.508082 
L 702.522818 271.652864 
L 713.151 173.363299 
L 723.779182 320.617629 
L 734.407364 320.52762 
L 745.035545 271.562855 
L 755.663727 279.843661 
L 766.291909 279.663644 
L 776.920091 344.649968 
L 787.548273 365.982044 
L 798.176455 328.898435 
L 808.804636 312.516841 
" style="fill:none;stroke:#2ca02c;stroke-linecap:round;stroke-width:1.2;"/>
    <defs>
     <path d="M 0 1.5 
C 0.397805 1.5 0.77937 1.341951 1.06066 1.06066 
C 1.341951 0.77937 1.5 0.397805 1.5 0 
C 1.5 -0.397805 1.341951 -0.77937 1.06066 -1.06066 
C 0.77937 -1.341951 0.397805 -1.5 0 -1.5 
C -0.397805 -1.5 -0.77937 -1.341951 -1.06066 -1.06066 
C -1.341951 -0.77937 -1.5 -0.397805 -1.5 0 
C -1.5 0.397805 -1.341951 0.77937 -1.06066 1.06066 
C -0.77937 1.341951 -0.397805 1.5 0 1.5 
z
" id="m289fffdfa4" style="stroke:#2ca02c;"/>
    </defs>
    <g clip-path="url(#pd025ef19c4)">
     <use style="fill:#2ca02c;stroke:#2ca02c;" x="149.857364" xlink:href="#m289fffdfa4" y="83.174523"/>
     <use style="fill:#2ca02c;stroke:#2ca02c;" x="160.485545" xlink:href="#m289fffdfa4" y="271.652864"/>
     <use style="fill:#2ca02c;stroke:#2ca02c;" x="171.113727" xlink:href="#m289fffdfa4" y="304.416053"/>
     <use style="fill:#2ca02c;stroke:#2ca02c;" x="181.741909" xlink:href="#m289fffdfa4" y="337.089232"/>
     <use style="fill:#2ca02c;stroke:#2ca02c;" x="192.370091" xlink:href="#m289fffdfa4" y="320.707638"/>
     <use style="fill:#2ca02c;stroke:#2ca02c;" x="202.998273" xlink:href="#m289fffdfa4" y="255.181261"/>
     <use style="fill:#2ca02c;stroke:#2ca02c;" x="213.626455" xlink:href="#m289fffdfa4" y="304.326044"/>
     <use style="fill:#2ca02c;stroke:#2ca02c;" x="224.254636" xlink:href="#m289fffdfa4" y="337.089232"/>
     <use style="fill:#2ca02c;stroke:#2ca02c;" x="234.882818" xlink:href="#m289fffdfa4" y="255.27127"/>
     <use style="fill:#2ca02c;stroke:#2ca02c;" x="245.511" xlink:href="#m289fffdfa4" y="296.225255"/>
     <use style="fill:#2ca02c;stroke:#2ca02c;" x="256.139182" xlink:href="#m289fffdfa4" y="320.707638"/>
     <use style="fill:#2ca02c;stroke:#2ca02c;" x="266.767364" xlink:href="#m289fffdfa4" y="369.942429"/>
     <use style="fill:#2ca02c;stroke:#2ca02c;" x="277.395545" xlink:href="#m289fffdfa4" y="288.034458"/>
     <use style="fill:#2ca02c;stroke:#2ca02c;" x="288.023727" xlink:href="#m289fffdfa4" y="271.652864"/>
     <use style="fill:#2ca02c;stroke:#2ca02c;" x="298.651909" xlink:href="#m289fffdfa4" y="328.898435"/>
     <use style="fill:#2ca02c;stroke:#2ca02c;" x="309.280091" xlink:href="#m289fffdfa4" y="206.126488"/>
     <use style="fill:#2ca02c;stroke:#2ca02c;" x="319.908273" xlink:href="#m289fffdfa4" y="287.94445"/>
     <use style="fill:#2ca02c;stroke:#2ca02c;" x="330.536455" xlink:href="#m289fffdfa4" y="312.516841"/>
     <use style="fill:#2ca02c;stroke:#2ca02c;" x="341.164636" xlink:href="#m289fffdfa4" y="304.416053"/>
     <use style="fill:#2ca02c;stroke:#2ca02c;" x="351.792818" xlink:href="#m289fffdfa4" y="304.416053"/>
     <use style="fill:#2ca02c;stroke:#2ca02c;" x="362.421" xlink:href="#m289fffdfa4" y="378.043218"/>
     <use style="fill:#2ca02c;stroke:#2ca02c;" x="373.049182" xlink:href="#m289fffdfa4" y="287.94445"/>
     <use style="fill:#2ca02c;stroke:#2ca02c;" x="383.677364" xlink:href="#m289fffdfa4" y="345.280029"/>
     <use style="fill:#2ca02c;stroke:#2ca02c;" x="394.305545" xlink:href="#m289fffdfa4" y="255.27127"/>
     <use style="fill:#2ca02c;stroke:#2ca02c;" x="404.933727" xlink:href="#m289fffdfa4" y="328.898435"/>
     <use style="fill:#2ca02c;stroke:#2ca02c;" x="415.561909" xlink:href="#m289fffdfa4" y="296.225255"/>
     <use style="fill:#2ca02c;stroke:#2ca02c;" x="426.190091" xlink:href="#m289fffdfa4" y="271.562855"/>
     <use style="fill:#2ca02c;stroke:#2ca02c;" x="436.818273" xlink:href="#m289fffdfa4" y="271.652864"/>
     <use style="fill:#2ca02c;stroke:#2ca02c;" x="447.446455" xlink:href="#m289fffdfa4" y="287.94445"/>
     <use style="fill:#2ca02c;stroke:#2ca02c;" x="458.074636" xlink:href="#m289fffdfa4" y="386.324023"/>
     <use style="fill:#2ca02c;stroke:#2ca02c;" x="468.702818" xlink:href="#m289fffdfa4" y="288.034458"/>
     <use style="fill:#2ca02c;stroke:#2ca02c;" x="479.331" xlink:href="#m289fffdfa4" y="303.876"/>
     <use style="fill:#2ca02c;stroke:#2ca02c;" x="489.959182" xlink:href="#m289fffdfa4" y="255.27127"/>
     <use style="fill:#2ca02c;stroke:#2ca02c;" x="500.587364" xlink:href="#m289fffdfa4" y="304.416053"/>
     <use style="fill:#2ca02c;stroke:#2ca02c;" x="511.215545" xlink:href="#m289fffdfa4" y="361.661623"/>
     <use style="fill:#2ca02c;stroke:#2ca02c;" x="521.843727" xlink:href="#m289fffdfa4" y="369.672403"/>
     <use style="fill:#2ca02c;stroke:#2ca02c;" x="532.471909" xlink:href="#m289fffdfa4" y="353.020782"/>
     <use style="fill:#2ca02c;stroke:#2ca02c;" x="543.100091" xlink:href="#m289fffdfa4" y="345.280029"/>
     <use style="fill:#2ca02c;stroke:#2ca02c;" x="553.728273" xlink:href="#m289fffdfa4" y="378.043218"/>
     <use style="fill:#2ca02c;stroke:#2ca02c;" x="564.356455" xlink:href="#m289fffdfa4" y="369.942429"/>
     <use style="fill:#2ca02c;stroke:#2ca02c;" x="574.984636" xlink:href="#m289fffdfa4" y="328.988444"/>
     <use style="fill:#2ca02c;stroke:#2ca02c;" x="585.612818" xlink:href="#m289fffdfa4" y="279.843661"/>
     <use style="fill:#2ca02c;stroke:#2ca02c;" x="596.241" xlink:href="#m289fffdfa4" y="304.416053"/>
     <use style="fill:#2ca02c;stroke:#2ca02c;" x="606.869182" xlink:href="#m289fffdfa4" y="255.181261"/>
     <use style="fill:#2ca02c;stroke:#2ca02c;" x="617.497364" xlink:href="#m289fffdfa4" y="263.372058"/>
     <use style="fill:#2ca02c;stroke:#2ca02c;" x="628.125545" xlink:href="#m289fffdfa4" y="312.516841"/>
     <use style="fill:#2ca02c;stroke:#2ca02c;" x="638.753727" xlink:href="#m289fffdfa4" y="328.988444"/>
     <use style="fill:#2ca02c;stroke:#2ca02c;" x="649.381909" xlink:href="#m289fffdfa4" y="296.225255"/>
     <use style="fill:#2ca02c;stroke:#2ca02c;" x="660.010091" xlink:href="#m289fffdfa4" y="312.60685"/>
     <use style="fill:#2ca02c;stroke:#2ca02c;" x="670.638273" xlink:href="#m289fffdfa4" y="287.94445"/>
     <use style="fill:#2ca02c;stroke:#2ca02c;" x="681.266455" xlink:href="#m289fffdfa4" y="246.990464"/>
     <use style="fill:#2ca02c;stroke:#2ca02c;" x="691.894636" xlink:href="#m289fffdfa4" y="222.508082"/>
     <use style="fill:#2ca02c;stroke:#2ca02c;" x="702.522818" xlink:href="#m289fffdfa4" y="271.652864"/>
     <use style="fill:#2ca02c;stroke:#2ca02c;" x="713.151" xlink:href="#m289fffdfa4" y="173.363299"/>
     <use style="fill:#2ca02c;stroke:#2ca02c;" x="723.779182" xlink:href="#m289fffdfa4" y="320.617629"/>
     <use style="fill:#2ca02c;stroke:#2ca02c;" x="734.407364" xlink:href="#m289fffdfa4" y="320.52762"/>
     <use style="fill:#2ca02c;stroke:#2ca02c;" x="745.035545" xlink:href="#m289fffdfa4" y="271.562855"/>
     <use style="fill:#2ca02c;stroke:#2ca02c;" x="755.663727" xlink:href="#m289fffdfa4" y="279.843661"/>
     <use style="fill:#2ca02c;stroke:#2ca02c;" x="766.291909" xlink:href="#m289fffdfa4" y="279.663644"/>
     <use style="fill:#2ca02c;stroke:#2ca02c;" x="776.920091" xlink:href="#m289fffdfa4" y="344.649968"/>
     <use style="fill:#2ca02c;stroke:#2ca02c;" x="787.548273" xlink:href="#m289fffdfa4" y="365.982044"/>
     <use style="fill:#2ca02c;stroke:#2ca02c;" x="798.176455" xlink:href="#m289fffdfa4" y="328.898435"/>
     <use style="fill:#2ca02c;stroke:#2ca02c;" x="808.804636" xlink:href="#m289fffdfa4" y="312.516841"/>
    </g>
   </g>
   <g id="line2d_28">
    <path clip-path="url(#pd025ef19c4)" d="M 149.857364 83.174523 
L 160.485545 288.034458 
L 171.113727 378.043218 
L 181.741909 320.707638 
L 192.370091 296.135247 
L 202.998273 222.508082 
L 213.626455 296.225255 
L 224.254636 312.516841 
L 234.882818 320.797647 
L 245.511 181.464088 
L 256.139182 337.179241 
L 266.767364 255.181261 
L 277.395545 337.089232 
L 288.023727 238.799667 
L 298.651909 255.27127 
L 309.280091 304.416053 
L 319.908273 238.889676 
L 330.536455 337.179241 
L 341.164636 279.753653 
L 351.792818 304.416053 
L 362.421 337.089232 
L 373.049182 386.234015 
L 383.677364 230.698879 
L 394.305545 345.280029 
L 404.933727 402.705618 
L 415.561909 328.988444 
L 426.190091 197.935691 
L 436.818273 230.698879 
L 447.446455 361.751632 
L 458.074636 320.707638 
L 468.702818 312.516841 
L 479.331 353.470826 
L 489.959182 271.562855 
L 500.587364 402.705618 
L 511.215545 279.753653 
L 521.843727 386.234015 
L 532.471909 287.94445 
L 543.100091 328.988444 
L 553.728273 271.652864 
L 564.356455 345.280029 
L 574.984636 328.898435 
L 585.612818 328.898435 
L 596.241 337.089232 
L 606.869182 165.082493 
L 617.497364 328.898435 
L 628.125545 345.370038 
L 638.753727 271.562855 
L 649.381909 238.799667 
L 660.010091 345.19002 
L 670.638273 279.753653 
L 681.266455 271.652864 
L 691.894636 271.562855 
L 702.522818 349.240415 
L 713.151 279.753653 
L 723.779182 279.753653 
L 734.407364 361.661623 
L 745.035545 304.236035 
L 755.663727 353.470826 
L 766.291909 189.654885 
L 776.920091 165.082493 
L 787.548273 353.470826 
L 798.176455 279.753653 
L 808.804636 287.94445 
" style="fill:none;stroke:#d62728;stroke-linecap:round;stroke-width:1.2;"/>
    <defs>
     <path d="M 0 1.5 
C 0.397805 1.5 0.77937 1.341951 1.06066 1.06066 
C 1.341951 0.77937 1.5 0.397805 1.5 0 
C 1.5 -0.397805 1.341951 -0.77937 1.06066 -1.06066 
C 0.77937 -1.341951 0.397805 -1.5 0 -1.5 
C -0.397805 -1.5 -0.77937 -1.341951 -1.06066 -1.06066 
C -1.341951 -0.77937 -1.5 -0.397805 -1.5 0 
C -1.5 0.397805 -1.341951 0.77937 -1.06066 1.06066 
C -0.77937 1.341951 -0.397805 1.5 0 1.5 
z
" id="m79bddc06b3" style="stroke:#d62728;"/>
    </defs>
    <g clip-path="url(#pd025ef19c4)">
     <use style="fill:#d62728;stroke:#d62728;" x="149.857364" xlink:href="#m79bddc06b3" y="83.174523"/>
     <use style="fill:#d62728;stroke:#d62728;" x="160.485545" xlink:href="#m79bddc06b3" y="288.034458"/>
     <use style="fill:#d62728;stroke:#d62728;" x="171.113727" xlink:href="#m79bddc06b3" y="378.043218"/>
     <use style="fill:#d62728;stroke:#d62728;" x="181.741909" xlink:href="#m79bddc06b3" y="320.707638"/>
     <use style="fill:#d62728;stroke:#d62728;" x="192.370091" xlink:href="#m79bddc06b3" y="296.135247"/>
     <use style="fill:#d62728;stroke:#d62728;" x="202.998273" xlink:href="#m79bddc06b3" y="222.508082"/>
     <use style="fill:#d62728;stroke:#d62728;" x="213.626455" xlink:href="#m79bddc06b3" y="296.225255"/>
     <use style="fill:#d62728;stroke:#d62728;" x="224.254636" xlink:href="#m79bddc06b3" y="312.516841"/>
     <use style="fill:#d62728;stroke:#d62728;" x="234.882818" xlink:href="#m79bddc06b3" y="320.797647"/>
     <use style="fill:#d62728;stroke:#d62728;" x="245.511" xlink:href="#m79bddc06b3" y="181.464088"/>
     <use style="fill:#d62728;stroke:#d62728;" x="256.139182" xlink:href="#m79bddc06b3" y="337.179241"/>
     <use style="fill:#d62728;stroke:#d62728;" x="266.767364" xlink:href="#m79bddc06b3" y="255.181261"/>
     <use style="fill:#d62728;stroke:#d62728;" x="277.395545" xlink:href="#m79bddc06b3" y="337.089232"/>
     <use style="fill:#d62728;stroke:#d62728;" x="288.023727" xlink:href="#m79bddc06b3" y="238.799667"/>
     <use style="fill:#d62728;stroke:#d62728;" x="298.651909" xlink:href="#m79bddc06b3" y="255.27127"/>
     <use style="fill:#d62728;stroke:#d62728;" x="309.280091" xlink:href="#m79bddc06b3" y="304.416053"/>
     <use style="fill:#d62728;stroke:#d62728;" x="319.908273" xlink:href="#m79bddc06b3" y="238.889676"/>
     <use style="fill:#d62728;stroke:#d62728;" x="330.536455" xlink:href="#m79bddc06b3" y="337.179241"/>
     <use style="fill:#d62728;stroke:#d62728;" x="341.164636" xlink:href="#m79bddc06b3" y="279.753653"/>
     <use style="fill:#d62728;stroke:#d62728;" x="351.792818" xlink:href="#m79bddc06b3" y="304.416053"/>
     <use style="fill:#d62728;stroke:#d62728;" x="362.421" xlink:href="#m79bddc06b3" y="337.089232"/>
     <use style="fill:#d62728;stroke:#d62728;" x="373.049182" xlink:href="#m79bddc06b3" y="386.234015"/>
     <use style="fill:#d62728;stroke:#d62728;" x="383.677364" xlink:href="#m79bddc06b3" y="230.698879"/>
     <use style="fill:#d62728;stroke:#d62728;" x="394.305545" xlink:href="#m79bddc06b3" y="345.280029"/>
     <use style="fill:#d62728;stroke:#d62728;" x="404.933727" xlink:href="#m79bddc06b3" y="402.705618"/>
     <use style="fill:#d62728;stroke:#d62728;" x="415.561909" xlink:href="#m79bddc06b3" y="328.988444"/>
     <use style="fill:#d62728;stroke:#d62728;" x="426.190091" xlink:href="#m79bddc06b3" y="197.935691"/>
     <use style="fill:#d62728;stroke:#d62728;" x="436.818273" xlink:href="#m79bddc06b3" y="230.698879"/>
     <use style="fill:#d62728;stroke:#d62728;" x="447.446455" xlink:href="#m79bddc06b3" y="361.751632"/>
     <use style="fill:#d62728;stroke:#d62728;" x="458.074636" xlink:href="#m79bddc06b3" y="320.707638"/>
     <use style="fill:#d62728;stroke:#d62728;" x="468.702818" xlink:href="#m79bddc06b3" y="312.516841"/>
     <use style="fill:#d62728;stroke:#d62728;" x="479.331" xlink:href="#m79bddc06b3" y="353.470826"/>
     <use style="fill:#d62728;stroke:#d62728;" x="489.959182" xlink:href="#m79bddc06b3" y="271.562855"/>
     <use style="fill:#d62728;stroke:#d62728;" x="500.587364" xlink:href="#m79bddc06b3" y="402.705618"/>
     <use style="fill:#d62728;stroke:#d62728;" x="511.215545" xlink:href="#m79bddc06b3" y="279.753653"/>
     <use style="fill:#d62728;stroke:#d62728;" x="521.843727" xlink:href="#m79bddc06b3" y="386.234015"/>
     <use style="fill:#d62728;stroke:#d62728;" x="532.471909" xlink:href="#m79bddc06b3" y="287.94445"/>
     <use style="fill:#d62728;stroke:#d62728;" x="543.100091" xlink:href="#m79bddc06b3" y="328.988444"/>
     <use style="fill:#d62728;stroke:#d62728;" x="553.728273" xlink:href="#m79bddc06b3" y="271.652864"/>
     <use style="fill:#d62728;stroke:#d62728;" x="564.356455" xlink:href="#m79bddc06b3" y="345.280029"/>
     <use style="fill:#d62728;stroke:#d62728;" x="574.984636" xlink:href="#m79bddc06b3" y="328.898435"/>
     <use style="fill:#d62728;stroke:#d62728;" x="585.612818" xlink:href="#m79bddc06b3" y="328.898435"/>
     <use style="fill:#d62728;stroke:#d62728;" x="596.241" xlink:href="#m79bddc06b3" y="337.089232"/>
     <use style="fill:#d62728;stroke:#d62728;" x="606.869182" xlink:href="#m79bddc06b3" y="165.082493"/>
     <use style="fill:#d62728;stroke:#d62728;" x="617.497364" xlink:href="#m79bddc06b3" y="328.898435"/>
     <use style="fill:#d62728;stroke:#d62728;" x="628.125545" xlink:href="#m79bddc06b3" y="345.370038"/>
     <use style="fill:#d62728;stroke:#d62728;" x="638.753727" xlink:href="#m79bddc06b3" y="271.562855"/>
     <use style="fill:#d62728;stroke:#d62728;" x="649.381909" xlink:href="#m79bddc06b3" y="238.799667"/>
     <use style="fill:#d62728;stroke:#d62728;" x="660.010091" xlink:href="#m79bddc06b3" y="345.19002"/>
     <use style="fill:#d62728;stroke:#d62728;" x="670.638273" xlink:href="#m79bddc06b3" y="279.753653"/>
     <use style="fill:#d62728;stroke:#d62728;" x="681.266455" xlink:href="#m79bddc06b3" y="271.652864"/>
     <use style="fill:#d62728;stroke:#d62728;" x="691.894636" xlink:href="#m79bddc06b3" y="271.562855"/>
     <use style="fill:#d62728;stroke:#d62728;" x="702.522818" xlink:href="#m79bddc06b3" y="349.240415"/>
     <use style="fill:#d62728;stroke:#d62728;" x="713.151" xlink:href="#m79bddc06b3" y="279.753653"/>
     <use style="fill:#d62728;stroke:#d62728;" x="723.779182" xlink:href="#m79bddc06b3" y="279.753653"/>
     <use style="fill:#d62728;stroke:#d62728;" x="734.407364" xlink:href="#m79bddc06b3" y="361.661623"/>
     <use style="fill:#d62728;stroke:#d62728;" x="745.035545" xlink:href="#m79bddc06b3" y="304.236035"/>
     <use style="fill:#d62728;stroke:#d62728;" x="755.663727" xlink:href="#m79bddc06b3" y="353.470826"/>
     <use style="fill:#d62728;stroke:#d62728;" x="766.291909" xlink:href="#m79bddc06b3" y="189.654885"/>
     <use style="fill:#d62728;stroke:#d62728;" x="776.920091" xlink:href="#m79bddc06b3" y="165.082493"/>
     <use style="fill:#d62728;stroke:#d62728;" x="787.548273" xlink:href="#m79bddc06b3" y="353.470826"/>
     <use style="fill:#d62728;stroke:#d62728;" x="798.176455" xlink:href="#m79bddc06b3" y="279.753653"/>
     <use style="fill:#d62728;stroke:#d62728;" x="808.804636" xlink:href="#m79bddc06b3" y="287.94445"/>
    </g>
   </g>
   <g id="line2d_29">
    <path clip-path="url(#pd025ef19c4)" d="M 149.857364 83.264531 
L 160.485545 304.416053 
L 171.113727 378.043218 
L 181.741909 410.806406 
L 192.370091 435.558815 
L 202.998273 445.369769 
L 213.626455 451.8504 
L 224.254636 451.760391 
L 234.882818 451.760391 
L 245.511 451.8504 
L 256.139182 451.8504 
L 266.767364 451.8504 
L 277.395545 451.8504 
L 288.023727 451.8504 
L 298.651909 451.8504 
L 309.280091 451.8504 
L 319.908273 451.8504 
L 330.536455 451.760391 
L 341.164636 451.760391 
L 351.792818 451.8504 
L 362.421 451.8504 
L 373.049182 451.760391 
L 383.677364 451.8504 
L 394.305545 451.8504 
L 404.933727 451.760391 
L 415.561909 451.8504 
L 426.190091 451.8504 
L 436.818273 451.8504 
L 447.446455 451.760391 
L 458.074636 451.760391 
L 468.702818 451.8504 
L 479.331 451.8504 
L 489.959182 451.8504 
L 500.587364 451.8504 
L 511.215545 451.8504 
L 521.843727 451.8504 
L 532.471909 451.8504 
L 543.100091 451.760391 
L 553.728273 451.8504 
L 564.356455 451.8504 
L 574.984636 451.8504 
L 585.612818 451.760391 
L 596.241 451.8504 
L 606.869182 451.760391 
L 617.497364 451.8504 
L 628.125545 451.760391 
L 638.753727 451.8504 
L 649.381909 451.760391 
L 660.010091 451.760391 
L 670.638273 451.8504 
L 681.266455 451.760391 
L 691.894636 451.8504 
L 702.522818 451.760391 
L 713.151 451.8504 
L 723.779182 451.760391 
L 734.407364 451.760391 
L 745.035545 451.8504 
L 755.663727 451.670382 
L 766.291909 451.760391 
L 776.920091 451.8504 
L 787.548273 451.8504 
L 798.176455 451.8504 
L 808.804636 451.8504 
" style="fill:none;stroke:#9467bd;stroke-linecap:round;stroke-width:1.2;"/>
    <defs>
     <path d="M 0 1.5 
C 0.397805 1.5 0.77937 1.341951 1.06066 1.06066 
C 1.341951 0.77937 1.5 0.397805 1.5 0 
C 1.5 -0.397805 1.341951 -0.77937 1.06066 -1.06066 
C 0.77937 -1.341951 0.397805 -1.5 0 -1.5 
C -0.397805 -1.5 -0.77937 -1.341951 -1.06066 -1.06066 
C -1.341951 -0.77937 -1.5 -0.397805 -1.5 0 
C -1.5 0.397805 -1.341951 0.77937 -1.06066 1.06066 
C -0.77937 1.341951 -0.397805 1.5 0 1.5 
z
" id="mab8caf524e" style="stroke:#9467bd;"/>
    </defs>
    <g clip-path="url(#pd025ef19c4)">
     <use style="fill:#9467bd;stroke:#9467bd;" x="149.857364" xlink:href="#mab8caf524e" y="83.264531"/>
     <use style="fill:#9467bd;stroke:#9467bd;" x="160.485545" xlink:href="#mab8caf524e" y="304.416053"/>
     <use style="fill:#9467bd;stroke:#9467bd;" x="171.113727" xlink:href="#mab8caf524e" y="378.043218"/>
     <use style="fill:#9467bd;stroke:#9467bd;" x="181.741909" xlink:href="#mab8caf524e" y="410.806406"/>
     <use style="fill:#9467bd;stroke:#9467bd;" x="192.370091" xlink:href="#mab8caf524e" y="435.558815"/>
     <use style="fill:#9467bd;stroke:#9467bd;" x="202.998273" xlink:href="#mab8caf524e" y="445.369769"/>
     <use style="fill:#9467bd;stroke:#9467bd;" x="213.626455" xlink:href="#mab8caf524e" y="451.8504"/>
     <use style="fill:#9467bd;stroke:#9467bd;" x="224.254636" xlink:href="#mab8caf524e" y="451.760391"/>
     <use style="fill:#9467bd;stroke:#9467bd;" x="234.882818" xlink:href="#mab8caf524e" y="451.760391"/>
     <use style="fill:#9467bd;stroke:#9467bd;" x="245.511" xlink:href="#mab8caf524e" y="451.8504"/>
     <use style="fill:#9467bd;stroke:#9467bd;" x="256.139182" xlink:href="#mab8caf524e" y="451.8504"/>
     <use style="fill:#9467bd;stroke:#9467bd;" x="266.767364" xlink:href="#mab8caf524e" y="451.8504"/>
     <use style="fill:#9467bd;stroke:#9467bd;" x="277.395545" xlink:href="#mab8caf524e" y="451.8504"/>
     <use style="fill:#9467bd;stroke:#9467bd;" x="288.023727" xlink:href="#mab8caf524e" y="451.8504"/>
     <use style="fill:#9467bd;stroke:#9467bd;" x="298.651909" xlink:href="#mab8caf524e" y="451.8504"/>
     <use style="fill:#9467bd;stroke:#9467bd;" x="309.280091" xlink:href="#mab8caf524e" y="451.8504"/>
     <use style="fill:#9467bd;stroke:#9467bd;" x="319.908273" xlink:href="#mab8caf524e" y="451.8504"/>
     <use style="fill:#9467bd;stroke:#9467bd;" x="330.536455" xlink:href="#mab8caf524e" y="451.760391"/>
     <use style="fill:#9467bd;stroke:#9467bd;" x="341.164636" xlink:href="#mab8caf524e" y="451.760391"/>
     <use style="fill:#9467bd;stroke:#9467bd;" x="351.792818" xlink:href="#mab8caf524e" y="451.8504"/>
     <use style="fill:#9467bd;stroke:#9467bd;" x="362.421" xlink:href="#mab8caf524e" y="451.8504"/>
     <use style="fill:#9467bd;stroke:#9467bd;" x="373.049182" xlink:href="#mab8caf524e" y="451.760391"/>
     <use style="fill:#9467bd;stroke:#9467bd;" x="383.677364" xlink:href="#mab8caf524e" y="451.8504"/>
     <use style="fill:#9467bd;stroke:#9467bd;" x="394.305545" xlink:href="#mab8caf524e" y="451.8504"/>
     <use style="fill:#9467bd;stroke:#9467bd;" x="404.933727" xlink:href="#mab8caf524e" y="451.760391"/>
     <use style="fill:#9467bd;stroke:#9467bd;" x="415.561909" xlink:href="#mab8caf524e" y="451.8504"/>
     <use style="fill:#9467bd;stroke:#9467bd;" x="426.190091" xlink:href="#mab8caf524e" y="451.8504"/>
     <use style="fill:#9467bd;stroke:#9467bd;" x="436.818273" xlink:href="#mab8caf524e" y="451.8504"/>
     <use style="fill:#9467bd;stroke:#9467bd;" x="447.446455" xlink:href="#mab8caf524e" y="451.760391"/>
     <use style="fill:#9467bd;stroke:#9467bd;" x="458.074636" xlink:href="#mab8caf524e" y="451.760391"/>
     <use style="fill:#9467bd;stroke:#9467bd;" x="468.702818" xlink:href="#mab8caf524e" y="451.8504"/>
     <use style="fill:#9467bd;stroke:#9467bd;" x="479.331" xlink:href="#mab8caf524e" y="451.8504"/>
     <use style="fill:#9467bd;stroke:#9467bd;" x="489.959182" xlink:href="#mab8caf524e" y="451.8504"/>
     <use style="fill:#9467bd;stroke:#9467bd;" x="500.587364" xlink:href="#mab8caf524e" y="451.8504"/>
     <use style="fill:#9467bd;stroke:#9467bd;" x="511.215545" xlink:href="#mab8caf524e" y="451.8504"/>
     <use style="fill:#9467bd;stroke:#9467bd;" x="521.843727" xlink:href="#mab8caf524e" y="451.8504"/>
     <use style="fill:#9467bd;stroke:#9467bd;" x="532.471909" xlink:href="#mab8caf524e" y="451.8504"/>
     <use style="fill:#9467bd;stroke:#9467bd;" x="543.100091" xlink:href="#mab8caf524e" y="451.760391"/>
     <use style="fill:#9467bd;stroke:#9467bd;" x="553.728273" xlink:href="#mab8caf524e" y="451.8504"/>
     <use style="fill:#9467bd;stroke:#9467bd;" x="564.356455" xlink:href="#mab8caf524e" y="451.8504"/>
     <use style="fill:#9467bd;stroke:#9467bd;" x="574.984636" xlink:href="#mab8caf524e" y="451.8504"/>
     <use style="fill:#9467bd;stroke:#9467bd;" x="585.612818" xlink:href="#mab8caf524e" y="451.760391"/>
     <use style="fill:#9467bd;stroke:#9467bd;" x="596.241" xlink:href="#mab8caf524e" y="451.8504"/>
     <use style="fill:#9467bd;stroke:#9467bd;" x="606.869182" xlink:href="#mab8caf524e" y="451.760391"/>
     <use style="fill:#9467bd;stroke:#9467bd;" x="617.497364" xlink:href="#mab8caf524e" y="451.8504"/>
     <use style="fill:#9467bd;stroke:#9467bd;" x="628.125545" xlink:href="#mab8caf524e" y="451.760391"/>
     <use style="fill:#9467bd;stroke:#9467bd;" x="638.753727" xlink:href="#mab8caf524e" y="451.8504"/>
     <use style="fill:#9467bd;stroke:#9467bd;" x="649.381909" xlink:href="#mab8caf524e" y="451.760391"/>
     <use style="fill:#9467bd;stroke:#9467bd;" x="660.010091" xlink:href="#mab8caf524e" y="451.760391"/>
     <use style="fill:#9467bd;stroke:#9467bd;" x="670.638273" xlink:href="#mab8caf524e" y="451.8504"/>
     <use style="fill:#9467bd;stroke:#9467bd;" x="681.266455" xlink:href="#mab8caf524e" y="451.760391"/>
     <use style="fill:#9467bd;stroke:#9467bd;" x="691.894636" xlink:href="#mab8caf524e" y="451.8504"/>
     <use style="fill:#9467bd;stroke:#9467bd;" x="702.522818" xlink:href="#mab8caf524e" y="451.760391"/>
     <use style="fill:#9467bd;stroke:#9467bd;" x="713.151" xlink:href="#mab8caf524e" y="451.8504"/>
     <use style="fill:#9467bd;stroke:#9467bd;" x="723.779182" xlink:href="#mab8caf524e" y="451.760391"/>
     <use style="fill:#9467bd;stroke:#9467bd;" x="734.407364" xlink:href="#mab8caf524e" y="451.760391"/>
     <use style="fill:#9467bd;stroke:#9467bd;" x="745.035545" xlink:href="#mab8caf524e" y="451.8504"/>
     <use style="fill:#9467bd;stroke:#9467bd;" x="755.663727" xlink:href="#mab8caf524e" y="451.670382"/>
     <use style="fill:#9467bd;stroke:#9467bd;" x="766.291909" xlink:href="#mab8caf524e" y="451.760391"/>
     <use style="fill:#9467bd;stroke:#9467bd;" x="776.920091" xlink:href="#mab8caf524e" y="451.8504"/>
     <use style="fill:#9467bd;stroke:#9467bd;" x="787.548273" xlink:href="#mab8caf524e" y="451.8504"/>
     <use style="fill:#9467bd;stroke:#9467bd;" x="798.176455" xlink:href="#mab8caf524e" y="451.8504"/>
     <use style="fill:#9467bd;stroke:#9467bd;" x="808.804636" xlink:href="#mab8caf524e" y="451.8504"/>
    </g>
   </g>
   <g id="line2d_30">
    <path clip-path="url(#pd025ef19c4)" d="M 181.741909 470.3472 
L 181.741909 63.4176 
" style="fill:none;stroke:#ff0000;stroke-dasharray:4.44,1.92;stroke-dashoffset:0;stroke-width:1.2;"/>
   </g>
   <g id="line2d_31">
    <path clip-path="url(#pd025ef19c4)" d="M 116.91 83.714575 
L 841.752 83.714575 
" style="fill:none;stroke:#0000ff;stroke-dasharray:4.44,1.92;stroke-dashoffset:0;stroke-width:1.2;"/>
   </g>
   <g id="patch_3">
    <path d="M 116.91 470.3472 
L 116.91 63.4176 
" style="fill:none;stroke:#cccccc;stroke-linecap:square;stroke-linejoin:miter;"/>
   </g>
   <g id="patch_4">
    <path d="M 841.752 470.3472 
L 841.752 63.4176 
" style="fill:none;stroke:#cccccc;stroke-linecap:square;stroke-linejoin:miter;"/>
   </g>
   <g id="patch_5">
    <path d="M 116.91 470.3472 
L 841.752 470.3472 
" style="fill:none;stroke:#cccccc;stroke-linecap:square;stroke-linejoin:miter;"/>
   </g>
   <g id="patch_6">
    <path d="M 116.91 63.4176 
L 841.752 63.4176 
" style="fill:none;stroke:#cccccc;stroke-linecap:square;stroke-linejoin:miter;"/>
   </g>
   <g id="text_15">
    <!-- Proc threads = 4 -->
    <defs>
     <path d="M 7.71875 0 
L 7.71875 71.578125 
L 34.71875 71.578125 
Q 41.84375 71.578125 45.609375 70.90625 
Q 50.875 70.015625 54.4375 67.546875 
Q 58.015625 65.09375 60.1875 60.640625 
Q 62.359375 56.203125 62.359375 50.875 
Q 62.359375 41.75 56.546875 35.421875 
Q 50.734375 29.109375 35.546875 29.109375 
L 17.1875 29.109375 
L 17.1875 0 
z
M 17.1875 37.546875 
L 35.6875 37.546875 
Q 44.875 37.546875 48.734375 40.96875 
Q 52.59375 44.390625 52.59375 50.59375 
Q 52.59375 55.078125 50.3125 58.265625 
Q 48.046875 61.46875 44.34375 62.5 
Q 41.9375 63.140625 35.5 63.140625 
L 17.1875 63.140625 
z
" id="ArialMT-80"/>
     <path d="M 52.828125 42.09375 
L 5.5625 42.09375 
L 5.5625 50.296875 
L 52.828125 50.296875 
z
M 52.828125 20.359375 
L 5.5625 20.359375 
L 5.5625 28.5625 
L 52.828125 28.5625 
z
" id="ArialMT-61"/>
    </defs>
    <g style="fill:#ff0000;" transform="translate(199.527903 -184.324202)rotate(-90)scale(0.1 -0.1)">
     <use xlink:href="#ArialMT-80"/>
     <use x="66.699219" xlink:href="#ArialMT-114"/>
     <use x="100" xlink:href="#ArialMT-111"/>
     <use x="155.615234" xlink:href="#ArialMT-99"/>
     <use x="205.615234" xlink:href="#ArialMT-32"/>
     <use x="233.398438" xlink:href="#ArialMT-116"/>
     <use x="261.181641" xlink:href="#ArialMT-104"/>
     <use x="316.796875" xlink:href="#ArialMT-114"/>
     <use x="350.097656" xlink:href="#ArialMT-101"/>
     <use x="405.712891" xlink:href="#ArialMT-97"/>
     <use x="461.328125" xlink:href="#ArialMT-100"/>
     <use x="516.943359" xlink:href="#ArialMT-115"/>
     <use x="566.943359" xlink:href="#ArialMT-32"/>
     <use x="594.726562" xlink:href="#ArialMT-61"/>
     <use x="653.125" xlink:href="#ArialMT-32"/>
     <use x="680.908203" xlink:href="#ArialMT-52"/>
    </g>
   </g>
   <g id="text_16">
    <!-- Total task run = 5 sec -->
    <defs>
     <path d="M 6.390625 0 
L 6.390625 71.578125 
L 15.1875 71.578125 
L 15.1875 0 
z
" id="ArialMT-108"/>
     <path d="M 6.640625 0 
L 6.640625 71.578125 
L 15.4375 71.578125 
L 15.4375 30.765625 
L 36.234375 51.859375 
L 47.609375 51.859375 
L 27.78125 32.625 
L 49.609375 0 
L 38.765625 0 
L 21.625 26.515625 
L 15.4375 20.5625 
L 15.4375 0 
z
" id="ArialMT-107"/>
    </defs>
    <g style="fill:#0000ff;" transform="translate(351.792818 101.716327)scale(0.1 -0.1)">
     <use xlink:href="#ArialMT-84"/>
     <use x="60.912109" xlink:href="#ArialMT-111"/>
     <use x="116.527344" xlink:href="#ArialMT-116"/>
     <use x="144.310547" xlink:href="#ArialMT-97"/>
     <use x="199.925781" xlink:href="#ArialMT-108"/>
     <use x="222.142578" xlink:href="#ArialMT-32"/>
     <use x="249.925781" xlink:href="#ArialMT-116"/>
     <use x="277.708984" xlink:href="#ArialMT-97"/>
     <use x="333.324219" xlink:href="#ArialMT-115"/>
     <use x="383.324219" xlink:href="#ArialMT-107"/>
     <use x="433.324219" xlink:href="#ArialMT-32"/>
     <use x="461.107422" xlink:href="#ArialMT-114"/>
     <use x="494.408203" xlink:href="#ArialMT-117"/>
     <use x="550.023438" xlink:href="#ArialMT-110"/>
     <use x="605.638672" xlink:href="#ArialMT-32"/>
     <use x="633.421875" xlink:href="#ArialMT-61"/>
     <use x="691.820312" xlink:href="#ArialMT-32"/>
     <use x="719.603516" xlink:href="#ArialMT-53"/>
     <use x="775.21875" xlink:href="#ArialMT-32"/>
     <use x="803.001953" xlink:href="#ArialMT-115"/>
     <use x="853.001953" xlink:href="#ArialMT-101"/>
     <use x="908.617188" xlink:href="#ArialMT-99"/>
    </g>
   </g>
   <g id="text_17">
    <!-- Task manager performance: 10 tasks -->
    <defs>
     <path d="M 4.984375 -4.296875 
L 13.53125 -5.5625 
Q 14.0625 -9.515625 16.5 -11.328125 
Q 19.78125 -13.765625 25.4375 -13.765625 
Q 31.546875 -13.765625 34.859375 -11.328125 
Q 38.1875 -8.890625 39.359375 -4.5 
Q 40.046875 -1.8125 39.984375 6.78125 
Q 34.234375 0 25.640625 0 
Q 14.9375 0 9.078125 7.71875 
Q 3.21875 15.4375 3.21875 26.21875 
Q 3.21875 33.640625 5.90625 39.90625 
Q 8.59375 46.1875 13.6875 49.609375 
Q 18.796875 53.03125 25.6875 53.03125 
Q 34.859375 53.03125 40.828125 45.609375 
L 40.828125 51.859375 
L 48.921875 51.859375 
L 48.921875 7.03125 
Q 48.921875 -5.078125 46.453125 -10.125 
Q 44 -15.1875 38.640625 -18.109375 
Q 33.296875 -21.046875 25.484375 -21.046875 
Q 16.21875 -21.046875 10.5 -16.875 
Q 4.78125 -12.703125 4.984375 -4.296875 
z
M 12.25 26.859375 
Q 12.25 16.65625 16.296875 11.96875 
Q 20.359375 7.28125 26.46875 7.28125 
Q 32.515625 7.28125 36.609375 11.9375 
Q 40.71875 16.609375 40.71875 26.5625 
Q 40.71875 36.078125 36.5 40.90625 
Q 32.28125 45.75 26.3125 45.75 
Q 20.453125 45.75 16.34375 40.984375 
Q 12.25 36.234375 12.25 26.859375 
z
" id="ArialMT-103"/>
     <path d="M 6.59375 -19.875 
L 6.59375 51.859375 
L 14.59375 51.859375 
L 14.59375 45.125 
Q 17.4375 49.078125 21 51.046875 
Q 24.5625 53.03125 29.640625 53.03125 
Q 36.28125 53.03125 41.359375 49.609375 
Q 46.4375 46.1875 49.015625 39.953125 
Q 51.609375 33.734375 51.609375 26.3125 
Q 51.609375 18.359375 48.75 11.984375 
Q 45.90625 5.609375 40.453125 2.21875 
Q 35.015625 -1.171875 29 -1.171875 
Q 24.609375 -1.171875 21.109375 0.6875 
Q 17.625 2.546875 15.375 5.375 
L 15.375 -19.875 
z
M 14.546875 25.640625 
Q 14.546875 15.625 18.59375 10.84375 
Q 22.65625 6.0625 28.421875 6.0625 
Q 34.28125 6.0625 38.453125 11.015625 
Q 42.625 15.96875 42.625 26.375 
Q 42.625 36.28125 38.546875 41.203125 
Q 34.46875 46.140625 28.8125 46.140625 
Q 23.1875 46.140625 18.859375 40.890625 
Q 14.546875 35.640625 14.546875 25.640625 
z
" id="ArialMT-112"/>
     <path d="M 8.6875 0 
L 8.6875 45.015625 
L 0.921875 45.015625 
L 0.921875 51.859375 
L 8.6875 51.859375 
L 8.6875 57.375 
Q 8.6875 62.59375 9.625 65.140625 
Q 10.890625 68.5625 14.078125 70.671875 
Q 17.28125 72.796875 23.046875 72.796875 
Q 26.765625 72.796875 31.25 71.921875 
L 29.9375 64.265625 
Q 27.203125 64.75 24.75 64.75 
Q 20.75 64.75 19.09375 63.03125 
Q 17.4375 61.328125 17.4375 56.640625 
L 17.4375 51.859375 
L 27.546875 51.859375 
L 27.546875 45.015625 
L 17.4375 45.015625 
L 17.4375 0 
z
" id="ArialMT-102"/>
     <path d="M 9.03125 41.84375 
L 9.03125 51.859375 
L 19.046875 51.859375 
L 19.046875 41.84375 
z
M 9.03125 0 
L 9.03125 10.015625 
L 19.046875 10.015625 
L 19.046875 0 
z
" id="ArialMT-58"/>
    </defs>
    <g style="fill:#262626;" transform="translate(379.971 57.4176)scale(0.12 -0.12)">
     <use xlink:href="#ArialMT-84"/>
     <use x="60.912109" xlink:href="#ArialMT-97"/>
     <use x="116.527344" xlink:href="#ArialMT-115"/>
     <use x="166.527344" xlink:href="#ArialMT-107"/>
     <use x="216.527344" xlink:href="#ArialMT-32"/>
     <use x="244.310547" xlink:href="#ArialMT-109"/>
     <use x="327.611328" xlink:href="#ArialMT-97"/>
     <use x="383.226562" xlink:href="#ArialMT-110"/>
     <use x="438.841797" xlink:href="#ArialMT-97"/>
     <use x="494.457031" xlink:href="#ArialMT-103"/>
     <use x="550.072266" xlink:href="#ArialMT-101"/>
     <use x="605.6875" xlink:href="#ArialMT-114"/>
     <use x="638.988281" xlink:href="#ArialMT-32"/>
     <use x="666.771484" xlink:href="#ArialMT-112"/>
     <use x="722.386719" xlink:href="#ArialMT-101"/>
     <use x="778.001953" xlink:href="#ArialMT-114"/>
     <use x="811.302734" xlink:href="#ArialMT-102"/>
     <use x="839.085938" xlink:href="#ArialMT-111"/>
     <use x="894.701172" xlink:href="#ArialMT-114"/>
     <use x="928.001953" xlink:href="#ArialMT-109"/>
     <use x="1011.302734" xlink:href="#ArialMT-97"/>
     <use x="1066.917969" xlink:href="#ArialMT-110"/>
     <use x="1122.533203" xlink:href="#ArialMT-99"/>
     <use x="1172.533203" xlink:href="#ArialMT-101"/>
     <use x="1228.148438" xlink:href="#ArialMT-58"/>
     <use x="1255.931641" xlink:href="#ArialMT-32"/>
     <use x="1283.714844" xlink:href="#ArialMT-49"/>
     <use x="1339.330078" xlink:href="#ArialMT-48"/>
     <use x="1394.945312" xlink:href="#ArialMT-32"/>
     <use x="1422.728516" xlink:href="#ArialMT-116"/>
     <use x="1450.511719" xlink:href="#ArialMT-97"/>
     <use x="1506.126953" xlink:href="#ArialMT-115"/>
     <use x="1556.126953" xlink:href="#ArialMT-107"/>
     <use x="1606.126953" xlink:href="#ArialMT-115"/>
    </g>
   </g>
   <g id="legend_1">
    <g id="line2d_32">
     <path d="M 705.7836 95.134384 
L 725.7836 95.134384 
" style="fill:none;stroke:#1f77b4;stroke-linecap:round;stroke-width:1.2;"/>
    </g>
    <g id="line2d_33">
     <g>
      <use style="fill:#1f77b4;stroke:#1f77b4;" x="715.7836" xlink:href="#mef252a2786" y="95.134384"/>
     </g>
    </g>
    <g id="text_18">
     <!-- Worst single -->
     <defs>
      <path d="M 20.21875 0 
L 1.21875 71.578125 
L 10.9375 71.578125 
L 21.828125 24.65625 
Q 23.578125 17.28125 24.859375 10.015625 
Q 27.59375 21.484375 28.078125 23.25 
L 41.703125 71.578125 
L 53.125 71.578125 
L 63.375 35.359375 
Q 67.234375 21.875 68.953125 10.015625 
Q 70.3125 16.796875 72.515625 25.59375 
L 83.734375 71.578125 
L 93.265625 71.578125 
L 73.640625 0 
L 64.5 0 
L 49.421875 54.546875 
Q 47.515625 61.375 47.171875 62.9375 
Q 46.046875 58.015625 45.0625 54.546875 
L 29.890625 0 
z
" id="ArialMT-87"/>
     </defs>
     <g style="fill:#262626;" transform="translate(733.7836 98.634384)scale(0.1 -0.1)">
      <use xlink:href="#ArialMT-87"/>
      <use x="94.369141" xlink:href="#ArialMT-111"/>
      <use x="149.984375" xlink:href="#ArialMT-114"/>
      <use x="183.285156" xlink:href="#ArialMT-115"/>
      <use x="233.285156" xlink:href="#ArialMT-116"/>
      <use x="261.068359" xlink:href="#ArialMT-32"/>
      <use x="288.851562" xlink:href="#ArialMT-115"/>
      <use x="338.851562" xlink:href="#ArialMT-105"/>
      <use x="361.068359" xlink:href="#ArialMT-110"/>
      <use x="416.683594" xlink:href="#ArialMT-103"/>
      <use x="472.298828" xlink:href="#ArialMT-108"/>
      <use x="494.515625" xlink:href="#ArialMT-101"/>
     </g>
    </g>
    <g id="line2d_34">
     <path d="M 705.7836 109.396884 
L 725.7836 109.396884 
" style="fill:none;stroke:#ff7f0e;stroke-linecap:round;stroke-width:1.2;"/>
    </g>
    <g id="line2d_35">
     <g>
      <use style="fill:#ff7f0e;stroke:#ff7f0e;" x="715.7836" xlink:href="#mb7b799d7d7" y="109.396884"/>
     </g>
    </g>
    <g id="text_19">
     <!-- Worst multi -->
     <g style="fill:#262626;" transform="translate(733.7836 112.896884)scale(0.1 -0.1)">
      <use xlink:href="#ArialMT-87"/>
      <use x="94.369141" xlink:href="#ArialMT-111"/>
      <use x="149.984375" xlink:href="#ArialMT-114"/>
      <use x="183.285156" xlink:href="#ArialMT-115"/>
      <use x="233.285156" xlink:href="#ArialMT-116"/>
      <use x="261.068359" xlink:href="#ArialMT-32"/>
      <use x="288.851562" xlink:href="#ArialMT-109"/>
      <use x="372.152344" xlink:href="#ArialMT-117"/>
      <use x="427.767578" xlink:href="#ArialMT-108"/>
      <use x="449.984375" xlink:href="#ArialMT-116"/>
      <use x="477.767578" xlink:href="#ArialMT-105"/>
     </g>
    </g>
    <g id="line2d_36">
     <path d="M 705.7836 123.542196 
L 725.7836 123.542196 
" style="fill:none;stroke:#2ca02c;stroke-linecap:round;stroke-width:1.2;"/>
    </g>
    <g id="line2d_37">
     <g>
      <use style="fill:#2ca02c;stroke:#2ca02c;" x="715.7836" xlink:href="#m289fffdfa4" y="123.542196"/>
     </g>
    </g>
    <g id="text_20">
     <!-- Random single -->
     <defs>
      <path d="M 7.859375 0 
L 7.859375 71.578125 
L 39.59375 71.578125 
Q 49.171875 71.578125 54.140625 69.640625 
Q 59.125 67.71875 62.109375 62.828125 
Q 65.09375 57.953125 65.09375 52.046875 
Q 65.09375 44.4375 60.15625 39.203125 
Q 55.21875 33.984375 44.921875 32.5625 
Q 48.6875 30.765625 50.640625 29 
Q 54.78125 25.203125 58.5 19.484375 
L 70.953125 0 
L 59.03125 0 
L 49.5625 14.890625 
Q 45.40625 21.34375 42.71875 24.75 
Q 40.046875 28.171875 37.921875 29.53125 
Q 35.796875 30.90625 33.59375 31.453125 
Q 31.984375 31.78125 28.328125 31.78125 
L 17.328125 31.78125 
L 17.328125 0 
z
M 17.328125 39.984375 
L 37.703125 39.984375 
Q 44.1875 39.984375 47.84375 41.328125 
Q 51.515625 42.671875 53.421875 45.625 
Q 55.328125 48.578125 55.328125 52.046875 
Q 55.328125 57.125 51.640625 60.390625 
Q 47.953125 63.671875 39.984375 63.671875 
L 17.328125 63.671875 
z
" id="ArialMT-82"/>
     </defs>
     <g style="fill:#262626;" transform="translate(733.7836 127.042196)scale(0.1 -0.1)">
      <use xlink:href="#ArialMT-82"/>
      <use x="72.216797" xlink:href="#ArialMT-97"/>
      <use x="127.832031" xlink:href="#ArialMT-110"/>
      <use x="183.447266" xlink:href="#ArialMT-100"/>
      <use x="239.0625" xlink:href="#ArialMT-111"/>
      <use x="294.677734" xlink:href="#ArialMT-109"/>
      <use x="377.978516" xlink:href="#ArialMT-32"/>
      <use x="405.761719" xlink:href="#ArialMT-115"/>
      <use x="455.761719" xlink:href="#ArialMT-105"/>
      <use x="477.978516" xlink:href="#ArialMT-110"/>
      <use x="533.59375" xlink:href="#ArialMT-103"/>
      <use x="589.208984" xlink:href="#ArialMT-108"/>
      <use x="611.425781" xlink:href="#ArialMT-101"/>
     </g>
    </g>
    <g id="line2d_38">
     <path d="M 705.7836 137.804696 
L 725.7836 137.804696 
" style="fill:none;stroke:#d62728;stroke-linecap:round;stroke-width:1.2;"/>
    </g>
    <g id="line2d_39">
     <g>
      <use style="fill:#d62728;stroke:#d62728;" x="715.7836" xlink:href="#m79bddc06b3" y="137.804696"/>
     </g>
    </g>
    <g id="text_21">
     <!-- Random multi -->
     <g style="fill:#262626;" transform="translate(733.7836 141.304696)scale(0.1 -0.1)">
      <use xlink:href="#ArialMT-82"/>
      <use x="72.216797" xlink:href="#ArialMT-97"/>
      <use x="127.832031" xlink:href="#ArialMT-110"/>
      <use x="183.447266" xlink:href="#ArialMT-100"/>
      <use x="239.0625" xlink:href="#ArialMT-111"/>
      <use x="294.677734" xlink:href="#ArialMT-109"/>
      <use x="377.978516" xlink:href="#ArialMT-32"/>
      <use x="405.761719" xlink:href="#ArialMT-109"/>
      <use x="489.0625" xlink:href="#ArialMT-117"/>
      <use x="544.677734" xlink:href="#ArialMT-108"/>
      <use x="566.894531" xlink:href="#ArialMT-116"/>
      <use x="594.677734" xlink:href="#ArialMT-105"/>
     </g>
    </g>
    <g id="line2d_40">
     <path d="M 705.7836 151.950009 
L 725.7836 151.950009 
" style="fill:none;stroke:#9467bd;stroke-linecap:round;stroke-width:1.2;"/>
    </g>
    <g id="line2d_41">
     <g>
      <use style="fill:#9467bd;stroke:#9467bd;" x="715.7836" xlink:href="#mab8caf524e" y="151.950009"/>
     </g>
    </g>
    <g id="text_22">
     <!-- No parents -->
     <defs>
      <path d="M 7.625 0 
L 7.625 71.578125 
L 17.328125 71.578125 
L 54.9375 15.375 
L 54.9375 71.578125 
L 64.015625 71.578125 
L 64.015625 0 
L 54.296875 0 
L 16.703125 56.25 
L 16.703125 0 
z
" id="ArialMT-78"/>
     </defs>
     <g style="fill:#262626;" transform="translate(733.7836 155.450009)scale(0.1 -0.1)">
      <use xlink:href="#ArialMT-78"/>
      <use x="72.216797" xlink:href="#ArialMT-111"/>
      <use x="127.832031" xlink:href="#ArialMT-32"/>
      <use x="155.615234" xlink:href="#ArialMT-112"/>
      <use x="211.230469" xlink:href="#ArialMT-97"/>
      <use x="266.845703" xlink:href="#ArialMT-114"/>
      <use x="300.146484" xlink:href="#ArialMT-101"/>
      <use x="355.761719" xlink:href="#ArialMT-110"/>
      <use x="411.376953" xlink:href="#ArialMT-116"/>
      <use x="439.160156" xlink:href="#ArialMT-115"/>
     </g>
    </g>
   </g>
  </g>
  <g id="legend_2"/>
 </g>
 <defs>
  <clipPath id="pd025ef19c4">
   <rect height="406.9296" width="724.842" x="116.91" y="63.4176"/>
  </clipPath>
 </defs>
</svg>
