<?xml version="1.0" encoding="utf-8" standalone="no"?>
<!DOCTYPE svg PUBLIC "-//W3C//DTD SVG 1.1//EN"
  "http://www.w3.org/Graphics/SVG/1.1/DTD/svg11.dtd">
<!-- Created with matplotlib (https://matplotlib.org/) -->
<svg height="576pt" version="1.1" viewBox="0 0 792 576" width="792pt" xmlns="http://www.w3.org/2000/svg" xmlns:xlink="http://www.w3.org/1999/xlink">
 <defs>
  <style type="text/css">
*{stroke-linecap:butt;stroke-linejoin:round;}
  </style>
 </defs>
 <g id="figure_1">
  <g id="patch_1">
   <path d="M 0 576 
L 792 576 
L 792 0 
L 0 0 
z
" style="fill:#ffffff;"/>
  </g>
  <g id="axes_1">
   <g id="patch_2">
    <path d="M 99 512.64 
L 712.8 512.64 
L 712.8 69.12 
L 99 69.12 
z
" style="fill:#ffffff;"/>
   </g>
   <g id="matplotlib.axis_1">
    <g id="xtick_1">
     <g id="line2d_1">
      <path clip-path="url(#p90689c1581)" d="M 117.9 512.64 
L 117.9 69.12 
" style="fill:none;stroke:#cccccc;stroke-linecap:round;stroke-width:0.8;"/>
     </g>
     <g id="line2d_2"/>
     <g id="text_1">
      <!-- 0 -->
      <defs>
       <path d="M 4.15625 35.296875 
Q 4.15625 48 6.765625 55.734375 
Q 9.375 63.484375 14.515625 67.671875 
Q 19.671875 71.875 27.484375 71.875 
Q 33.25 71.875 37.59375 69.546875 
Q 41.9375 67.234375 44.765625 62.859375 
Q 47.609375 58.5 49.21875 52.21875 
Q 50.828125 45.953125 50.828125 35.296875 
Q 50.828125 22.703125 48.234375 14.96875 
Q 45.65625 7.234375 40.5 3 
Q 35.359375 -1.21875 27.484375 -1.21875 
Q 17.140625 -1.21875 11.234375 6.203125 
Q 4.15625 15.140625 4.15625 35.296875 
z
M 13.1875 35.296875 
Q 13.1875 17.671875 17.3125 11.828125 
Q 21.4375 6 27.484375 6 
Q 33.546875 6 37.671875 11.859375 
Q 41.796875 17.71875 41.796875 35.296875 
Q 41.796875 52.984375 37.671875 58.78125 
Q 33.546875 64.59375 27.390625 64.59375 
Q 21.34375 64.59375 17.71875 59.46875 
Q 13.1875 52.9375 13.1875 35.296875 
z
" id="ArialMT-48"/>
      </defs>
      <g style="fill:#262626;" transform="translate(115.119531 523.297812)scale(0.1 -0.1)">
       <use xlink:href="#ArialMT-48"/>
      </g>
     </g>
    </g>
    <g id="xtick_2">
     <g id="line2d_3">
      <path clip-path="url(#p90689c1581)" d="M 207.9 512.64 
L 207.9 69.12 
" style="fill:none;stroke:#cccccc;stroke-linecap:round;stroke-width:0.8;"/>
     </g>
     <g id="line2d_4"/>
     <g id="text_2">
      <!-- 10 -->
      <defs>
       <path d="M 37.25 0 
L 28.46875 0 
L 28.46875 56 
Q 25.296875 52.984375 20.140625 49.953125 
Q 14.984375 46.921875 10.890625 45.40625 
L 10.890625 53.90625 
Q 18.265625 57.375 23.78125 62.296875 
Q 29.296875 67.234375 31.59375 71.875 
L 37.25 71.875 
z
" id="ArialMT-49"/>
      </defs>
      <g style="fill:#262626;" transform="translate(202.339063 523.297812)scale(0.1 -0.1)">
       <use xlink:href="#ArialMT-49"/>
       <use x="55.615234" xlink:href="#ArialMT-48"/>
      </g>
     </g>
    </g>
    <g id="xtick_3">
     <g id="line2d_5">
      <path clip-path="url(#p90689c1581)" d="M 297.9 512.64 
L 297.9 69.12 
" style="fill:none;stroke:#cccccc;stroke-linecap:round;stroke-width:0.8;"/>
     </g>
     <g id="line2d_6"/>
     <g id="text_3">
      <!-- 20 -->
      <defs>
       <path d="M 50.34375 8.453125 
L 50.34375 0 
L 3.03125 0 
Q 2.9375 3.171875 4.046875 6.109375 
Q 5.859375 10.9375 9.828125 15.625 
Q 13.8125 20.3125 21.34375 26.46875 
Q 33.015625 36.03125 37.109375 41.625 
Q 41.21875 47.21875 41.21875 52.203125 
Q 41.21875 57.421875 37.46875 61 
Q 33.734375 64.59375 27.734375 64.59375 
Q 21.390625 64.59375 17.578125 60.78125 
Q 13.765625 56.984375 13.71875 50.25 
L 4.6875 51.171875 
Q 5.609375 61.28125 11.65625 66.578125 
Q 17.71875 71.875 27.9375 71.875 
Q 38.234375 71.875 44.234375 66.15625 
Q 50.25 60.453125 50.25 52 
Q 50.25 47.703125 48.484375 43.546875 
Q 46.734375 39.40625 42.65625 34.8125 
Q 38.578125 30.21875 29.109375 22.21875 
Q 21.1875 15.578125 18.9375 13.203125 
Q 16.703125 10.84375 15.234375 8.453125 
z
" id="ArialMT-50"/>
      </defs>
      <g style="fill:#262626;" transform="translate(292.339063 523.297812)scale(0.1 -0.1)">
       <use xlink:href="#ArialMT-50"/>
       <use x="55.615234" xlink:href="#ArialMT-48"/>
      </g>
     </g>
    </g>
    <g id="xtick_4">
     <g id="line2d_7">
      <path clip-path="url(#p90689c1581)" d="M 387.9 512.64 
L 387.9 69.12 
" style="fill:none;stroke:#cccccc;stroke-linecap:round;stroke-width:0.8;"/>
     </g>
     <g id="line2d_8"/>
     <g id="text_4">
      <!-- 30 -->
      <defs>
       <path d="M 4.203125 18.890625 
L 12.984375 20.0625 
Q 14.5 12.59375 18.140625 9.296875 
Q 21.78125 6 27 6 
Q 33.203125 6 37.46875 10.296875 
Q 41.75 14.59375 41.75 20.953125 
Q 41.75 27 37.796875 30.921875 
Q 33.84375 34.859375 27.734375 34.859375 
Q 25.25 34.859375 21.53125 33.890625 
L 22.515625 41.609375 
Q 23.390625 41.5 23.921875 41.5 
Q 29.546875 41.5 34.03125 44.421875 
Q 38.53125 47.359375 38.53125 53.46875 
Q 38.53125 58.296875 35.25 61.46875 
Q 31.984375 64.65625 26.8125 64.65625 
Q 21.6875 64.65625 18.265625 61.421875 
Q 14.84375 58.203125 13.875 51.765625 
L 5.078125 53.328125 
Q 6.6875 62.15625 12.390625 67.015625 
Q 18.109375 71.875 26.609375 71.875 
Q 32.46875 71.875 37.390625 69.359375 
Q 42.328125 66.84375 44.9375 62.5 
Q 47.5625 58.15625 47.5625 53.265625 
Q 47.5625 48.640625 45.0625 44.828125 
Q 42.578125 41.015625 37.703125 38.765625 
Q 44.046875 37.3125 47.5625 32.6875 
Q 51.078125 28.078125 51.078125 21.140625 
Q 51.078125 11.765625 44.234375 5.25 
Q 37.40625 -1.265625 26.953125 -1.265625 
Q 17.53125 -1.265625 11.296875 4.34375 
Q 5.078125 9.96875 4.203125 18.890625 
z
" id="ArialMT-51"/>
      </defs>
      <g style="fill:#262626;" transform="translate(382.339063 523.297812)scale(0.1 -0.1)">
       <use xlink:href="#ArialMT-51"/>
       <use x="55.615234" xlink:href="#ArialMT-48"/>
      </g>
     </g>
    </g>
    <g id="xtick_5">
     <g id="line2d_9">
      <path clip-path="url(#p90689c1581)" d="M 477.9 512.64 
L 477.9 69.12 
" style="fill:none;stroke:#cccccc;stroke-linecap:round;stroke-width:0.8;"/>
     </g>
     <g id="line2d_10"/>
     <g id="text_5">
      <!-- 40 -->
      <defs>
       <path d="M 32.328125 0 
L 32.328125 17.140625 
L 1.265625 17.140625 
L 1.265625 25.203125 
L 33.9375 71.578125 
L 41.109375 71.578125 
L 41.109375 25.203125 
L 50.78125 25.203125 
L 50.78125 17.140625 
L 41.109375 17.140625 
L 41.109375 0 
z
M 32.328125 25.203125 
L 32.328125 57.46875 
L 9.90625 25.203125 
z
" id="ArialMT-52"/>
      </defs>
      <g style="fill:#262626;" transform="translate(472.339063 523.297812)scale(0.1 -0.1)">
       <use xlink:href="#ArialMT-52"/>
       <use x="55.615234" xlink:href="#ArialMT-48"/>
      </g>
     </g>
    </g>
    <g id="xtick_6">
     <g id="line2d_11">
      <path clip-path="url(#p90689c1581)" d="M 567.9 512.64 
L 567.9 69.12 
" style="fill:none;stroke:#cccccc;stroke-linecap:round;stroke-width:0.8;"/>
     </g>
     <g id="line2d_12"/>
     <g id="text_6">
      <!-- 50 -->
      <defs>
       <path d="M 4.15625 18.75 
L 13.375 19.53125 
Q 14.40625 12.796875 18.140625 9.390625 
Q 21.875 6 27.15625 6 
Q 33.5 6 37.890625 10.78125 
Q 42.28125 15.578125 42.28125 23.484375 
Q 42.28125 31 38.0625 35.34375 
Q 33.84375 39.703125 27 39.703125 
Q 22.75 39.703125 19.328125 37.765625 
Q 15.921875 35.84375 13.96875 32.765625 
L 5.71875 33.84375 
L 12.640625 70.609375 
L 48.25 70.609375 
L 48.25 62.203125 
L 19.671875 62.203125 
L 15.828125 42.96875 
Q 22.265625 47.46875 29.34375 47.46875 
Q 38.71875 47.46875 45.15625 40.96875 
Q 51.609375 34.46875 51.609375 24.265625 
Q 51.609375 14.546875 45.953125 7.46875 
Q 39.0625 -1.21875 27.15625 -1.21875 
Q 17.390625 -1.21875 11.203125 4.25 
Q 5.03125 9.71875 4.15625 18.75 
z
" id="ArialMT-53"/>
      </defs>
      <g style="fill:#262626;" transform="translate(562.339063 523.297812)scale(0.1 -0.1)">
       <use xlink:href="#ArialMT-53"/>
       <use x="55.615234" xlink:href="#ArialMT-48"/>
      </g>
     </g>
    </g>
    <g id="xtick_7">
     <g id="line2d_13">
      <path clip-path="url(#p90689c1581)" d="M 657.9 512.64 
L 657.9 69.12 
" style="fill:none;stroke:#cccccc;stroke-linecap:round;stroke-width:0.8;"/>
     </g>
     <g id="line2d_14"/>
     <g id="text_7">
      <!-- 60 -->
      <defs>
       <path d="M 49.75 54.046875 
L 41.015625 53.375 
Q 39.84375 58.546875 37.703125 60.890625 
Q 34.125 64.65625 28.90625 64.65625 
Q 24.703125 64.65625 21.53125 62.3125 
Q 17.390625 59.28125 14.984375 53.46875 
Q 12.59375 47.65625 12.5 36.921875 
Q 15.671875 41.75 20.265625 44.09375 
Q 24.859375 46.4375 29.890625 46.4375 
Q 38.671875 46.4375 44.84375 39.96875 
Q 51.03125 33.5 51.03125 23.25 
Q 51.03125 16.5 48.125 10.71875 
Q 45.21875 4.9375 40.140625 1.859375 
Q 35.0625 -1.21875 28.609375 -1.21875 
Q 17.625 -1.21875 10.6875 6.859375 
Q 3.765625 14.9375 3.765625 33.5 
Q 3.765625 54.25 11.421875 63.671875 
Q 18.109375 71.875 29.4375 71.875 
Q 37.890625 71.875 43.28125 67.140625 
Q 48.6875 62.40625 49.75 54.046875 
z
M 13.875 23.1875 
Q 13.875 18.65625 15.796875 14.5 
Q 17.71875 10.359375 21.1875 8.171875 
Q 24.65625 6 28.46875 6 
Q 34.03125 6 38.03125 10.484375 
Q 42.046875 14.984375 42.046875 22.703125 
Q 42.046875 30.125 38.078125 34.390625 
Q 34.125 38.671875 28.125 38.671875 
Q 22.171875 38.671875 18.015625 34.390625 
Q 13.875 30.125 13.875 23.1875 
z
" id="ArialMT-54"/>
      </defs>
      <g style="fill:#262626;" transform="translate(652.339063 523.297812)scale(0.1 -0.1)">
       <use xlink:href="#ArialMT-54"/>
       <use x="55.615234" xlink:href="#ArialMT-48"/>
      </g>
     </g>
    </g>
    <g id="text_8">
     <!-- Thread count -->
     <defs>
      <path d="M 25.921875 0 
L 25.921875 63.140625 
L 2.34375 63.140625 
L 2.34375 71.578125 
L 59.078125 71.578125 
L 59.078125 63.140625 
L 35.40625 63.140625 
L 35.40625 0 
z
" id="ArialMT-84"/>
      <path d="M 6.59375 0 
L 6.59375 71.578125 
L 15.375 71.578125 
L 15.375 45.90625 
Q 21.53125 53.03125 30.90625 53.03125 
Q 36.671875 53.03125 40.921875 50.75 
Q 45.171875 48.484375 47 44.484375 
Q 48.828125 40.484375 48.828125 32.859375 
L 48.828125 0 
L 40.046875 0 
L 40.046875 32.859375 
Q 40.046875 39.453125 37.1875 42.453125 
Q 34.328125 45.453125 29.109375 45.453125 
Q 25.203125 45.453125 21.75 43.421875 
Q 18.3125 41.40625 16.84375 37.9375 
Q 15.375 34.46875 15.375 28.375 
L 15.375 0 
z
" id="ArialMT-104"/>
      <path d="M 6.5 0 
L 6.5 51.859375 
L 14.40625 51.859375 
L 14.40625 44 
Q 17.4375 49.515625 20 51.265625 
Q 22.5625 53.03125 25.640625 53.03125 
Q 30.078125 53.03125 34.671875 50.203125 
L 31.640625 42.046875 
Q 28.421875 43.953125 25.203125 43.953125 
Q 22.3125 43.953125 20.015625 42.21875 
Q 17.71875 40.484375 16.75 37.40625 
Q 15.28125 32.71875 15.28125 27.15625 
L 15.28125 0 
z
" id="ArialMT-114"/>
      <path d="M 42.09375 16.703125 
L 51.171875 15.578125 
Q 49.03125 7.625 43.21875 3.21875 
Q 37.40625 -1.171875 28.375 -1.171875 
Q 17 -1.171875 10.328125 5.828125 
Q 3.65625 12.84375 3.65625 25.484375 
Q 3.65625 38.578125 10.390625 45.796875 
Q 17.140625 53.03125 27.875 53.03125 
Q 38.28125 53.03125 44.875 45.953125 
Q 51.46875 38.875 51.46875 26.03125 
Q 51.46875 25.25 51.421875 23.6875 
L 12.75 23.6875 
Q 13.234375 15.140625 17.578125 10.59375 
Q 21.921875 6.0625 28.421875 6.0625 
Q 33.25 6.0625 36.671875 8.59375 
Q 40.09375 11.140625 42.09375 16.703125 
z
M 13.234375 30.90625 
L 42.1875 30.90625 
Q 41.609375 37.453125 38.875 40.71875 
Q 34.671875 45.796875 27.984375 45.796875 
Q 21.921875 45.796875 17.796875 41.75 
Q 13.671875 37.703125 13.234375 30.90625 
z
" id="ArialMT-101"/>
      <path d="M 40.4375 6.390625 
Q 35.546875 2.25 31.03125 0.53125 
Q 26.515625 -1.171875 21.34375 -1.171875 
Q 12.796875 -1.171875 8.203125 3 
Q 3.609375 7.171875 3.609375 13.671875 
Q 3.609375 17.484375 5.34375 20.625 
Q 7.078125 23.78125 9.890625 25.6875 
Q 12.703125 27.59375 16.21875 28.5625 
Q 18.796875 29.25 24.03125 29.890625 
Q 34.671875 31.15625 39.703125 32.90625 
Q 39.75 34.71875 39.75 35.203125 
Q 39.75 40.578125 37.25 42.78125 
Q 33.890625 45.75 27.25 45.75 
Q 21.046875 45.75 18.09375 43.578125 
Q 15.140625 41.40625 13.71875 35.890625 
L 5.125 37.0625 
Q 6.296875 42.578125 8.984375 45.96875 
Q 11.671875 49.359375 16.75 51.1875 
Q 21.828125 53.03125 28.515625 53.03125 
Q 35.15625 53.03125 39.296875 51.46875 
Q 43.453125 49.90625 45.40625 47.53125 
Q 47.359375 45.171875 48.140625 41.546875 
Q 48.578125 39.3125 48.578125 33.453125 
L 48.578125 21.734375 
Q 48.578125 9.46875 49.140625 6.21875 
Q 49.703125 2.984375 51.375 0 
L 42.1875 0 
Q 40.828125 2.734375 40.4375 6.390625 
z
M 39.703125 26.03125 
Q 34.90625 24.078125 25.34375 22.703125 
Q 19.921875 21.921875 17.671875 20.9375 
Q 15.4375 19.96875 14.203125 18.09375 
Q 12.984375 16.21875 12.984375 13.921875 
Q 12.984375 10.40625 15.640625 8.0625 
Q 18.3125 5.71875 23.4375 5.71875 
Q 28.515625 5.71875 32.46875 7.9375 
Q 36.421875 10.15625 38.28125 14.015625 
Q 39.703125 17 39.703125 22.796875 
z
" id="ArialMT-97"/>
      <path d="M 40.234375 0 
L 40.234375 6.546875 
Q 35.296875 -1.171875 25.734375 -1.171875 
Q 19.53125 -1.171875 14.328125 2.25 
Q 9.125 5.671875 6.265625 11.796875 
Q 3.421875 17.921875 3.421875 25.875 
Q 3.421875 33.640625 6 39.96875 
Q 8.59375 46.296875 13.765625 49.65625 
Q 18.953125 53.03125 25.34375 53.03125 
Q 30.03125 53.03125 33.6875 51.046875 
Q 37.359375 49.078125 39.65625 45.90625 
L 39.65625 71.578125 
L 48.390625 71.578125 
L 48.390625 0 
z
M 12.453125 25.875 
Q 12.453125 15.921875 16.640625 10.984375 
Q 20.84375 6.0625 26.5625 6.0625 
Q 32.328125 6.0625 36.34375 10.765625 
Q 40.375 15.484375 40.375 25.140625 
Q 40.375 35.796875 36.265625 40.765625 
Q 32.171875 45.75 26.171875 45.75 
Q 20.3125 45.75 16.375 40.96875 
Q 12.453125 36.1875 12.453125 25.875 
z
" id="ArialMT-100"/>
      <path id="ArialMT-32"/>
      <path d="M 40.4375 19 
L 49.078125 17.875 
Q 47.65625 8.9375 41.8125 3.875 
Q 35.984375 -1.171875 27.484375 -1.171875 
Q 16.84375 -1.171875 10.375 5.78125 
Q 3.90625 12.75 3.90625 25.734375 
Q 3.90625 34.125 6.6875 40.421875 
Q 9.46875 46.734375 15.15625 49.875 
Q 20.84375 53.03125 27.546875 53.03125 
Q 35.984375 53.03125 41.359375 48.75 
Q 46.734375 44.484375 48.25 36.625 
L 39.703125 35.296875 
Q 38.484375 40.53125 35.375 43.15625 
Q 32.28125 45.796875 27.875 45.796875 
Q 21.234375 45.796875 17.078125 41.03125 
Q 12.9375 36.28125 12.9375 25.984375 
Q 12.9375 15.53125 16.9375 10.796875 
Q 20.953125 6.0625 27.390625 6.0625 
Q 32.5625 6.0625 36.03125 9.234375 
Q 39.5 12.40625 40.4375 19 
z
" id="ArialMT-99"/>
      <path d="M 3.328125 25.921875 
Q 3.328125 40.328125 11.328125 47.265625 
Q 18.015625 53.03125 27.640625 53.03125 
Q 38.328125 53.03125 45.109375 46.015625 
Q 51.90625 39.015625 51.90625 26.65625 
Q 51.90625 16.65625 48.90625 10.90625 
Q 45.90625 5.171875 40.15625 2 
Q 34.421875 -1.171875 27.640625 -1.171875 
Q 16.75 -1.171875 10.03125 5.8125 
Q 3.328125 12.796875 3.328125 25.921875 
z
M 12.359375 25.921875 
Q 12.359375 15.96875 16.703125 11.015625 
Q 21.046875 6.0625 27.640625 6.0625 
Q 34.1875 6.0625 38.53125 11.03125 
Q 42.875 16.015625 42.875 26.21875 
Q 42.875 35.84375 38.5 40.796875 
Q 34.125 45.75 27.640625 45.75 
Q 21.046875 45.75 16.703125 40.8125 
Q 12.359375 35.890625 12.359375 25.921875 
z
" id="ArialMT-111"/>
      <path d="M 40.578125 0 
L 40.578125 7.625 
Q 34.515625 -1.171875 24.125 -1.171875 
Q 19.53125 -1.171875 15.546875 0.578125 
Q 11.578125 2.34375 9.640625 5 
Q 7.71875 7.671875 6.9375 11.53125 
Q 6.390625 14.109375 6.390625 19.734375 
L 6.390625 51.859375 
L 15.1875 51.859375 
L 15.1875 23.09375 
Q 15.1875 16.21875 15.71875 13.8125 
Q 16.546875 10.359375 19.234375 8.375 
Q 21.921875 6.390625 25.875 6.390625 
Q 29.828125 6.390625 33.296875 8.421875 
Q 36.765625 10.453125 38.203125 13.9375 
Q 39.65625 17.4375 39.65625 24.078125 
L 39.65625 51.859375 
L 48.4375 51.859375 
L 48.4375 0 
z
" id="ArialMT-117"/>
      <path d="M 6.59375 0 
L 6.59375 51.859375 
L 14.5 51.859375 
L 14.5 44.484375 
Q 20.21875 53.03125 31 53.03125 
Q 35.6875 53.03125 39.625 51.34375 
Q 43.5625 49.65625 45.515625 46.921875 
Q 47.46875 44.1875 48.25 40.4375 
Q 48.734375 37.984375 48.734375 31.890625 
L 48.734375 0 
L 39.9375 0 
L 39.9375 31.546875 
Q 39.9375 36.921875 38.90625 39.578125 
Q 37.890625 42.234375 35.28125 43.8125 
Q 32.671875 45.40625 29.15625 45.40625 
Q 23.53125 45.40625 19.453125 41.84375 
Q 15.375 38.28125 15.375 28.328125 
L 15.375 0 
z
" id="ArialMT-110"/>
      <path d="M 25.78125 7.859375 
L 27.046875 0.09375 
Q 23.34375 -0.6875 20.40625 -0.6875 
Q 15.625 -0.6875 12.984375 0.828125 
Q 10.359375 2.34375 9.28125 4.8125 
Q 8.203125 7.28125 8.203125 15.1875 
L 8.203125 45.015625 
L 1.765625 45.015625 
L 1.765625 51.859375 
L 8.203125 51.859375 
L 8.203125 64.703125 
L 16.9375 69.96875 
L 16.9375 51.859375 
L 25.78125 51.859375 
L 25.78125 45.015625 
L 16.9375 45.015625 
L 16.9375 14.703125 
Q 16.9375 10.9375 17.40625 9.859375 
Q 17.875 8.796875 18.921875 8.15625 
Q 19.96875 7.515625 21.921875 7.515625 
Q 23.390625 7.515625 25.78125 7.859375 
z
" id="ArialMT-116"/>
     </defs>
     <g style="fill:#262626;" transform="translate(376.439844 536.443125)scale(0.1 -0.1)">
      <use xlink:href="#ArialMT-84"/>
      <use x="61.083984" xlink:href="#ArialMT-104"/>
      <use x="116.699219" xlink:href="#ArialMT-114"/>
      <use x="150" xlink:href="#ArialMT-101"/>
      <use x="205.615234" xlink:href="#ArialMT-97"/>
      <use x="261.230469" xlink:href="#ArialMT-100"/>
      <use x="316.845703" xlink:href="#ArialMT-32"/>
      <use x="344.628906" xlink:href="#ArialMT-99"/>
      <use x="394.628906" xlink:href="#ArialMT-111"/>
      <use x="450.244141" xlink:href="#ArialMT-117"/>
      <use x="505.859375" xlink:href="#ArialMT-110"/>
      <use x="561.474609" xlink:href="#ArialMT-116"/>
     </g>
    </g>
   </g>
   <g id="matplotlib.axis_2">
    <g id="ytick_1">
     <g id="line2d_15">
      <path clip-path="url(#p90689c1581)" d="M 99 483.652951 
L 712.8 483.652951 
" style="fill:none;stroke:#cccccc;stroke-linecap:round;stroke-width:0.8;"/>
     </g>
     <g id="line2d_16"/>
     <g id="text_9">
      <!-- 1 -->
      <g style="fill:#262626;" transform="translate(89.939063 487.231857)scale(0.1 -0.1)">
       <use xlink:href="#ArialMT-49"/>
      </g>
     </g>
    </g>
    <g id="ytick_2">
     <g id="line2d_17">
      <path clip-path="url(#p90689c1581)" d="M 99 385.574624 
L 712.8 385.574624 
" style="fill:none;stroke:#cccccc;stroke-linecap:round;stroke-width:0.8;"/>
     </g>
     <g id="line2d_18"/>
     <g id="text_10">
      <!-- 2 -->
      <g style="fill:#262626;" transform="translate(89.939063 389.15353)scale(0.1 -0.1)">
       <use xlink:href="#ArialMT-50"/>
      </g>
     </g>
    </g>
    <g id="ytick_3">
     <g id="line2d_19">
      <path clip-path="url(#p90689c1581)" d="M 99 287.496298 
L 712.8 287.496298 
" style="fill:none;stroke:#cccccc;stroke-linecap:round;stroke-width:0.8;"/>
     </g>
     <g id="line2d_20"/>
     <g id="text_11">
      <!-- 3 -->
      <g style="fill:#262626;" transform="translate(89.939063 291.075204)scale(0.1 -0.1)">
       <use xlink:href="#ArialMT-51"/>
      </g>
     </g>
    </g>
    <g id="ytick_4">
     <g id="line2d_21">
      <path clip-path="url(#p90689c1581)" d="M 99 189.417971 
L 712.8 189.417971 
" style="fill:none;stroke:#cccccc;stroke-linecap:round;stroke-width:0.8;"/>
     </g>
     <g id="line2d_22"/>
     <g id="text_12">
      <!-- 4 -->
      <g style="fill:#262626;" transform="translate(89.939063 192.996878)scale(0.1 -0.1)">
       <use xlink:href="#ArialMT-52"/>
      </g>
     </g>
    </g>
    <g id="ytick_5">
     <g id="line2d_23">
      <path clip-path="url(#p90689c1581)" d="M 99 91.339645 
L 712.8 91.339645 
" style="fill:none;stroke:#cccccc;stroke-linecap:round;stroke-width:0.8;"/>
     </g>
     <g id="line2d_24"/>
     <g id="text_13">
      <!-- 5 -->
      <g style="fill:#262626;" transform="translate(89.939063 94.918551)scale(0.1 -0.1)">
       <use xlink:href="#ArialMT-53"/>
      </g>
     </g>
    </g>
    <g id="text_14">
     <!-- Time, sec -->
     <defs>
      <path d="M 6.640625 61.46875 
L 6.640625 71.578125 
L 15.4375 71.578125 
L 15.4375 61.46875 
z
M 6.640625 0 
L 6.640625 51.859375 
L 15.4375 51.859375 
L 15.4375 0 
z
" id="ArialMT-105"/>
      <path d="M 6.59375 0 
L 6.59375 51.859375 
L 14.453125 51.859375 
L 14.453125 44.578125 
Q 16.890625 48.390625 20.9375 50.703125 
Q 25 53.03125 30.171875 53.03125 
Q 35.9375 53.03125 39.625 50.640625 
Q 43.3125 48.25 44.828125 43.953125 
Q 50.984375 53.03125 60.84375 53.03125 
Q 68.5625 53.03125 72.703125 48.75 
Q 76.859375 44.484375 76.859375 35.59375 
L 76.859375 0 
L 68.109375 0 
L 68.109375 32.671875 
Q 68.109375 37.9375 67.25 40.25 
Q 66.40625 42.578125 64.15625 43.984375 
Q 61.921875 45.40625 58.890625 45.40625 
Q 53.421875 45.40625 49.796875 41.765625 
Q 46.1875 38.140625 46.1875 30.125 
L 46.1875 0 
L 37.40625 0 
L 37.40625 33.6875 
Q 37.40625 39.546875 35.25 42.46875 
Q 33.109375 45.40625 28.21875 45.40625 
Q 24.515625 45.40625 21.359375 43.453125 
Q 18.21875 41.5 16.796875 37.734375 
Q 15.375 33.984375 15.375 26.90625 
L 15.375 0 
z
" id="ArialMT-109"/>
      <path d="M 8.890625 0 
L 8.890625 10.015625 
L 18.890625 10.015625 
L 18.890625 0 
Q 18.890625 -5.515625 16.9375 -8.90625 
Q 14.984375 -12.3125 10.75 -14.15625 
L 8.296875 -10.40625 
Q 11.078125 -9.1875 12.390625 -6.8125 
Q 13.71875 -4.4375 13.875 0 
z
" id="ArialMT-44"/>
      <path d="M 3.078125 15.484375 
L 11.765625 16.84375 
Q 12.5 11.625 15.84375 8.84375 
Q 19.1875 6.0625 25.203125 6.0625 
Q 31.25 6.0625 34.171875 8.515625 
Q 37.109375 10.984375 37.109375 14.3125 
Q 37.109375 17.28125 34.515625 19 
Q 32.71875 20.171875 25.53125 21.96875 
Q 15.875 24.421875 12.140625 26.203125 
Q 8.40625 27.984375 6.46875 31.125 
Q 4.546875 34.28125 4.546875 38.09375 
Q 4.546875 41.546875 6.125 44.5 
Q 7.71875 47.46875 10.453125 49.421875 
Q 12.5 50.921875 16.03125 51.96875 
Q 19.578125 53.03125 23.640625 53.03125 
Q 29.734375 53.03125 34.34375 51.265625 
Q 38.96875 49.515625 41.15625 46.5 
Q 43.359375 43.5 44.1875 38.484375 
L 35.59375 37.3125 
Q 35.015625 41.3125 32.203125 43.546875 
Q 29.390625 45.796875 24.265625 45.796875 
Q 18.21875 45.796875 15.625 43.796875 
Q 13.03125 41.796875 13.03125 39.109375 
Q 13.03125 37.40625 14.109375 36.03125 
Q 15.1875 34.625 17.484375 33.6875 
Q 18.796875 33.203125 25.25 31.453125 
Q 34.578125 28.953125 38.25 27.359375 
Q 41.9375 25.78125 44.03125 22.75 
Q 46.140625 19.734375 46.140625 15.234375 
Q 46.140625 10.84375 43.578125 6.953125 
Q 41.015625 3.078125 36.171875 0.953125 
Q 31.34375 -1.171875 25.25 -1.171875 
Q 15.140625 -1.171875 9.84375 3.03125 
Q 4.546875 7.234375 3.078125 15.484375 
z
" id="ArialMT-115"/>
     </defs>
     <g style="fill:#262626;" transform="translate(83.951563 312.546406)rotate(-90)scale(0.1 -0.1)">
      <use xlink:href="#ArialMT-84"/>
      <use x="61.037109" xlink:href="#ArialMT-105"/>
      <use x="83.253906" xlink:href="#ArialMT-109"/>
      <use x="166.554688" xlink:href="#ArialMT-101"/>
      <use x="222.169922" xlink:href="#ArialMT-44"/>
      <use x="249.953125" xlink:href="#ArialMT-32"/>
      <use x="277.736328" xlink:href="#ArialMT-115"/>
      <use x="327.736328" xlink:href="#ArialMT-101"/>
      <use x="383.351562" xlink:href="#ArialMT-99"/>
     </g>
    </g>
   </g>
   <g id="line2d_25">
    <path clip-path="url(#p90689c1581)" d="M 126.9 90.45694 
L 135.9 90.849253 
L 144.9 90.849253 
L 153.9 89.28 
L 162.9 90.653097 
L 171.9 90.751175 
L 180.9 89.574235 
L 189.9 90.751175 
L 198.9 90.751175 
L 207.9 89.476157 
L 216.9 90.751175 
L 225.9 90.653097 
L 234.9 90.751175 
L 243.9 89.574235 
L 252.9 90.751175 
L 261.9 90.751175 
L 270.9 89.574235 
L 279.9 90.751175 
L 288.9 90.751175 
L 297.9 89.672313 
L 306.9 90.751175 
L 315.9 90.849253 
L 324.9 89.672313 
L 333.9 90.751175 
L 342.9 90.751175 
L 351.9 89.574235 
L 360.9 90.751175 
L 369.9 90.751175 
L 378.9 89.378078 
L 387.9 90.751175 
L 396.9 90.653097 
L 405.9 89.574235 
L 414.9 90.653097 
L 423.9 90.653097 
L 432.9 89.574235 
L 441.9 90.751175 
L 450.9 90.751175 
L 459.9 89.574235 
L 468.9 90.653097 
L 477.9 90.653097 
L 486.9 89.574235 
L 495.9 90.751175 
L 504.9 90.653097 
L 513.9 89.672313 
L 522.9 90.653097 
L 531.9 90.555018 
L 540.9 89.574235 
L 549.9 90.751175 
L 558.9 90.653097 
L 567.9 89.476157 
L 576.9 90.751175 
L 585.9 90.751175 
L 594.9 89.574235 
L 603.9 90.653097 
L 612.9 90.751175 
L 621.9 89.672313 
L 630.9 90.653097 
L 639.9 90.653097 
L 648.9 89.574235 
L 657.9 90.751175 
L 666.9 90.653097 
L 675.9 89.574235 
L 684.9 90.653097 
" style="fill:none;stroke:#1f77b4;stroke-linecap:round;stroke-width:1.2;"/>
    <defs>
     <path d="M 0 1.5 
C 0.397805 1.5 0.77937 1.341951 1.06066 1.06066 
C 1.341951 0.77937 1.5 0.397805 1.5 0 
C 1.5 -0.397805 1.341951 -0.77937 1.06066 -1.06066 
C 0.77937 -1.341951 0.397805 -1.5 0 -1.5 
C -0.397805 -1.5 -0.77937 -1.341951 -1.06066 -1.06066 
C -1.341951 -0.77937 -1.5 -0.397805 -1.5 0 
C -1.5 0.397805 -1.341951 0.77937 -1.06066 1.06066 
C -0.77937 1.341951 -0.397805 1.5 0 1.5 
z
" id="m9099ae3699" style="stroke:#1f77b4;"/>
    </defs>
    <g clip-path="url(#p90689c1581)">
     <use style="fill:#1f77b4;stroke:#1f77b4;" x="126.9" xlink:href="#m9099ae3699" y="90.45694"/>
     <use style="fill:#1f77b4;stroke:#1f77b4;" x="135.9" xlink:href="#m9099ae3699" y="90.849253"/>
     <use style="fill:#1f77b4;stroke:#1f77b4;" x="144.9" xlink:href="#m9099ae3699" y="90.849253"/>
     <use style="fill:#1f77b4;stroke:#1f77b4;" x="153.9" xlink:href="#m9099ae3699" y="89.28"/>
     <use style="fill:#1f77b4;stroke:#1f77b4;" x="162.9" xlink:href="#m9099ae3699" y="90.653097"/>
     <use style="fill:#1f77b4;stroke:#1f77b4;" x="171.9" xlink:href="#m9099ae3699" y="90.751175"/>
     <use style="fill:#1f77b4;stroke:#1f77b4;" x="180.9" xlink:href="#m9099ae3699" y="89.574235"/>
     <use style="fill:#1f77b4;stroke:#1f77b4;" x="189.9" xlink:href="#m9099ae3699" y="90.751175"/>
     <use style="fill:#1f77b4;stroke:#1f77b4;" x="198.9" xlink:href="#m9099ae3699" y="90.751175"/>
     <use style="fill:#1f77b4;stroke:#1f77b4;" x="207.9" xlink:href="#m9099ae3699" y="89.476157"/>
     <use style="fill:#1f77b4;stroke:#1f77b4;" x="216.9" xlink:href="#m9099ae3699" y="90.751175"/>
     <use style="fill:#1f77b4;stroke:#1f77b4;" x="225.9" xlink:href="#m9099ae3699" y="90.653097"/>
     <use style="fill:#1f77b4;stroke:#1f77b4;" x="234.9" xlink:href="#m9099ae3699" y="90.751175"/>
     <use style="fill:#1f77b4;stroke:#1f77b4;" x="243.9" xlink:href="#m9099ae3699" y="89.574235"/>
     <use style="fill:#1f77b4;stroke:#1f77b4;" x="252.9" xlink:href="#m9099ae3699" y="90.751175"/>
     <use style="fill:#1f77b4;stroke:#1f77b4;" x="261.9" xlink:href="#m9099ae3699" y="90.751175"/>
     <use style="fill:#1f77b4;stroke:#1f77b4;" x="270.9" xlink:href="#m9099ae3699" y="89.574235"/>
     <use style="fill:#1f77b4;stroke:#1f77b4;" x="279.9" xlink:href="#m9099ae3699" y="90.751175"/>
     <use style="fill:#1f77b4;stroke:#1f77b4;" x="288.9" xlink:href="#m9099ae3699" y="90.751175"/>
     <use style="fill:#1f77b4;stroke:#1f77b4;" x="297.9" xlink:href="#m9099ae3699" y="89.672313"/>
     <use style="fill:#1f77b4;stroke:#1f77b4;" x="306.9" xlink:href="#m9099ae3699" y="90.751175"/>
     <use style="fill:#1f77b4;stroke:#1f77b4;" x="315.9" xlink:href="#m9099ae3699" y="90.849253"/>
     <use style="fill:#1f77b4;stroke:#1f77b4;" x="324.9" xlink:href="#m9099ae3699" y="89.672313"/>
     <use style="fill:#1f77b4;stroke:#1f77b4;" x="333.9" xlink:href="#m9099ae3699" y="90.751175"/>
     <use style="fill:#1f77b4;stroke:#1f77b4;" x="342.9" xlink:href="#m9099ae3699" y="90.751175"/>
     <use style="fill:#1f77b4;stroke:#1f77b4;" x="351.9" xlink:href="#m9099ae3699" y="89.574235"/>
     <use style="fill:#1f77b4;stroke:#1f77b4;" x="360.9" xlink:href="#m9099ae3699" y="90.751175"/>
     <use style="fill:#1f77b4;stroke:#1f77b4;" x="369.9" xlink:href="#m9099ae3699" y="90.751175"/>
     <use style="fill:#1f77b4;stroke:#1f77b4;" x="378.9" xlink:href="#m9099ae3699" y="89.378078"/>
     <use style="fill:#1f77b4;stroke:#1f77b4;" x="387.9" xlink:href="#m9099ae3699" y="90.751175"/>
     <use style="fill:#1f77b4;stroke:#1f77b4;" x="396.9" xlink:href="#m9099ae3699" y="90.653097"/>
     <use style="fill:#1f77b4;stroke:#1f77b4;" x="405.9" xlink:href="#m9099ae3699" y="89.574235"/>
     <use style="fill:#1f77b4;stroke:#1f77b4;" x="414.9" xlink:href="#m9099ae3699" y="90.653097"/>
     <use style="fill:#1f77b4;stroke:#1f77b4;" x="423.9" xlink:href="#m9099ae3699" y="90.653097"/>
     <use style="fill:#1f77b4;stroke:#1f77b4;" x="432.9" xlink:href="#m9099ae3699" y="89.574235"/>
     <use style="fill:#1f77b4;stroke:#1f77b4;" x="441.9" xlink:href="#m9099ae3699" y="90.751175"/>
     <use style="fill:#1f77b4;stroke:#1f77b4;" x="450.9" xlink:href="#m9099ae3699" y="90.751175"/>
     <use style="fill:#1f77b4;stroke:#1f77b4;" x="459.9" xlink:href="#m9099ae3699" y="89.574235"/>
     <use style="fill:#1f77b4;stroke:#1f77b4;" x="468.9" xlink:href="#m9099ae3699" y="90.653097"/>
     <use style="fill:#1f77b4;stroke:#1f77b4;" x="477.9" xlink:href="#m9099ae3699" y="90.653097"/>
     <use style="fill:#1f77b4;stroke:#1f77b4;" x="486.9" xlink:href="#m9099ae3699" y="89.574235"/>
     <use style="fill:#1f77b4;stroke:#1f77b4;" x="495.9" xlink:href="#m9099ae3699" y="90.751175"/>
     <use style="fill:#1f77b4;stroke:#1f77b4;" x="504.9" xlink:href="#m9099ae3699" y="90.653097"/>
     <use style="fill:#1f77b4;stroke:#1f77b4;" x="513.9" xlink:href="#m9099ae3699" y="89.672313"/>
     <use style="fill:#1f77b4;stroke:#1f77b4;" x="522.9" xlink:href="#m9099ae3699" y="90.653097"/>
     <use style="fill:#1f77b4;stroke:#1f77b4;" x="531.9" xlink:href="#m9099ae3699" y="90.555018"/>
     <use style="fill:#1f77b4;stroke:#1f77b4;" x="540.9" xlink:href="#m9099ae3699" y="89.574235"/>
     <use style="fill:#1f77b4;stroke:#1f77b4;" x="549.9" xlink:href="#m9099ae3699" y="90.751175"/>
     <use style="fill:#1f77b4;stroke:#1f77b4;" x="558.9" xlink:href="#m9099ae3699" y="90.653097"/>
     <use style="fill:#1f77b4;stroke:#1f77b4;" x="567.9" xlink:href="#m9099ae3699" y="89.476157"/>
     <use style="fill:#1f77b4;stroke:#1f77b4;" x="576.9" xlink:href="#m9099ae3699" y="90.751175"/>
     <use style="fill:#1f77b4;stroke:#1f77b4;" x="585.9" xlink:href="#m9099ae3699" y="90.751175"/>
     <use style="fill:#1f77b4;stroke:#1f77b4;" x="594.9" xlink:href="#m9099ae3699" y="89.574235"/>
     <use style="fill:#1f77b4;stroke:#1f77b4;" x="603.9" xlink:href="#m9099ae3699" y="90.653097"/>
     <use style="fill:#1f77b4;stroke:#1f77b4;" x="612.9" xlink:href="#m9099ae3699" y="90.751175"/>
     <use style="fill:#1f77b4;stroke:#1f77b4;" x="621.9" xlink:href="#m9099ae3699" y="89.672313"/>
     <use style="fill:#1f77b4;stroke:#1f77b4;" x="630.9" xlink:href="#m9099ae3699" y="90.653097"/>
     <use style="fill:#1f77b4;stroke:#1f77b4;" x="639.9" xlink:href="#m9099ae3699" y="90.653097"/>
     <use style="fill:#1f77b4;stroke:#1f77b4;" x="648.9" xlink:href="#m9099ae3699" y="89.574235"/>
     <use style="fill:#1f77b4;stroke:#1f77b4;" x="657.9" xlink:href="#m9099ae3699" y="90.751175"/>
     <use style="fill:#1f77b4;stroke:#1f77b4;" x="666.9" xlink:href="#m9099ae3699" y="90.653097"/>
     <use style="fill:#1f77b4;stroke:#1f77b4;" x="675.9" xlink:href="#m9099ae3699" y="89.574235"/>
     <use style="fill:#1f77b4;stroke:#1f77b4;" x="684.9" xlink:href="#m9099ae3699" y="90.653097"/>
    </g>
   </g>
   <g id="line2d_26">
    <path clip-path="url(#p90689c1581)" d="M 126.9 90.751175 
L 135.9 90.849253 
L 144.9 90.751175 
L 153.9 90.849253 
L 162.9 90.751175 
L 171.9 90.849253 
L 180.9 90.751175 
L 189.9 90.751175 
L 198.9 90.849253 
L 207.9 90.849253 
L 216.9 90.849253 
L 225.9 90.849253 
L 234.9 90.751175 
L 243.9 90.751175 
L 252.9 90.849253 
L 261.9 90.751175 
L 270.9 90.751175 
L 279.9 90.751175 
L 288.9 90.751175 
L 297.9 90.849253 
L 306.9 90.751175 
L 315.9 90.751175 
L 324.9 90.751175 
L 333.9 90.751175 
L 342.9 90.751175 
L 351.9 90.751175 
L 360.9 90.751175 
L 369.9 90.751175 
L 378.9 90.849253 
L 387.9 90.653097 
L 396.9 90.751175 
L 405.9 90.751175 
L 414.9 90.653097 
L 423.9 90.751175 
L 432.9 90.849253 
L 441.9 90.751175 
L 450.9 90.849253 
L 459.9 90.751175 
L 468.9 90.751175 
L 477.9 90.751175 
L 486.9 90.751175 
L 495.9 90.751175 
L 504.9 90.653097 
L 513.9 90.751175 
L 522.9 90.751175 
L 531.9 90.849253 
L 540.9 90.751175 
L 549.9 90.751175 
L 558.9 90.849253 
L 567.9 90.751175 
L 576.9 90.751175 
L 585.9 90.751175 
L 594.9 90.751175 
L 603.9 90.751175 
L 612.9 90.751175 
L 621.9 90.751175 
L 630.9 90.751175 
L 639.9 90.653097 
L 648.9 90.751175 
L 657.9 90.751175 
L 666.9 90.751175 
L 675.9 90.751175 
L 684.9 90.751175 
" style="fill:none;stroke:#ff7f0e;stroke-linecap:round;stroke-width:1.2;"/>
    <defs>
     <path d="M 0 1.5 
C 0.397805 1.5 0.77937 1.341951 1.06066 1.06066 
C 1.341951 0.77937 1.5 0.397805 1.5 0 
C 1.5 -0.397805 1.341951 -0.77937 1.06066 -1.06066 
C 0.77937 -1.341951 0.397805 -1.5 0 -1.5 
C -0.397805 -1.5 -0.77937 -1.341951 -1.06066 -1.06066 
C -1.341951 -0.77937 -1.5 -0.397805 -1.5 0 
C -1.5 0.397805 -1.341951 0.77937 -1.06066 1.06066 
C -0.77937 1.341951 -0.397805 1.5 0 1.5 
z
" id="m25ec4caaf2" style="stroke:#ff7f0e;"/>
    </defs>
    <g clip-path="url(#p90689c1581)">
     <use style="fill:#ff7f0e;stroke:#ff7f0e;" x="126.9" xlink:href="#m25ec4caaf2" y="90.751175"/>
     <use style="fill:#ff7f0e;stroke:#ff7f0e;" x="135.9" xlink:href="#m25ec4caaf2" y="90.849253"/>
     <use style="fill:#ff7f0e;stroke:#ff7f0e;" x="144.9" xlink:href="#m25ec4caaf2" y="90.751175"/>
     <use style="fill:#ff7f0e;stroke:#ff7f0e;" x="153.9" xlink:href="#m25ec4caaf2" y="90.849253"/>
     <use style="fill:#ff7f0e;stroke:#ff7f0e;" x="162.9" xlink:href="#m25ec4caaf2" y="90.751175"/>
     <use style="fill:#ff7f0e;stroke:#ff7f0e;" x="171.9" xlink:href="#m25ec4caaf2" y="90.849253"/>
     <use style="fill:#ff7f0e;stroke:#ff7f0e;" x="180.9" xlink:href="#m25ec4caaf2" y="90.751175"/>
     <use style="fill:#ff7f0e;stroke:#ff7f0e;" x="189.9" xlink:href="#m25ec4caaf2" y="90.751175"/>
     <use style="fill:#ff7f0e;stroke:#ff7f0e;" x="198.9" xlink:href="#m25ec4caaf2" y="90.849253"/>
     <use style="fill:#ff7f0e;stroke:#ff7f0e;" x="207.9" xlink:href="#m25ec4caaf2" y="90.849253"/>
     <use style="fill:#ff7f0e;stroke:#ff7f0e;" x="216.9" xlink:href="#m25ec4caaf2" y="90.849253"/>
     <use style="fill:#ff7f0e;stroke:#ff7f0e;" x="225.9" xlink:href="#m25ec4caaf2" y="90.849253"/>
     <use style="fill:#ff7f0e;stroke:#ff7f0e;" x="234.9" xlink:href="#m25ec4caaf2" y="90.751175"/>
     <use style="fill:#ff7f0e;stroke:#ff7f0e;" x="243.9" xlink:href="#m25ec4caaf2" y="90.751175"/>
     <use style="fill:#ff7f0e;stroke:#ff7f0e;" x="252.9" xlink:href="#m25ec4caaf2" y="90.849253"/>
     <use style="fill:#ff7f0e;stroke:#ff7f0e;" x="261.9" xlink:href="#m25ec4caaf2" y="90.751175"/>
     <use style="fill:#ff7f0e;stroke:#ff7f0e;" x="270.9" xlink:href="#m25ec4caaf2" y="90.751175"/>
     <use style="fill:#ff7f0e;stroke:#ff7f0e;" x="279.9" xlink:href="#m25ec4caaf2" y="90.751175"/>
     <use style="fill:#ff7f0e;stroke:#ff7f0e;" x="288.9" xlink:href="#m25ec4caaf2" y="90.751175"/>
     <use style="fill:#ff7f0e;stroke:#ff7f0e;" x="297.9" xlink:href="#m25ec4caaf2" y="90.849253"/>
     <use style="fill:#ff7f0e;stroke:#ff7f0e;" x="306.9" xlink:href="#m25ec4caaf2" y="90.751175"/>
     <use style="fill:#ff7f0e;stroke:#ff7f0e;" x="315.9" xlink:href="#m25ec4caaf2" y="90.751175"/>
     <use style="fill:#ff7f0e;stroke:#ff7f0e;" x="324.9" xlink:href="#m25ec4caaf2" y="90.751175"/>
     <use style="fill:#ff7f0e;stroke:#ff7f0e;" x="333.9" xlink:href="#m25ec4caaf2" y="90.751175"/>
     <use style="fill:#ff7f0e;stroke:#ff7f0e;" x="342.9" xlink:href="#m25ec4caaf2" y="90.751175"/>
     <use style="fill:#ff7f0e;stroke:#ff7f0e;" x="351.9" xlink:href="#m25ec4caaf2" y="90.751175"/>
     <use style="fill:#ff7f0e;stroke:#ff7f0e;" x="360.9" xlink:href="#m25ec4caaf2" y="90.751175"/>
     <use style="fill:#ff7f0e;stroke:#ff7f0e;" x="369.9" xlink:href="#m25ec4caaf2" y="90.751175"/>
     <use style="fill:#ff7f0e;stroke:#ff7f0e;" x="378.9" xlink:href="#m25ec4caaf2" y="90.849253"/>
     <use style="fill:#ff7f0e;stroke:#ff7f0e;" x="387.9" xlink:href="#m25ec4caaf2" y="90.653097"/>
     <use style="fill:#ff7f0e;stroke:#ff7f0e;" x="396.9" xlink:href="#m25ec4caaf2" y="90.751175"/>
     <use style="fill:#ff7f0e;stroke:#ff7f0e;" x="405.9" xlink:href="#m25ec4caaf2" y="90.751175"/>
     <use style="fill:#ff7f0e;stroke:#ff7f0e;" x="414.9" xlink:href="#m25ec4caaf2" y="90.653097"/>
     <use style="fill:#ff7f0e;stroke:#ff7f0e;" x="423.9" xlink:href="#m25ec4caaf2" y="90.751175"/>
     <use style="fill:#ff7f0e;stroke:#ff7f0e;" x="432.9" xlink:href="#m25ec4caaf2" y="90.849253"/>
     <use style="fill:#ff7f0e;stroke:#ff7f0e;" x="441.9" xlink:href="#m25ec4caaf2" y="90.751175"/>
     <use style="fill:#ff7f0e;stroke:#ff7f0e;" x="450.9" xlink:href="#m25ec4caaf2" y="90.849253"/>
     <use style="fill:#ff7f0e;stroke:#ff7f0e;" x="459.9" xlink:href="#m25ec4caaf2" y="90.751175"/>
     <use style="fill:#ff7f0e;stroke:#ff7f0e;" x="468.9" xlink:href="#m25ec4caaf2" y="90.751175"/>
     <use style="fill:#ff7f0e;stroke:#ff7f0e;" x="477.9" xlink:href="#m25ec4caaf2" y="90.751175"/>
     <use style="fill:#ff7f0e;stroke:#ff7f0e;" x="486.9" xlink:href="#m25ec4caaf2" y="90.751175"/>
     <use style="fill:#ff7f0e;stroke:#ff7f0e;" x="495.9" xlink:href="#m25ec4caaf2" y="90.751175"/>
     <use style="fill:#ff7f0e;stroke:#ff7f0e;" x="504.9" xlink:href="#m25ec4caaf2" y="90.653097"/>
     <use style="fill:#ff7f0e;stroke:#ff7f0e;" x="513.9" xlink:href="#m25ec4caaf2" y="90.751175"/>
     <use style="fill:#ff7f0e;stroke:#ff7f0e;" x="522.9" xlink:href="#m25ec4caaf2" y="90.751175"/>
     <use style="fill:#ff7f0e;stroke:#ff7f0e;" x="531.9" xlink:href="#m25ec4caaf2" y="90.849253"/>
     <use style="fill:#ff7f0e;stroke:#ff7f0e;" x="540.9" xlink:href="#m25ec4caaf2" y="90.751175"/>
     <use style="fill:#ff7f0e;stroke:#ff7f0e;" x="549.9" xlink:href="#m25ec4caaf2" y="90.751175"/>
     <use style="fill:#ff7f0e;stroke:#ff7f0e;" x="558.9" xlink:href="#m25ec4caaf2" y="90.849253"/>
     <use style="fill:#ff7f0e;stroke:#ff7f0e;" x="567.9" xlink:href="#m25ec4caaf2" y="90.751175"/>
     <use style="fill:#ff7f0e;stroke:#ff7f0e;" x="576.9" xlink:href="#m25ec4caaf2" y="90.751175"/>
     <use style="fill:#ff7f0e;stroke:#ff7f0e;" x="585.9" xlink:href="#m25ec4caaf2" y="90.751175"/>
     <use style="fill:#ff7f0e;stroke:#ff7f0e;" x="594.9" xlink:href="#m25ec4caaf2" y="90.751175"/>
     <use style="fill:#ff7f0e;stroke:#ff7f0e;" x="603.9" xlink:href="#m25ec4caaf2" y="90.751175"/>
     <use style="fill:#ff7f0e;stroke:#ff7f0e;" x="612.9" xlink:href="#m25ec4caaf2" y="90.751175"/>
     <use style="fill:#ff7f0e;stroke:#ff7f0e;" x="621.9" xlink:href="#m25ec4caaf2" y="90.751175"/>
     <use style="fill:#ff7f0e;stroke:#ff7f0e;" x="630.9" xlink:href="#m25ec4caaf2" y="90.751175"/>
     <use style="fill:#ff7f0e;stroke:#ff7f0e;" x="639.9" xlink:href="#m25ec4caaf2" y="90.653097"/>
     <use style="fill:#ff7f0e;stroke:#ff7f0e;" x="648.9" xlink:href="#m25ec4caaf2" y="90.751175"/>
     <use style="fill:#ff7f0e;stroke:#ff7f0e;" x="657.9" xlink:href="#m25ec4caaf2" y="90.751175"/>
     <use style="fill:#ff7f0e;stroke:#ff7f0e;" x="666.9" xlink:href="#m25ec4caaf2" y="90.751175"/>
     <use style="fill:#ff7f0e;stroke:#ff7f0e;" x="675.9" xlink:href="#m25ec4caaf2" y="90.751175"/>
     <use style="fill:#ff7f0e;stroke:#ff7f0e;" x="684.9" xlink:href="#m25ec4caaf2" y="90.751175"/>
    </g>
   </g>
   <g id="line2d_27">
    <path clip-path="url(#p90689c1581)" d="M 126.9 90.751175 
L 135.9 296.029112 
L 144.9 287.202063 
L 153.9 430.004106 
L 162.9 242.576424 
L 171.9 394.303595 
L 180.9 340.654751 
L 189.9 305.052318 
L 198.9 358.603084 
L 207.9 251.501552 
L 216.9 367.430134 
L 225.9 385.378468 
L 234.9 260.328601 
L 243.9 358.603084 
L 252.9 278.276935 
L 261.9 367.430134 
L 270.9 331.827701 
L 279.9 340.752829 
L 288.9 447.854361 
L 297.9 313.879368 
L 306.9 331.827701 
L 315.9 376.355261 
L 324.9 340.752829 
L 333.9 358.603084 
L 342.9 313.977446 
L 351.9 367.430134 
L 360.9 367.528212 
L 369.9 349.677957 
L 378.9 367.528212 
L 387.9 287.103984 
L 396.9 340.752829 
L 405.9 358.603084 
L 414.9 260.42668 
L 423.9 313.977446 
L 432.9 313.879368 
L 441.9 313.977446 
L 450.9 296.029112 
L 459.9 367.430134 
L 468.9 278.178857 
L 477.9 412.153851 
L 486.9 296.029112 
L 495.9 224.726169 
L 504.9 305.052318 
L 513.9 349.579878 
L 522.9 394.205517 
L 531.9 376.45334 
L 540.9 456.779489 
L 549.9 340.654751 
L 558.9 269.155651 
L 567.9 287.202063 
L 576.9 349.579878 
L 585.9 331.827701 
L 594.9 224.62809 
L 603.9 376.355261 
L 612.9 304.95424 
L 621.9 296.029112 
L 630.9 287.103984 
L 639.9 322.706417 
L 648.9 394.303595 
L 657.9 394.205517 
L 666.9 278.178857 
L 675.9 296.029112 
L 684.9 287.103984 
" style="fill:none;stroke:#2ca02c;stroke-linecap:round;stroke-width:1.2;"/>
    <defs>
     <path d="M 0 1.5 
C 0.397805 1.5 0.77937 1.341951 1.06066 1.06066 
C 1.341951 0.77937 1.5 0.397805 1.5 0 
C 1.5 -0.397805 1.341951 -0.77937 1.06066 -1.06066 
C 0.77937 -1.341951 0.397805 -1.5 0 -1.5 
C -0.397805 -1.5 -0.77937 -1.341951 -1.06066 -1.06066 
C -1.341951 -0.77937 -1.5 -0.397805 -1.5 0 
C -1.5 0.397805 -1.341951 0.77937 -1.06066 1.06066 
C -0.77937 1.341951 -0.397805 1.5 0 1.5 
z
" id="ma2d5fdc198" style="stroke:#2ca02c;"/>
    </defs>
    <g clip-path="url(#p90689c1581)">
     <use style="fill:#2ca02c;stroke:#2ca02c;" x="126.9" xlink:href="#ma2d5fdc198" y="90.751175"/>
     <use style="fill:#2ca02c;stroke:#2ca02c;" x="135.9" xlink:href="#ma2d5fdc198" y="296.029112"/>
     <use style="fill:#2ca02c;stroke:#2ca02c;" x="144.9" xlink:href="#ma2d5fdc198" y="287.202063"/>
     <use style="fill:#2ca02c;stroke:#2ca02c;" x="153.9" xlink:href="#ma2d5fdc198" y="430.004106"/>
     <use style="fill:#2ca02c;stroke:#2ca02c;" x="162.9" xlink:href="#ma2d5fdc198" y="242.576424"/>
     <use style="fill:#2ca02c;stroke:#2ca02c;" x="171.9" xlink:href="#ma2d5fdc198" y="394.303595"/>
     <use style="fill:#2ca02c;stroke:#2ca02c;" x="180.9" xlink:href="#ma2d5fdc198" y="340.654751"/>
     <use style="fill:#2ca02c;stroke:#2ca02c;" x="189.9" xlink:href="#ma2d5fdc198" y="305.052318"/>
     <use style="fill:#2ca02c;stroke:#2ca02c;" x="198.9" xlink:href="#ma2d5fdc198" y="358.603084"/>
     <use style="fill:#2ca02c;stroke:#2ca02c;" x="207.9" xlink:href="#ma2d5fdc198" y="251.501552"/>
     <use style="fill:#2ca02c;stroke:#2ca02c;" x="216.9" xlink:href="#ma2d5fdc198" y="367.430134"/>
     <use style="fill:#2ca02c;stroke:#2ca02c;" x="225.9" xlink:href="#ma2d5fdc198" y="385.378468"/>
     <use style="fill:#2ca02c;stroke:#2ca02c;" x="234.9" xlink:href="#ma2d5fdc198" y="260.328601"/>
     <use style="fill:#2ca02c;stroke:#2ca02c;" x="243.9" xlink:href="#ma2d5fdc198" y="358.603084"/>
     <use style="fill:#2ca02c;stroke:#2ca02c;" x="252.9" xlink:href="#ma2d5fdc198" y="278.276935"/>
     <use style="fill:#2ca02c;stroke:#2ca02c;" x="261.9" xlink:href="#ma2d5fdc198" y="367.430134"/>
     <use style="fill:#2ca02c;stroke:#2ca02c;" x="270.9" xlink:href="#ma2d5fdc198" y="331.827701"/>
     <use style="fill:#2ca02c;stroke:#2ca02c;" x="279.9" xlink:href="#ma2d5fdc198" y="340.752829"/>
     <use style="fill:#2ca02c;stroke:#2ca02c;" x="288.9" xlink:href="#ma2d5fdc198" y="447.854361"/>
     <use style="fill:#2ca02c;stroke:#2ca02c;" x="297.9" xlink:href="#ma2d5fdc198" y="313.879368"/>
     <use style="fill:#2ca02c;stroke:#2ca02c;" x="306.9" xlink:href="#ma2d5fdc198" y="331.827701"/>
     <use style="fill:#2ca02c;stroke:#2ca02c;" x="315.9" xlink:href="#ma2d5fdc198" y="376.355261"/>
     <use style="fill:#2ca02c;stroke:#2ca02c;" x="324.9" xlink:href="#ma2d5fdc198" y="340.752829"/>
     <use style="fill:#2ca02c;stroke:#2ca02c;" x="333.9" xlink:href="#ma2d5fdc198" y="358.603084"/>
     <use style="fill:#2ca02c;stroke:#2ca02c;" x="342.9" xlink:href="#ma2d5fdc198" y="313.977446"/>
     <use style="fill:#2ca02c;stroke:#2ca02c;" x="351.9" xlink:href="#ma2d5fdc198" y="367.430134"/>
     <use style="fill:#2ca02c;stroke:#2ca02c;" x="360.9" xlink:href="#ma2d5fdc198" y="367.528212"/>
     <use style="fill:#2ca02c;stroke:#2ca02c;" x="369.9" xlink:href="#ma2d5fdc198" y="349.677957"/>
     <use style="fill:#2ca02c;stroke:#2ca02c;" x="378.9" xlink:href="#ma2d5fdc198" y="367.528212"/>
     <use style="fill:#2ca02c;stroke:#2ca02c;" x="387.9" xlink:href="#ma2d5fdc198" y="287.103984"/>
     <use style="fill:#2ca02c;stroke:#2ca02c;" x="396.9" xlink:href="#ma2d5fdc198" y="340.752829"/>
     <use style="fill:#2ca02c;stroke:#2ca02c;" x="405.9" xlink:href="#ma2d5fdc198" y="358.603084"/>
     <use style="fill:#2ca02c;stroke:#2ca02c;" x="414.9" xlink:href="#ma2d5fdc198" y="260.42668"/>
     <use style="fill:#2ca02c;stroke:#2ca02c;" x="423.9" xlink:href="#ma2d5fdc198" y="313.977446"/>
     <use style="fill:#2ca02c;stroke:#2ca02c;" x="432.9" xlink:href="#ma2d5fdc198" y="313.879368"/>
     <use style="fill:#2ca02c;stroke:#2ca02c;" x="441.9" xlink:href="#ma2d5fdc198" y="313.977446"/>
     <use style="fill:#2ca02c;stroke:#2ca02c;" x="450.9" xlink:href="#ma2d5fdc198" y="296.029112"/>
     <use style="fill:#2ca02c;stroke:#2ca02c;" x="459.9" xlink:href="#ma2d5fdc198" y="367.430134"/>
     <use style="fill:#2ca02c;stroke:#2ca02c;" x="468.9" xlink:href="#ma2d5fdc198" y="278.178857"/>
     <use style="fill:#2ca02c;stroke:#2ca02c;" x="477.9" xlink:href="#ma2d5fdc198" y="412.153851"/>
     <use style="fill:#2ca02c;stroke:#2ca02c;" x="486.9" xlink:href="#ma2d5fdc198" y="296.029112"/>
     <use style="fill:#2ca02c;stroke:#2ca02c;" x="495.9" xlink:href="#ma2d5fdc198" y="224.726169"/>
     <use style="fill:#2ca02c;stroke:#2ca02c;" x="504.9" xlink:href="#ma2d5fdc198" y="305.052318"/>
     <use style="fill:#2ca02c;stroke:#2ca02c;" x="513.9" xlink:href="#ma2d5fdc198" y="349.579878"/>
     <use style="fill:#2ca02c;stroke:#2ca02c;" x="522.9" xlink:href="#ma2d5fdc198" y="394.205517"/>
     <use style="fill:#2ca02c;stroke:#2ca02c;" x="531.9" xlink:href="#ma2d5fdc198" y="376.45334"/>
     <use style="fill:#2ca02c;stroke:#2ca02c;" x="540.9" xlink:href="#ma2d5fdc198" y="456.779489"/>
     <use style="fill:#2ca02c;stroke:#2ca02c;" x="549.9" xlink:href="#ma2d5fdc198" y="340.654751"/>
     <use style="fill:#2ca02c;stroke:#2ca02c;" x="558.9" xlink:href="#ma2d5fdc198" y="269.155651"/>
     <use style="fill:#2ca02c;stroke:#2ca02c;" x="567.9" xlink:href="#ma2d5fdc198" y="287.202063"/>
     <use style="fill:#2ca02c;stroke:#2ca02c;" x="576.9" xlink:href="#ma2d5fdc198" y="349.579878"/>
     <use style="fill:#2ca02c;stroke:#2ca02c;" x="585.9" xlink:href="#ma2d5fdc198" y="331.827701"/>
     <use style="fill:#2ca02c;stroke:#2ca02c;" x="594.9" xlink:href="#ma2d5fdc198" y="224.62809"/>
     <use style="fill:#2ca02c;stroke:#2ca02c;" x="603.9" xlink:href="#ma2d5fdc198" y="376.355261"/>
     <use style="fill:#2ca02c;stroke:#2ca02c;" x="612.9" xlink:href="#ma2d5fdc198" y="304.95424"/>
     <use style="fill:#2ca02c;stroke:#2ca02c;" x="621.9" xlink:href="#ma2d5fdc198" y="296.029112"/>
     <use style="fill:#2ca02c;stroke:#2ca02c;" x="630.9" xlink:href="#ma2d5fdc198" y="287.103984"/>
     <use style="fill:#2ca02c;stroke:#2ca02c;" x="639.9" xlink:href="#ma2d5fdc198" y="322.706417"/>
     <use style="fill:#2ca02c;stroke:#2ca02c;" x="648.9" xlink:href="#ma2d5fdc198" y="394.303595"/>
     <use style="fill:#2ca02c;stroke:#2ca02c;" x="657.9" xlink:href="#ma2d5fdc198" y="394.205517"/>
     <use style="fill:#2ca02c;stroke:#2ca02c;" x="666.9" xlink:href="#ma2d5fdc198" y="278.178857"/>
     <use style="fill:#2ca02c;stroke:#2ca02c;" x="675.9" xlink:href="#ma2d5fdc198" y="296.029112"/>
     <use style="fill:#2ca02c;stroke:#2ca02c;" x="684.9" xlink:href="#ma2d5fdc198" y="287.103984"/>
    </g>
   </g>
   <g id="line2d_28">
    <path clip-path="url(#p90689c1581)" d="M 126.9 90.849253 
L 135.9 322.804495 
L 144.9 349.677957 
L 153.9 394.205517 
L 162.9 296.12719 
L 171.9 322.902574 
L 180.9 340.752829 
L 189.9 260.42668 
L 198.9 278.178857 
L 207.9 278.178857 
L 216.9 385.280389 
L 225.9 305.052318 
L 234.9 358.505006 
L 243.9 331.729623 
L 252.9 260.42668 
L 261.9 287.202063 
L 270.9 296.12719 
L 279.9 376.355261 
L 288.9 412.055772 
L 297.9 376.355261 
L 306.9 322.902574 
L 315.9 376.355261 
L 324.9 403.228723 
L 333.9 260.42668 
L 342.9 260.42668 
L 351.9 180.002452 
L 360.9 313.977446 
L 369.9 340.752829 
L 378.9 340.752829 
L 387.9 331.827701 
L 396.9 376.355261 
L 405.9 269.253729 
L 414.9 358.505006 
L 423.9 385.378468 
L 432.9 349.579878 
L 441.9 349.579878 
L 450.9 215.702963 
L 459.9 304.95424 
L 468.9 242.576424 
L 477.9 456.681411 
L 486.9 322.902574 
L 495.9 318.685206 
L 504.9 349.579878 
L 513.9 455.406393 
L 522.9 421.078978 
L 531.9 403.130645 
L 540.9 412.153851 
L 549.9 367.430134 
L 558.9 403.228723 
L 567.9 349.579878 
L 576.9 296.12719 
L 585.9 367.528212 
L 594.9 394.303595 
L 603.9 412.055772 
L 612.9 367.430134 
L 621.9 313.879368 
L 630.9 304.95424 
L 639.9 340.654751 
L 648.9 322.902574 
L 657.9 287.202063 
L 666.9 358.505006 
L 675.9 313.879368 
L 684.9 394.303595 
" style="fill:none;stroke:#d62728;stroke-linecap:round;stroke-width:1.2;"/>
    <defs>
     <path d="M 0 1.5 
C 0.397805 1.5 0.77937 1.341951 1.06066 1.06066 
C 1.341951 0.77937 1.5 0.397805 1.5 0 
C 1.5 -0.397805 1.341951 -0.77937 1.06066 -1.06066 
C 0.77937 -1.341951 0.397805 -1.5 0 -1.5 
C -0.397805 -1.5 -0.77937 -1.341951 -1.06066 -1.06066 
C -1.341951 -0.77937 -1.5 -0.397805 -1.5 0 
C -1.5 0.397805 -1.341951 0.77937 -1.06066 1.06066 
C -0.77937 1.341951 -0.397805 1.5 0 1.5 
z
" id="me8f141e49e" style="stroke:#d62728;"/>
    </defs>
    <g clip-path="url(#p90689c1581)">
     <use style="fill:#d62728;stroke:#d62728;" x="126.9" xlink:href="#me8f141e49e" y="90.849253"/>
     <use style="fill:#d62728;stroke:#d62728;" x="135.9" xlink:href="#me8f141e49e" y="322.804495"/>
     <use style="fill:#d62728;stroke:#d62728;" x="144.9" xlink:href="#me8f141e49e" y="349.677957"/>
     <use style="fill:#d62728;stroke:#d62728;" x="153.9" xlink:href="#me8f141e49e" y="394.205517"/>
     <use style="fill:#d62728;stroke:#d62728;" x="162.9" xlink:href="#me8f141e49e" y="296.12719"/>
     <use style="fill:#d62728;stroke:#d62728;" x="171.9" xlink:href="#me8f141e49e" y="322.902574"/>
     <use style="fill:#d62728;stroke:#d62728;" x="180.9" xlink:href="#me8f141e49e" y="340.752829"/>
     <use style="fill:#d62728;stroke:#d62728;" x="189.9" xlink:href="#me8f141e49e" y="260.42668"/>
     <use style="fill:#d62728;stroke:#d62728;" x="198.9" xlink:href="#me8f141e49e" y="278.178857"/>
     <use style="fill:#d62728;stroke:#d62728;" x="207.9" xlink:href="#me8f141e49e" y="278.178857"/>
     <use style="fill:#d62728;stroke:#d62728;" x="216.9" xlink:href="#me8f141e49e" y="385.280389"/>
     <use style="fill:#d62728;stroke:#d62728;" x="225.9" xlink:href="#me8f141e49e" y="305.052318"/>
     <use style="fill:#d62728;stroke:#d62728;" x="234.9" xlink:href="#me8f141e49e" y="358.505006"/>
     <use style="fill:#d62728;stroke:#d62728;" x="243.9" xlink:href="#me8f141e49e" y="331.729623"/>
     <use style="fill:#d62728;stroke:#d62728;" x="252.9" xlink:href="#me8f141e49e" y="260.42668"/>
     <use style="fill:#d62728;stroke:#d62728;" x="261.9" xlink:href="#me8f141e49e" y="287.202063"/>
     <use style="fill:#d62728;stroke:#d62728;" x="270.9" xlink:href="#me8f141e49e" y="296.12719"/>
     <use style="fill:#d62728;stroke:#d62728;" x="279.9" xlink:href="#me8f141e49e" y="376.355261"/>
     <use style="fill:#d62728;stroke:#d62728;" x="288.9" xlink:href="#me8f141e49e" y="412.055772"/>
     <use style="fill:#d62728;stroke:#d62728;" x="297.9" xlink:href="#me8f141e49e" y="376.355261"/>
     <use style="fill:#d62728;stroke:#d62728;" x="306.9" xlink:href="#me8f141e49e" y="322.902574"/>
     <use style="fill:#d62728;stroke:#d62728;" x="315.9" xlink:href="#me8f141e49e" y="376.355261"/>
     <use style="fill:#d62728;stroke:#d62728;" x="324.9" xlink:href="#me8f141e49e" y="403.228723"/>
     <use style="fill:#d62728;stroke:#d62728;" x="333.9" xlink:href="#me8f141e49e" y="260.42668"/>
     <use style="fill:#d62728;stroke:#d62728;" x="342.9" xlink:href="#me8f141e49e" y="260.42668"/>
     <use style="fill:#d62728;stroke:#d62728;" x="351.9" xlink:href="#me8f141e49e" y="180.002452"/>
     <use style="fill:#d62728;stroke:#d62728;" x="360.9" xlink:href="#me8f141e49e" y="313.977446"/>
     <use style="fill:#d62728;stroke:#d62728;" x="369.9" xlink:href="#me8f141e49e" y="340.752829"/>
     <use style="fill:#d62728;stroke:#d62728;" x="378.9" xlink:href="#me8f141e49e" y="340.752829"/>
     <use style="fill:#d62728;stroke:#d62728;" x="387.9" xlink:href="#me8f141e49e" y="331.827701"/>
     <use style="fill:#d62728;stroke:#d62728;" x="396.9" xlink:href="#me8f141e49e" y="376.355261"/>
     <use style="fill:#d62728;stroke:#d62728;" x="405.9" xlink:href="#me8f141e49e" y="269.253729"/>
     <use style="fill:#d62728;stroke:#d62728;" x="414.9" xlink:href="#me8f141e49e" y="358.505006"/>
     <use style="fill:#d62728;stroke:#d62728;" x="423.9" xlink:href="#me8f141e49e" y="385.378468"/>
     <use style="fill:#d62728;stroke:#d62728;" x="432.9" xlink:href="#me8f141e49e" y="349.579878"/>
     <use style="fill:#d62728;stroke:#d62728;" x="441.9" xlink:href="#me8f141e49e" y="349.579878"/>
     <use style="fill:#d62728;stroke:#d62728;" x="450.9" xlink:href="#me8f141e49e" y="215.702963"/>
     <use style="fill:#d62728;stroke:#d62728;" x="459.9" xlink:href="#me8f141e49e" y="304.95424"/>
     <use style="fill:#d62728;stroke:#d62728;" x="468.9" xlink:href="#me8f141e49e" y="242.576424"/>
     <use style="fill:#d62728;stroke:#d62728;" x="477.9" xlink:href="#me8f141e49e" y="456.681411"/>
     <use style="fill:#d62728;stroke:#d62728;" x="486.9" xlink:href="#me8f141e49e" y="322.902574"/>
     <use style="fill:#d62728;stroke:#d62728;" x="495.9" xlink:href="#me8f141e49e" y="318.685206"/>
     <use style="fill:#d62728;stroke:#d62728;" x="504.9" xlink:href="#me8f141e49e" y="349.579878"/>
     <use style="fill:#d62728;stroke:#d62728;" x="513.9" xlink:href="#me8f141e49e" y="455.406393"/>
     <use style="fill:#d62728;stroke:#d62728;" x="522.9" xlink:href="#me8f141e49e" y="421.078978"/>
     <use style="fill:#d62728;stroke:#d62728;" x="531.9" xlink:href="#me8f141e49e" y="403.130645"/>
     <use style="fill:#d62728;stroke:#d62728;" x="540.9" xlink:href="#me8f141e49e" y="412.153851"/>
     <use style="fill:#d62728;stroke:#d62728;" x="549.9" xlink:href="#me8f141e49e" y="367.430134"/>
     <use style="fill:#d62728;stroke:#d62728;" x="558.9" xlink:href="#me8f141e49e" y="403.228723"/>
     <use style="fill:#d62728;stroke:#d62728;" x="567.9" xlink:href="#me8f141e49e" y="349.579878"/>
     <use style="fill:#d62728;stroke:#d62728;" x="576.9" xlink:href="#me8f141e49e" y="296.12719"/>
     <use style="fill:#d62728;stroke:#d62728;" x="585.9" xlink:href="#me8f141e49e" y="367.528212"/>
     <use style="fill:#d62728;stroke:#d62728;" x="594.9" xlink:href="#me8f141e49e" y="394.303595"/>
     <use style="fill:#d62728;stroke:#d62728;" x="603.9" xlink:href="#me8f141e49e" y="412.055772"/>
     <use style="fill:#d62728;stroke:#d62728;" x="612.9" xlink:href="#me8f141e49e" y="367.430134"/>
     <use style="fill:#d62728;stroke:#d62728;" x="621.9" xlink:href="#me8f141e49e" y="313.879368"/>
     <use style="fill:#d62728;stroke:#d62728;" x="630.9" xlink:href="#me8f141e49e" y="304.95424"/>
     <use style="fill:#d62728;stroke:#d62728;" x="639.9" xlink:href="#me8f141e49e" y="340.654751"/>
     <use style="fill:#d62728;stroke:#d62728;" x="648.9" xlink:href="#me8f141e49e" y="322.902574"/>
     <use style="fill:#d62728;stroke:#d62728;" x="657.9" xlink:href="#me8f141e49e" y="287.202063"/>
     <use style="fill:#d62728;stroke:#d62728;" x="666.9" xlink:href="#me8f141e49e" y="358.505006"/>
     <use style="fill:#d62728;stroke:#d62728;" x="675.9" xlink:href="#me8f141e49e" y="313.879368"/>
     <use style="fill:#d62728;stroke:#d62728;" x="684.9" xlink:href="#me8f141e49e" y="394.303595"/>
    </g>
   </g>
   <g id="line2d_29">
    <path clip-path="url(#p90689c1581)" d="M 126.9 90.751175 
L 135.9 331.729623 
L 144.9 412.055772 
L 153.9 447.854361 
L 162.9 475.414371 
L 171.9 484.633734 
L 180.9 492.381922 
L 189.9 492.48 
L 198.9 492.48 
L 207.9 492.48 
L 216.9 492.48 
L 225.9 492.48 
L 234.9 492.48 
L 243.9 492.48 
L 252.9 492.381922 
L 261.9 492.48 
L 270.9 492.48 
L 279.9 492.381922 
L 288.9 492.48 
L 297.9 492.48 
L 306.9 492.381922 
L 315.9 492.48 
L 324.9 492.381922 
L 333.9 492.48 
L 342.9 492.48 
L 351.9 492.381922 
L 360.9 492.381922 
L 369.9 492.48 
L 378.9 492.381922 
L 387.9 492.48 
L 396.9 492.48 
L 405.9 492.48 
L 414.9 492.381922 
L 423.9 492.48 
L 432.9 492.48 
L 441.9 492.48 
L 450.9 492.48 
L 459.9 492.48 
L 468.9 492.381922 
L 477.9 492.48 
L 486.9 492.381922 
L 495.9 492.48 
L 504.9 492.48 
L 513.9 492.48 
L 522.9 492.381922 
L 531.9 492.381922 
L 540.9 492.381922 
L 549.9 492.381922 
L 558.9 492.48 
L 567.9 492.48 
L 576.9 492.381922 
L 585.9 492.381922 
L 594.9 492.48 
L 603.9 492.48 
L 612.9 492.48 
L 621.9 492.381922 
L 630.9 492.381922 
L 639.9 492.48 
L 648.9 492.48 
L 657.9 492.48 
L 666.9 492.48 
L 675.9 492.48 
L 684.9 492.48 
" style="fill:none;stroke:#9467bd;stroke-linecap:round;stroke-width:1.2;"/>
    <defs>
     <path d="M 0 1.5 
C 0.397805 1.5 0.77937 1.341951 1.06066 1.06066 
C 1.341951 0.77937 1.5 0.397805 1.5 0 
C 1.5 -0.397805 1.341951 -0.77937 1.06066 -1.06066 
C 0.77937 -1.341951 0.397805 -1.5 0 -1.5 
C -0.397805 -1.5 -0.77937 -1.341951 -1.06066 -1.06066 
C -1.341951 -0.77937 -1.5 -0.397805 -1.5 0 
C -1.5 0.397805 -1.341951 0.77937 -1.06066 1.06066 
C -0.77937 1.341951 -0.397805 1.5 0 1.5 
z
" id="md7d766da32" style="stroke:#9467bd;"/>
    </defs>
    <g clip-path="url(#p90689c1581)">
     <use style="fill:#9467bd;stroke:#9467bd;" x="126.9" xlink:href="#md7d766da32" y="90.751175"/>
     <use style="fill:#9467bd;stroke:#9467bd;" x="135.9" xlink:href="#md7d766da32" y="331.729623"/>
     <use style="fill:#9467bd;stroke:#9467bd;" x="144.9" xlink:href="#md7d766da32" y="412.055772"/>
     <use style="fill:#9467bd;stroke:#9467bd;" x="153.9" xlink:href="#md7d766da32" y="447.854361"/>
     <use style="fill:#9467bd;stroke:#9467bd;" x="162.9" xlink:href="#md7d766da32" y="475.414371"/>
     <use style="fill:#9467bd;stroke:#9467bd;" x="171.9" xlink:href="#md7d766da32" y="484.633734"/>
     <use style="fill:#9467bd;stroke:#9467bd;" x="180.9" xlink:href="#md7d766da32" y="492.381922"/>
     <use style="fill:#9467bd;stroke:#9467bd;" x="189.9" xlink:href="#md7d766da32" y="492.48"/>
     <use style="fill:#9467bd;stroke:#9467bd;" x="198.9" xlink:href="#md7d766da32" y="492.48"/>
     <use style="fill:#9467bd;stroke:#9467bd;" x="207.9" xlink:href="#md7d766da32" y="492.48"/>
     <use style="fill:#9467bd;stroke:#9467bd;" x="216.9" xlink:href="#md7d766da32" y="492.48"/>
     <use style="fill:#9467bd;stroke:#9467bd;" x="225.9" xlink:href="#md7d766da32" y="492.48"/>
     <use style="fill:#9467bd;stroke:#9467bd;" x="234.9" xlink:href="#md7d766da32" y="492.48"/>
     <use style="fill:#9467bd;stroke:#9467bd;" x="243.9" xlink:href="#md7d766da32" y="492.48"/>
     <use style="fill:#9467bd;stroke:#9467bd;" x="252.9" xlink:href="#md7d766da32" y="492.381922"/>
     <use style="fill:#9467bd;stroke:#9467bd;" x="261.9" xlink:href="#md7d766da32" y="492.48"/>
     <use style="fill:#9467bd;stroke:#9467bd;" x="270.9" xlink:href="#md7d766da32" y="492.48"/>
     <use style="fill:#9467bd;stroke:#9467bd;" x="279.9" xlink:href="#md7d766da32" y="492.381922"/>
     <use style="fill:#9467bd;stroke:#9467bd;" x="288.9" xlink:href="#md7d766da32" y="492.48"/>
     <use style="fill:#9467bd;stroke:#9467bd;" x="297.9" xlink:href="#md7d766da32" y="492.48"/>
     <use style="fill:#9467bd;stroke:#9467bd;" x="306.9" xlink:href="#md7d766da32" y="492.381922"/>
     <use style="fill:#9467bd;stroke:#9467bd;" x="315.9" xlink:href="#md7d766da32" y="492.48"/>
     <use style="fill:#9467bd;stroke:#9467bd;" x="324.9" xlink:href="#md7d766da32" y="492.381922"/>
     <use style="fill:#9467bd;stroke:#9467bd;" x="333.9" xlink:href="#md7d766da32" y="492.48"/>
     <use style="fill:#9467bd;stroke:#9467bd;" x="342.9" xlink:href="#md7d766da32" y="492.48"/>
     <use style="fill:#9467bd;stroke:#9467bd;" x="351.9" xlink:href="#md7d766da32" y="492.381922"/>
     <use style="fill:#9467bd;stroke:#9467bd;" x="360.9" xlink:href="#md7d766da32" y="492.381922"/>
     <use style="fill:#9467bd;stroke:#9467bd;" x="369.9" xlink:href="#md7d766da32" y="492.48"/>
     <use style="fill:#9467bd;stroke:#9467bd;" x="378.9" xlink:href="#md7d766da32" y="492.381922"/>
     <use style="fill:#9467bd;stroke:#9467bd;" x="387.9" xlink:href="#md7d766da32" y="492.48"/>
     <use style="fill:#9467bd;stroke:#9467bd;" x="396.9" xlink:href="#md7d766da32" y="492.48"/>
     <use style="fill:#9467bd;stroke:#9467bd;" x="405.9" xlink:href="#md7d766da32" y="492.48"/>
     <use style="fill:#9467bd;stroke:#9467bd;" x="414.9" xlink:href="#md7d766da32" y="492.381922"/>
     <use style="fill:#9467bd;stroke:#9467bd;" x="423.9" xlink:href="#md7d766da32" y="492.48"/>
     <use style="fill:#9467bd;stroke:#9467bd;" x="432.9" xlink:href="#md7d766da32" y="492.48"/>
     <use style="fill:#9467bd;stroke:#9467bd;" x="441.9" xlink:href="#md7d766da32" y="492.48"/>
     <use style="fill:#9467bd;stroke:#9467bd;" x="450.9" xlink:href="#md7d766da32" y="492.48"/>
     <use style="fill:#9467bd;stroke:#9467bd;" x="459.9" xlink:href="#md7d766da32" y="492.48"/>
     <use style="fill:#9467bd;stroke:#9467bd;" x="468.9" xlink:href="#md7d766da32" y="492.381922"/>
     <use style="fill:#9467bd;stroke:#9467bd;" x="477.9" xlink:href="#md7d766da32" y="492.48"/>
     <use style="fill:#9467bd;stroke:#9467bd;" x="486.9" xlink:href="#md7d766da32" y="492.381922"/>
     <use style="fill:#9467bd;stroke:#9467bd;" x="495.9" xlink:href="#md7d766da32" y="492.48"/>
     <use style="fill:#9467bd;stroke:#9467bd;" x="504.9" xlink:href="#md7d766da32" y="492.48"/>
     <use style="fill:#9467bd;stroke:#9467bd;" x="513.9" xlink:href="#md7d766da32" y="492.48"/>
     <use style="fill:#9467bd;stroke:#9467bd;" x="522.9" xlink:href="#md7d766da32" y="492.381922"/>
     <use style="fill:#9467bd;stroke:#9467bd;" x="531.9" xlink:href="#md7d766da32" y="492.381922"/>
     <use style="fill:#9467bd;stroke:#9467bd;" x="540.9" xlink:href="#md7d766da32" y="492.381922"/>
     <use style="fill:#9467bd;stroke:#9467bd;" x="549.9" xlink:href="#md7d766da32" y="492.381922"/>
     <use style="fill:#9467bd;stroke:#9467bd;" x="558.9" xlink:href="#md7d766da32" y="492.48"/>
     <use style="fill:#9467bd;stroke:#9467bd;" x="567.9" xlink:href="#md7d766da32" y="492.48"/>
     <use style="fill:#9467bd;stroke:#9467bd;" x="576.9" xlink:href="#md7d766da32" y="492.381922"/>
     <use style="fill:#9467bd;stroke:#9467bd;" x="585.9" xlink:href="#md7d766da32" y="492.381922"/>
     <use style="fill:#9467bd;stroke:#9467bd;" x="594.9" xlink:href="#md7d766da32" y="492.48"/>
     <use style="fill:#9467bd;stroke:#9467bd;" x="603.9" xlink:href="#md7d766da32" y="492.48"/>
     <use style="fill:#9467bd;stroke:#9467bd;" x="612.9" xlink:href="#md7d766da32" y="492.48"/>
     <use style="fill:#9467bd;stroke:#9467bd;" x="621.9" xlink:href="#md7d766da32" y="492.381922"/>
     <use style="fill:#9467bd;stroke:#9467bd;" x="630.9" xlink:href="#md7d766da32" y="492.381922"/>
     <use style="fill:#9467bd;stroke:#9467bd;" x="639.9" xlink:href="#md7d766da32" y="492.48"/>
     <use style="fill:#9467bd;stroke:#9467bd;" x="648.9" xlink:href="#md7d766da32" y="492.48"/>
     <use style="fill:#9467bd;stroke:#9467bd;" x="657.9" xlink:href="#md7d766da32" y="492.48"/>
     <use style="fill:#9467bd;stroke:#9467bd;" x="666.9" xlink:href="#md7d766da32" y="492.48"/>
     <use style="fill:#9467bd;stroke:#9467bd;" x="675.9" xlink:href="#md7d766da32" y="492.48"/>
     <use style="fill:#9467bd;stroke:#9467bd;" x="684.9" xlink:href="#md7d766da32" y="492.48"/>
    </g>
   </g>
   <g id="line2d_30">
    <path clip-path="url(#p90689c1581)" d="M 153.9 512.64 
L 153.9 69.12 
" style="fill:none;stroke:#ff0000;stroke-dasharray:4.44,1.92;stroke-dashoffset:0;stroke-width:1.2;"/>
   </g>
   <g id="line2d_31">
    <path clip-path="url(#p90689c1581)" d="M 99 91.339645 
L 712.8 91.339645 
" style="fill:none;stroke:#0000ff;stroke-dasharray:4.44,1.92;stroke-dashoffset:0;stroke-width:1.2;"/>
   </g>
   <g id="patch_3">
    <path d="M 99 512.64 
L 99 69.12 
" style="fill:none;stroke:#cccccc;stroke-linecap:square;stroke-linejoin:miter;"/>
   </g>
   <g id="patch_4">
    <path d="M 712.8 512.64 
L 712.8 69.12 
" style="fill:none;stroke:#cccccc;stroke-linecap:square;stroke-linejoin:miter;"/>
   </g>
   <g id="patch_5">
    <path d="M 99 512.64 
L 712.8 512.64 
" style="fill:none;stroke:#cccccc;stroke-linecap:square;stroke-linejoin:miter;"/>
   </g>
   <g id="patch_6">
    <path d="M 99 69.12 
L 712.8 69.12 
" style="fill:none;stroke:#cccccc;stroke-linecap:square;stroke-linejoin:miter;"/>
   </g>
   <g id="text_15">
    <!-- Proc threads = 4 -->
    <defs>
     <path d="M 7.71875 0 
L 7.71875 71.578125 
L 34.71875 71.578125 
Q 41.84375 71.578125 45.609375 70.90625 
Q 50.875 70.015625 54.4375 67.546875 
Q 58.015625 65.09375 60.1875 60.640625 
Q 62.359375 56.203125 62.359375 50.875 
Q 62.359375 41.75 56.546875 35.421875 
Q 50.734375 29.109375 35.546875 29.109375 
L 17.1875 29.109375 
L 17.1875 0 
z
M 17.1875 37.546875 
L 35.6875 37.546875 
Q 44.875 37.546875 48.734375 40.96875 
Q 52.59375 44.390625 52.59375 50.59375 
Q 52.59375 55.078125 50.3125 58.265625 
Q 48.046875 61.46875 44.34375 62.5 
Q 41.9375 63.140625 35.5 63.140625 
L 17.1875 63.140625 
z
" id="ArialMT-80"/>
     <path d="M 52.828125 42.09375 
L 5.5625 42.09375 
L 5.5625 50.296875 
L 52.828125 50.296875 
z
M 52.828125 20.359375 
L 5.5625 20.359375 
L 5.5625 28.5625 
L 52.828125 28.5625 
z
" id="ArialMT-61"/>
    </defs>
    <g style="fill:#ff0000;" transform="translate(170.057813 -200.907834)rotate(-90)scale(0.1 -0.1)">
     <use xlink:href="#ArialMT-80"/>
     <use x="66.699219" xlink:href="#ArialMT-114"/>
     <use x="100" xlink:href="#ArialMT-111"/>
     <use x="155.615234" xlink:href="#ArialMT-99"/>
     <use x="205.615234" xlink:href="#ArialMT-32"/>
     <use x="233.398438" xlink:href="#ArialMT-116"/>
     <use x="261.181641" xlink:href="#ArialMT-104"/>
     <use x="316.796875" xlink:href="#ArialMT-114"/>
     <use x="350.097656" xlink:href="#ArialMT-101"/>
     <use x="405.712891" xlink:href="#ArialMT-97"/>
     <use x="461.328125" xlink:href="#ArialMT-100"/>
     <use x="516.943359" xlink:href="#ArialMT-115"/>
     <use x="566.943359" xlink:href="#ArialMT-32"/>
     <use x="594.726562" xlink:href="#ArialMT-61"/>
     <use x="653.125" xlink:href="#ArialMT-32"/>
     <use x="680.908203" xlink:href="#ArialMT-52"/>
    </g>
   </g>
   <g id="text_16">
    <!-- Total task run = 5 sec -->
    <defs>
     <path d="M 6.390625 0 
L 6.390625 71.578125 
L 15.1875 71.578125 
L 15.1875 0 
z
" id="ArialMT-108"/>
     <path d="M 6.640625 0 
L 6.640625 71.578125 
L 15.4375 71.578125 
L 15.4375 30.765625 
L 36.234375 51.859375 
L 47.609375 51.859375 
L 27.78125 32.625 
L 49.609375 0 
L 38.765625 0 
L 21.625 26.515625 
L 15.4375 20.5625 
L 15.4375 0 
z
" id="ArialMT-107"/>
    </defs>
    <g style="fill:#0000ff;" transform="translate(297.9 110.95531)scale(0.1 -0.1)">
     <use xlink:href="#ArialMT-84"/>
     <use x="60.912109" xlink:href="#ArialMT-111"/>
     <use x="116.527344" xlink:href="#ArialMT-116"/>
     <use x="144.310547" xlink:href="#ArialMT-97"/>
     <use x="199.925781" xlink:href="#ArialMT-108"/>
     <use x="222.142578" xlink:href="#ArialMT-32"/>
     <use x="249.925781" xlink:href="#ArialMT-116"/>
     <use x="277.708984" xlink:href="#ArialMT-97"/>
     <use x="333.324219" xlink:href="#ArialMT-115"/>
     <use x="383.324219" xlink:href="#ArialMT-107"/>
     <use x="433.324219" xlink:href="#ArialMT-32"/>
     <use x="461.107422" xlink:href="#ArialMT-114"/>
     <use x="494.408203" xlink:href="#ArialMT-117"/>
     <use x="550.023438" xlink:href="#ArialMT-110"/>
     <use x="605.638672" xlink:href="#ArialMT-32"/>
     <use x="633.421875" xlink:href="#ArialMT-61"/>
     <use x="691.820312" xlink:href="#ArialMT-32"/>
     <use x="719.603516" xlink:href="#ArialMT-53"/>
     <use x="775.21875" xlink:href="#ArialMT-32"/>
     <use x="803.001953" xlink:href="#ArialMT-115"/>
     <use x="853.001953" xlink:href="#ArialMT-101"/>
     <use x="908.617188" xlink:href="#ArialMT-99"/>
    </g>
   </g>
   <g id="text_17">
    <!-- Performance vs thread count 10 tasks -->
    <defs>
     <path d="M 8.6875 0 
L 8.6875 45.015625 
L 0.921875 45.015625 
L 0.921875 51.859375 
L 8.6875 51.859375 
L 8.6875 57.375 
Q 8.6875 62.59375 9.625 65.140625 
Q 10.890625 68.5625 14.078125 70.671875 
Q 17.28125 72.796875 23.046875 72.796875 
Q 26.765625 72.796875 31.25 71.921875 
L 29.9375 64.265625 
Q 27.203125 64.75 24.75 64.75 
Q 20.75 64.75 19.09375 63.03125 
Q 17.4375 61.328125 17.4375 56.640625 
L 17.4375 51.859375 
L 27.546875 51.859375 
L 27.546875 45.015625 
L 17.4375 45.015625 
L 17.4375 0 
z
" id="ArialMT-102"/>
     <path d="M 21 0 
L 1.265625 51.859375 
L 10.546875 51.859375 
L 21.6875 20.796875 
Q 23.484375 15.765625 25 10.359375 
Q 26.171875 14.453125 28.265625 20.21875 
L 39.796875 51.859375 
L 48.828125 51.859375 
L 29.203125 0 
z
" id="ArialMT-118"/>
    </defs>
    <g style="fill:#262626;" transform="translate(304.85625 63.12)scale(0.12 -0.12)">
     <use xlink:href="#ArialMT-80"/>
     <use x="66.699219" xlink:href="#ArialMT-101"/>
     <use x="122.314453" xlink:href="#ArialMT-114"/>
     <use x="155.615234" xlink:href="#ArialMT-102"/>
     <use x="183.398438" xlink:href="#ArialMT-111"/>
     <use x="239.013672" xlink:href="#ArialMT-114"/>
     <use x="272.314453" xlink:href="#ArialMT-109"/>
     <use x="355.615234" xlink:href="#ArialMT-97"/>
     <use x="411.230469" xlink:href="#ArialMT-110"/>
     <use x="466.845703" xlink:href="#ArialMT-99"/>
     <use x="516.845703" xlink:href="#ArialMT-101"/>
     <use x="572.460938" xlink:href="#ArialMT-32"/>
     <use x="600.244141" xlink:href="#ArialMT-118"/>
     <use x="650.244141" xlink:href="#ArialMT-115"/>
     <use x="700.244141" xlink:href="#ArialMT-32"/>
     <use x="728.027344" xlink:href="#ArialMT-116"/>
     <use x="755.810547" xlink:href="#ArialMT-104"/>
     <use x="811.425781" xlink:href="#ArialMT-114"/>
     <use x="844.726562" xlink:href="#ArialMT-101"/>
     <use x="900.341797" xlink:href="#ArialMT-97"/>
     <use x="955.957031" xlink:href="#ArialMT-100"/>
     <use x="1011.572266" xlink:href="#ArialMT-32"/>
     <use x="1039.355469" xlink:href="#ArialMT-99"/>
     <use x="1089.355469" xlink:href="#ArialMT-111"/>
     <use x="1144.970703" xlink:href="#ArialMT-117"/>
     <use x="1200.585938" xlink:href="#ArialMT-110"/>
     <use x="1256.201172" xlink:href="#ArialMT-116"/>
     <use x="1283.984375" xlink:href="#ArialMT-32"/>
     <use x="1311.767578" xlink:href="#ArialMT-49"/>
     <use x="1367.382812" xlink:href="#ArialMT-48"/>
     <use x="1422.998047" xlink:href="#ArialMT-32"/>
     <use x="1450.78125" xlink:href="#ArialMT-116"/>
     <use x="1478.564453" xlink:href="#ArialMT-97"/>
     <use x="1534.179688" xlink:href="#ArialMT-115"/>
     <use x="1584.179688" xlink:href="#ArialMT-107"/>
     <use x="1634.179688" xlink:href="#ArialMT-115"/>
    </g>
   </g>
   <g id="legend_1">
    <g id="line2d_32">
     <path d="M 599.04 106.325344 
L 619.04 106.325344 
" style="fill:none;stroke:#1f77b4;stroke-linecap:round;stroke-width:1.2;"/>
    </g>
    <g id="line2d_33">
     <g>
      <use style="fill:#1f77b4;stroke:#1f77b4;" x="609.04" xlink:href="#m9099ae3699" y="106.325344"/>
     </g>
    </g>
    <g id="text_18">
     <!-- Worst single -->
     <defs>
      <path d="M 20.21875 0 
L 1.21875 71.578125 
L 10.9375 71.578125 
L 21.828125 24.65625 
Q 23.578125 17.28125 24.859375 10.015625 
Q 27.59375 21.484375 28.078125 23.25 
L 41.703125 71.578125 
L 53.125 71.578125 
L 63.375 35.359375 
Q 67.234375 21.875 68.953125 10.015625 
Q 70.3125 16.796875 72.515625 25.59375 
L 83.734375 71.578125 
L 93.265625 71.578125 
L 73.640625 0 
L 64.5 0 
L 49.421875 54.546875 
Q 47.515625 61.375 47.171875 62.9375 
Q 46.046875 58.015625 45.0625 54.546875 
L 29.890625 0 
z
" id="ArialMT-87"/>
      <path d="M 4.984375 -4.296875 
L 13.53125 -5.5625 
Q 14.0625 -9.515625 16.5 -11.328125 
Q 19.78125 -13.765625 25.4375 -13.765625 
Q 31.546875 -13.765625 34.859375 -11.328125 
Q 38.1875 -8.890625 39.359375 -4.5 
Q 40.046875 -1.8125 39.984375 6.78125 
Q 34.234375 0 25.640625 0 
Q 14.9375 0 9.078125 7.71875 
Q 3.21875 15.4375 3.21875 26.21875 
Q 3.21875 33.640625 5.90625 39.90625 
Q 8.59375 46.1875 13.6875 49.609375 
Q 18.796875 53.03125 25.6875 53.03125 
Q 34.859375 53.03125 40.828125 45.609375 
L 40.828125 51.859375 
L 48.921875 51.859375 
L 48.921875 7.03125 
Q 48.921875 -5.078125 46.453125 -10.125 
Q 44 -15.1875 38.640625 -18.109375 
Q 33.296875 -21.046875 25.484375 -21.046875 
Q 16.21875 -21.046875 10.5 -16.875 
Q 4.78125 -12.703125 4.984375 -4.296875 
z
M 12.25 26.859375 
Q 12.25 16.65625 16.296875 11.96875 
Q 20.359375 7.28125 26.46875 7.28125 
Q 32.515625 7.28125 36.609375 11.9375 
Q 40.71875 16.609375 40.71875 26.5625 
Q 40.71875 36.078125 36.5 40.90625 
Q 32.28125 45.75 26.3125 45.75 
Q 20.453125 45.75 16.34375 40.984375 
Q 12.25 36.234375 12.25 26.859375 
z
" id="ArialMT-103"/>
     </defs>
     <g style="fill:#262626;" transform="translate(627.04 109.825344)scale(0.1 -0.1)">
      <use xlink:href="#ArialMT-87"/>
      <use x="94.369141" xlink:href="#ArialMT-111"/>
      <use x="149.984375" xlink:href="#ArialMT-114"/>
      <use x="183.285156" xlink:href="#ArialMT-115"/>
      <use x="233.285156" xlink:href="#ArialMT-116"/>
      <use x="261.068359" xlink:href="#ArialMT-32"/>
      <use x="288.851562" xlink:href="#ArialMT-115"/>
      <use x="338.851562" xlink:href="#ArialMT-105"/>
      <use x="361.068359" xlink:href="#ArialMT-110"/>
      <use x="416.683594" xlink:href="#ArialMT-103"/>
      <use x="472.298828" xlink:href="#ArialMT-108"/>
      <use x="494.515625" xlink:href="#ArialMT-101"/>
     </g>
    </g>
    <g id="line2d_34">
     <path d="M 599.04 120.587844 
L 619.04 120.587844 
" style="fill:none;stroke:#ff7f0e;stroke-linecap:round;stroke-width:1.2;"/>
    </g>
    <g id="line2d_35">
     <g>
      <use style="fill:#ff7f0e;stroke:#ff7f0e;" x="609.04" xlink:href="#m25ec4caaf2" y="120.587844"/>
     </g>
    </g>
    <g id="text_19">
     <!-- Worst multi -->
     <g style="fill:#262626;" transform="translate(627.04 124.087844)scale(0.1 -0.1)">
      <use xlink:href="#ArialMT-87"/>
      <use x="94.369141" xlink:href="#ArialMT-111"/>
      <use x="149.984375" xlink:href="#ArialMT-114"/>
      <use x="183.285156" xlink:href="#ArialMT-115"/>
      <use x="233.285156" xlink:href="#ArialMT-116"/>
      <use x="261.068359" xlink:href="#ArialMT-32"/>
      <use x="288.851562" xlink:href="#ArialMT-109"/>
      <use x="372.152344" xlink:href="#ArialMT-117"/>
      <use x="427.767578" xlink:href="#ArialMT-108"/>
      <use x="449.984375" xlink:href="#ArialMT-116"/>
      <use x="477.767578" xlink:href="#ArialMT-105"/>
     </g>
    </g>
    <g id="line2d_36">
     <path d="M 599.04 134.733156 
L 619.04 134.733156 
" style="fill:none;stroke:#2ca02c;stroke-linecap:round;stroke-width:1.2;"/>
    </g>
    <g id="line2d_37">
     <g>
      <use style="fill:#2ca02c;stroke:#2ca02c;" x="609.04" xlink:href="#ma2d5fdc198" y="134.733156"/>
     </g>
    </g>
    <g id="text_20">
     <!-- Random single -->
     <defs>
      <path d="M 7.859375 0 
L 7.859375 71.578125 
L 39.59375 71.578125 
Q 49.171875 71.578125 54.140625 69.640625 
Q 59.125 67.71875 62.109375 62.828125 
Q 65.09375 57.953125 65.09375 52.046875 
Q 65.09375 44.4375 60.15625 39.203125 
Q 55.21875 33.984375 44.921875 32.5625 
Q 48.6875 30.765625 50.640625 29 
Q 54.78125 25.203125 58.5 19.484375 
L 70.953125 0 
L 59.03125 0 
L 49.5625 14.890625 
Q 45.40625 21.34375 42.71875 24.75 
Q 40.046875 28.171875 37.921875 29.53125 
Q 35.796875 30.90625 33.59375 31.453125 
Q 31.984375 31.78125 28.328125 31.78125 
L 17.328125 31.78125 
L 17.328125 0 
z
M 17.328125 39.984375 
L 37.703125 39.984375 
Q 44.1875 39.984375 47.84375 41.328125 
Q 51.515625 42.671875 53.421875 45.625 
Q 55.328125 48.578125 55.328125 52.046875 
Q 55.328125 57.125 51.640625 60.390625 
Q 47.953125 63.671875 39.984375 63.671875 
L 17.328125 63.671875 
z
" id="ArialMT-82"/>
     </defs>
     <g style="fill:#262626;" transform="translate(627.04 138.233156)scale(0.1 -0.1)">
      <use xlink:href="#ArialMT-82"/>
      <use x="72.216797" xlink:href="#ArialMT-97"/>
      <use x="127.832031" xlink:href="#ArialMT-110"/>
      <use x="183.447266" xlink:href="#ArialMT-100"/>
      <use x="239.0625" xlink:href="#ArialMT-111"/>
      <use x="294.677734" xlink:href="#ArialMT-109"/>
      <use x="377.978516" xlink:href="#ArialMT-32"/>
      <use x="405.761719" xlink:href="#ArialMT-115"/>
      <use x="455.761719" xlink:href="#ArialMT-105"/>
      <use x="477.978516" xlink:href="#ArialMT-110"/>
      <use x="533.59375" xlink:href="#ArialMT-103"/>
      <use x="589.208984" xlink:href="#ArialMT-108"/>
      <use x="611.425781" xlink:href="#ArialMT-101"/>
     </g>
    </g>
    <g id="line2d_38">
     <path d="M 599.04 148.995656 
L 619.04 148.995656 
" style="fill:none;stroke:#d62728;stroke-linecap:round;stroke-width:1.2;"/>
    </g>
    <g id="line2d_39">
     <g>
      <use style="fill:#d62728;stroke:#d62728;" x="609.04" xlink:href="#me8f141e49e" y="148.995656"/>
     </g>
    </g>
    <g id="text_21">
     <!-- Random multi -->
     <g style="fill:#262626;" transform="translate(627.04 152.495656)scale(0.1 -0.1)">
      <use xlink:href="#ArialMT-82"/>
      <use x="72.216797" xlink:href="#ArialMT-97"/>
      <use x="127.832031" xlink:href="#ArialMT-110"/>
      <use x="183.447266" xlink:href="#ArialMT-100"/>
      <use x="239.0625" xlink:href="#ArialMT-111"/>
      <use x="294.677734" xlink:href="#ArialMT-109"/>
      <use x="377.978516" xlink:href="#ArialMT-32"/>
      <use x="405.761719" xlink:href="#ArialMT-109"/>
      <use x="489.0625" xlink:href="#ArialMT-117"/>
      <use x="544.677734" xlink:href="#ArialMT-108"/>
      <use x="566.894531" xlink:href="#ArialMT-116"/>
      <use x="594.677734" xlink:href="#ArialMT-105"/>
     </g>
    </g>
    <g id="line2d_40">
     <path d="M 599.04 163.140969 
L 619.04 163.140969 
" style="fill:none;stroke:#9467bd;stroke-linecap:round;stroke-width:1.2;"/>
    </g>
    <g id="line2d_41">
     <g>
      <use style="fill:#9467bd;stroke:#9467bd;" x="609.04" xlink:href="#md7d766da32" y="163.140969"/>
     </g>
    </g>
    <g id="text_22">
     <!-- No parents -->
     <defs>
      <path d="M 7.625 0 
L 7.625 71.578125 
L 17.328125 71.578125 
L 54.9375 15.375 
L 54.9375 71.578125 
L 64.015625 71.578125 
L 64.015625 0 
L 54.296875 0 
L 16.703125 56.25 
L 16.703125 0 
z
" id="ArialMT-78"/>
      <path d="M 6.59375 -19.875 
L 6.59375 51.859375 
L 14.59375 51.859375 
L 14.59375 45.125 
Q 17.4375 49.078125 21 51.046875 
Q 24.5625 53.03125 29.640625 53.03125 
Q 36.28125 53.03125 41.359375 49.609375 
Q 46.4375 46.1875 49.015625 39.953125 
Q 51.609375 33.734375 51.609375 26.3125 
Q 51.609375 18.359375 48.75 11.984375 
Q 45.90625 5.609375 40.453125 2.21875 
Q 35.015625 -1.171875 29 -1.171875 
Q 24.609375 -1.171875 21.109375 0.6875 
Q 17.625 2.546875 15.375 5.375 
L 15.375 -19.875 
z
M 14.546875 25.640625 
Q 14.546875 15.625 18.59375 10.84375 
Q 22.65625 6.0625 28.421875 6.0625 
Q 34.28125 6.0625 38.453125 11.015625 
Q 42.625 15.96875 42.625 26.375 
Q 42.625 36.28125 38.546875 41.203125 
Q 34.46875 46.140625 28.8125 46.140625 
Q 23.1875 46.140625 18.859375 40.890625 
Q 14.546875 35.640625 14.546875 25.640625 
z
" id="ArialMT-112"/>
     </defs>
     <g style="fill:#262626;" transform="translate(627.04 166.640969)scale(0.1 -0.1)">
      <use xlink:href="#ArialMT-78"/>
      <use x="72.216797" xlink:href="#ArialMT-111"/>
      <use x="127.832031" xlink:href="#ArialMT-32"/>
      <use x="155.615234" xlink:href="#ArialMT-112"/>
      <use x="211.230469" xlink:href="#ArialMT-97"/>
      <use x="266.845703" xlink:href="#ArialMT-114"/>
      <use x="300.146484" xlink:href="#ArialMT-101"/>
      <use x="355.761719" xlink:href="#ArialMT-110"/>
      <use x="411.376953" xlink:href="#ArialMT-116"/>
      <use x="439.160156" xlink:href="#ArialMT-115"/>
     </g>
    </g>
   </g>
  </g>
  <g id="legend_2"/>
 </g>
 <defs>
  <clipPath id="p90689c1581">
   <rect height="443.52" width="613.8" x="99" y="69.12"/>
  </clipPath>
 </defs>
</svg>
